<?xml version="1.0" encoding="UTF-8"?>
<svg xmlns="http://www.w3.org/2000/svg" xmlns:xlink="http://www.w3.org/1999/xlink" width="189pt" height="164pt" viewBox="0 0 189 164"><!--latexit:AAAKhXjajVZbbBtFFJ3Jbh9OH3bS93tLXEhoEmzHeTRpoG5L2tLWfTgPJ7Zr1rtj
e5v1rrs729SxjEaoqvoBQuKngASl6U+LEAUEqKpQvyigClU0jRAPIdQfEAghxA8f
/DC76zp27Kb1yvLcO+fce+fOmVknsrKkY49nBtYx7IKFi+rD7tNI0yVVGXXzmpCW
qDXoxmo27FYTJ5GA9UYAz70bdzmDoYMoh8RAEXR3sWNQU1VM4DXX1iVLtz35VHPL
09tb29qf6ezbuWvvCwePHR+LnOBR8mQmi40ht2LI8r1ly52u9e6RYKh9HOX0Mfpb
TDLsFmRe1682NK5YuWr1mrXrSB1hCEsWkIVkEVlMHKT+6oaNmzZv4bY+0USWkKVk
OXGSBrKebCCbyGbChRO8jmRJQUOCKqvaYEYV0RCWsIzCWQ3xmYSMYhk+pUhJSeAx
Xe6gyGNEl5XghfGUphqKuMckjumqoQloEJ3BTaD4uefxOn0d/qFg6Pi+3dFgyAKG
sryABjwcfYALkmXTXd09O8bsZSh8BoXtIdJHioSpnt5wMHTEWq+rbtrZ/+xzo7QB
OtYkJUVcR2mAwG6rz4cNzNN6Q9bM5cAek2cb9553Duzbf6Bk02ICmI4SBkY6aSTr
yIp4A3w9KqqCkUEKtkqIeD1ZHMvzGpYEGRXqo4aOaPHjfApF6NAsVo/lrbYVuG3U
I3JJVaNfBXOWt5yR5zO6nsskKDLD47Q+d8501pqLGDjZE8tLSpaWqgh2oqQhc1jl
cC6LOFHSaGPkHB3wgibRWjkhzWu8gKk8K7KYsbP8pFqxkjyWxicrPQlD17NUokm9
GtkmiIWqoJo+F3rKMKVeTZcw9VlryafVbLLd9Ok4J6M5/AfSK5jKPxQ8eukwWXnp
CFlF1g4HQwO0wTOhwSHn8Eh4lNohaRLRnU0OyHxKp3aQbkzTrmZbgy4XWU3WDB9W
FV5QqVSisWKEqWgvNeMvUinslQRT2byWm4qbzoQQdzWWKUS0RTMl9tb0N+3abeea
TjnTknlIsUQrCHz1I9vy9r9/k4005LhM0+6lJ2dqvNc8FkqHf8DL0QeQZaY4T+0/
QLbYMmT/iCZQSlKshmVpaYaGChHTSEqpWL2jOJtNUaHJfI62Oa/QQ2sP6x2OqGlx
Eaut/WlVltWJGNfsaeF4zDW3eVs5Osy7o7qUyvDuQt9DGV6b4Wnl2nyUUY3UVVkS
KdBXAtbGKaqCKKxjNp5/Ppy/hJsX1m3D/MX19LsfiuyxkR2PSryjhKsNm+2MZzbi
/K3xektI3yNiFrvY/fj7U2xo16Or8JeQ8+6Qt3M24ryd8naVgPPjiq33VWxSFCli
uXxrShqJqTJJixo/wUUSlMjJKIlbOVlV6Q2MdL3f097daauV3ohU5n1z8JqUStci
+KoJD3z+doG+A5BWPtXxwGchvOVT3mLuHTVoPZW0xy/P3F2L4quiPKwD/hqMWW9X
jeq8nZXlddTM1e8v65e39gpsTCmZFahqny1H+a1WT2/G0xNx14rSu3v2Kr58Ot4L
FoMGsB64QQvwgW5wABwCx0AITIACOAteARfAO+AKeA+8Dz4AH4KPwSfgM3Ad3ABf
gC/B1+A2+AbcAd+CaTADvgPfg/vgN/An+Af8Bx1wOeTgduiHfTAAg3AIjsBReAJK
UIOTsADPwfPwVXgBvgnfghfhR/BTeBPegnfgT/Bn+Au8z0wwLzGEeZk5y5xjzjOv
MW8wF5krzDXmOnOD+Zy5ydxibjN3mRnmB+ZX5nfmL5ZhF7IbWDfbwnrZXnYnG2D3
swfZ4+woG2ETrMgm2bRj2BFxnLJfI3Ww+P/pDKj4OIz/ARD/US4=-->
<defs>
<g>
<g id="glyph-0-0">
<path d="M 8.34375 -7.09375 C 7.953125 -6.96875 7.296875 -6.875 6.828125 -6.875 C 6.40625 -6.875 5.6875 -6.875 5.296875 -6.890625 C 4.859375 -6.90625 4.34375 -6.921875 4 -6.921875 C 3.375 -6.921875 2.765625 -6.71875 2.140625 -6.28125 C 0.921875 -5.453125 0.25 -3.984375 0.25 -2.1875 C 0.25 -0.390625 0.90625 0.15625 1.84375 0.15625 C 2.46875 0.15625 3.0625 -0.125 3.75 -0.78125 C 4.359375 -1.359375 5 -2.265625 5.40625 -3.171875 C 5.765625 -3.9375 6.03125 -4.921875 6.03125 -5.515625 C 6.03125 -5.703125 6 -5.875 5.953125 -6.03125 C 6.4375 -6.015625 6.828125 -6.015625 7.15625 -6.015625 C 7.40625 -6.015625 7.71875 -6.125 7.953125 -6.203125 C 8.109375 -6.515625 8.171875 -6.578125 8.4375 -6.921875 Z M 3.453125 -6.375 C 4.328125 -6.375 5.09375 -6.234375 5.09375 -5.125 C 5.09375 -2.96875 3.703125 -0.5625 2.4375 -0.5625 C 1.734375 -0.5625 1.328125 -1.21875 1.328125 -2.171875 C 1.328125 -3.875 1.90625 -5.578125 2.59375 -6.140625 C 2.78125 -6.296875 3.109375 -6.375 3.453125 -6.375 Z M 3.453125 -6.375 "/>
</g>
<g id="glyph-1-0">
<path d="M 10.28125 -4.90625 C 10.515625 -4.90625 10.796875 -4.90625 10.796875 -5.203125 C 10.796875 -5.5 10.515625 -5.5 10.296875 -5.5 L 1.328125 -5.5 C 1.125 -5.5 0.84375 -5.5 0.84375 -5.203125 C 0.84375 -4.90625 1.125 -4.90625 1.34375 -4.90625 Z M 10.296875 -2 C 10.515625 -2 10.796875 -2 10.796875 -2.296875 C 10.796875 -2.59375 10.515625 -2.59375 10.28125 -2.59375 L 1.34375 -2.59375 C 1.125 -2.59375 0.84375 -2.59375 0.84375 -2.296875 C 0.84375 -2 1.125 -2 1.328125 -2 Z M 10.296875 -2 "/>
</g>
</g>
<clipPath id="clip-0">
<path clip-rule="nonzero" d="M 32 0 L 34 0 L 34 35 L 32 35 Z M 32 0 "/>
</clipPath>
<clipPath id="clip-1">
<path clip-rule="nonzero" d="M 32 129 L 34 129 L 34 164 L 32 164 Z M 32 129 "/>
</clipPath>
<clipPath id="clip-2">
<path clip-rule="nonzero" d="M 94 0 L 95 0 L 95 35 L 94 35 Z M 94 0 "/>
</clipPath>
<clipPath id="clip-3">
<path clip-rule="nonzero" d="M 94 129 L 95 129 L 95 164 L 94 164 Z M 94 129 "/>
</clipPath>
<clipPath id="clip-4">
<path clip-rule="nonzero" d="M 155 0 L 157 0 L 157 35 L 155 35 Z M 155 0 "/>
</clipPath>
<clipPath id="clip-5">
<path clip-rule="nonzero" d="M 155 129 L 157 129 L 157 164 L 155 164 Z M 155 129 "/>
</clipPath>
<clipPath id="clip-6">
<path clip-rule="nonzero" d="M 0 61 L 34 61 L 34 103 L 0 103 Z M 0 61 "/>
</clipPath>
<clipPath id="clip-7">
<path clip-rule="nonzero" d="M 155 61 L 189 61 L 189 103 L 155 103 Z M 155 61 "/>
</clipPath>
<clipPath id="clip-8">
<rect x="0" y="0" width="189" height="164"/>
</clipPath>
<g id="source-5" clip-path="url(#clip-8)">
<path fill="none" stroke-width="0.3985" stroke-linecap="butt" stroke-linejoin="miter" stroke="rgb(0%, 0%, 0%)" stroke-opacity="1" stroke-miterlimit="10" d="M -4.083847 -25.648441 C -9.264992 -22.907205 -14.484074 -14.58608 -14.698149 -8.727467 " transform="matrix(1.441525, 0, 0, -1.443521, 33.23853, 82.10875)"/>
<path fill="none" stroke-width="0.3985" stroke-linecap="butt" stroke-linejoin="miter" stroke="rgb(0%, 0%, 0%)" stroke-opacity="1" stroke-miterlimit="10" d="M -4.083847 25.650281 C -9.264992 22.906339 -14.484074 14.585214 -14.698149 8.726601 " transform="matrix(1.441525, 0, 0, -1.443521, 33.23853, 82.10875)"/>
<g clip-path="url(#clip-0)">
<path fill="none" stroke-width="0.3985" stroke-linecap="butt" stroke-linejoin="miter" stroke="rgb(0%, 0%, 0%)" stroke-opacity="1" stroke-miterlimit="10" d="M -0.00017256 33.243476 L -0.00017256 56.694166 " transform="matrix(1.441525, 0, 0, -1.443521, 33.23853, 82.10875)"/>
</g>
<g clip-path="url(#clip-1)">
<path fill="none" stroke-width="0.3985" stroke-linecap="butt" stroke-linejoin="miter" stroke="rgb(0%, 0%, 0%)" stroke-opacity="1" stroke-miterlimit="10" d="M -0.00017256 -56.692326 L -0.00017256 -33.241636 " transform="matrix(1.441525, 0, 0, -1.443521, 33.23853, 82.10875)"/>
</g>
<g clip-path="url(#clip-2)">
<path fill="none" stroke-width="0.3985" stroke-linecap="butt" stroke-linejoin="miter" stroke="rgb(0%, 0%, 0%)" stroke-opacity="1" stroke-miterlimit="10" d="M 42.51936 33.243476 L 42.51936 56.694166 " transform="matrix(1.441525, 0, 0, -1.443521, 33.23853, 82.10875)"/>
</g>
<g clip-path="url(#clip-3)">
<path fill="none" stroke-width="0.3985" stroke-linecap="butt" stroke-linejoin="miter" stroke="rgb(0%, 0%, 0%)" stroke-opacity="1" stroke-miterlimit="10" d="M 42.51936 -56.692326 L 42.51936 -33.241636 " transform="matrix(1.441525, 0, 0, -1.443521, 33.23853, 82.10875)"/>
</g>
<path fill="none" stroke-width="0.3985" stroke-linecap="butt" stroke-linejoin="miter" stroke="rgb(0%, 0%, 0%)" stroke-opacity="1" stroke-miterlimit="10" d="M 89.125276 -25.648441 C 94.306421 -22.907205 99.522794 -14.58608 99.736868 -8.727467 " transform="matrix(1.441525, 0, 0, -1.443521, 33.23853, 82.10875)"/>
<path fill="none" stroke-width="0.3985" stroke-linecap="butt" stroke-linejoin="miter" stroke="rgb(0%, 0%, 0%)" stroke-opacity="1" stroke-miterlimit="10" d="M 89.125276 25.650281 C 94.306421 22.906339 99.522794 14.585214 99.736868 8.726601 " transform="matrix(1.441525, 0, 0, -1.443521, 33.23853, 82.10875)"/>
<g clip-path="url(#clip-4)">
<path fill="none" stroke-width="0.3985" stroke-linecap="butt" stroke-linejoin="miter" stroke="rgb(0%, 0%, 0%)" stroke-opacity="1" stroke-miterlimit="10" d="M 85.041602 33.243476 L 85.041602 56.694166 " transform="matrix(1.441525, 0, 0, -1.443521, 33.23853, 82.10875)"/>
</g>
<g clip-path="url(#clip-5)">
<path fill="none" stroke-width="0.3985" stroke-linecap="butt" stroke-linejoin="miter" stroke="rgb(0%, 0%, 0%)" stroke-opacity="1" stroke-miterlimit="10" d="M 85.041602 -56.692326 L 85.041602 -33.241636 " transform="matrix(1.441525, 0, 0, -1.443521, 33.23853, 82.10875)"/>
</g>
<path fill="none" stroke-width="0.3985" stroke-linecap="butt" stroke-linejoin="miter" stroke="rgb(0%, 0%, 0%)" stroke-opacity="1" stroke-miterlimit="10" d="M 3.462957 24.884467 C 17.185403 11.162052 17.185403 -11.160212 3.462957 -24.885332 " transform="matrix(1.441525, 0, 0, -1.443521, 33.23853, 82.10875)"/>
<path fill="none" stroke-width="0.3985" stroke-linecap="butt" stroke-linejoin="miter" stroke="rgb(0%, 0%, 0%)" stroke-opacity="1" stroke-miterlimit="10" d="M 81.578472 24.884467 C 67.853316 11.162052 67.853316 -11.160212 81.578472 -24.885332 " transform="matrix(1.441525, 0, 0, -1.443521, 33.23853, 82.10875)"/>
<g clip-path="url(#clip-6)">
<path fill="none" stroke-width="0.3985" stroke-linecap="butt" stroke-linejoin="miter" stroke="rgb(0%, 0%, 0%)" stroke-opacity="1" stroke-miterlimit="10" d="M -5.628435 -0.000432969 C -5.628435 4.71893 -9.454678 8.545295 -14.172447 8.545295 C -18.892925 8.545295 -22.716458 4.71893 -22.716458 -0.000432969 C -22.716458 -4.719796 -18.892925 -8.543455 -14.172447 -8.543455 C -9.454678 -8.543455 -5.628435 -4.719796 -5.628435 -0.000432969 Z M -5.628435 -0.000432969 " transform="matrix(1.441525, 0, 0, -1.443521, 33.23853, 82.10875)"/>
</g>
<g fill="rgb(0%, 0%, 0%)" fill-opacity="1">
<use xlink:href="#glyph-0-0" x="8.728245" y="85.588814"/>
</g>
<path fill="none" stroke-width="0.3985" stroke-linecap="butt" stroke-linejoin="miter" stroke="rgb(0%, 0%, 0%)" stroke-opacity="1" stroke-miterlimit="10" d="M 4.695918 -28.346379 C 4.695918 -25.753977 2.59311 -23.651371 -0.00017256 -23.651371 C -2.593455 -23.651371 -4.696263 -25.753977 -4.696263 -28.346379 C -4.696263 -30.941488 -2.593455 -33.044094 -0.00017256 -33.044094 C 2.59311 -33.044094 4.695918 -30.941488 4.695918 -28.346379 Z M 4.695918 -28.346379 " transform="matrix(1.441525, 0, 0, -1.443521, 33.23853, 82.10875)"/>
<path fill-rule="nonzero" fill="rgb(0%, 0%, 0%)" fill-opacity="1" stroke-width="0.3985" stroke-linecap="butt" stroke-linejoin="miter" stroke="rgb(0%, 0%, 0%)" stroke-opacity="1" stroke-miterlimit="10" d="M 4.695918 28.345513 C 4.695918 30.940622 2.59311 33.043228 -0.00017256 33.043228 C -2.593455 33.043228 -4.696263 30.940622 -4.696263 28.345513 C -4.696263 25.753111 -2.593455 23.650505 -0.00017256 23.650505 C 2.59311 23.650505 4.695918 25.753111 4.695918 28.345513 Z M 4.695918 28.345513 " transform="matrix(1.441525, 0, 0, -1.443521, 33.23853, 82.10875)"/>
<g fill="rgb(0%, 0%, 0%)" fill-opacity="1">
<use xlink:href="#glyph-1-0" x="109.146318" y="84.848288"/>
</g>
<path fill="none" stroke-width="0.3985" stroke-linecap="butt" stroke-linejoin="miter" stroke="rgb(0%, 0%, 0%)" stroke-opacity="1" stroke-miterlimit="10" d="M 47.21545 -28.346379 C 47.21545 -25.753977 45.112642 -23.651371 42.51936 -23.651371 C 39.926077 -23.651371 37.82327 -25.753977 37.82327 -28.346379 C 37.82327 -30.941488 39.926077 -33.044094 42.51936 -33.044094 C 45.112642 -33.044094 47.21545 -30.941488 47.21545 -28.346379 Z M 47.21545 -28.346379 " transform="matrix(1.441525, 0, 0, -1.443521, 33.23853, 82.10875)"/>
<path fill-rule="nonzero" fill="rgb(0%, 0%, 0%)" fill-opacity="1" stroke-width="0.3985" stroke-linecap="butt" stroke-linejoin="miter" stroke="rgb(0%, 0%, 0%)" stroke-opacity="1" stroke-miterlimit="10" d="M 47.21545 28.345513 C 47.21545 30.940622 45.112642 33.043228 42.51936 33.043228 C 39.926077 33.043228 37.82327 30.940622 37.82327 28.345513 C 37.82327 25.753111 39.926077 23.650505 42.51936 23.650505 C 45.112642 23.650505 47.21545 25.753111 47.21545 28.345513 Z M 47.21545 28.345513 " transform="matrix(1.441525, 0, 0, -1.443521, 33.23853, 82.10875)"/>
<g clip-path="url(#clip-7)">
<path fill="none" stroke-width="0.3985" stroke-linecap="butt" stroke-linejoin="miter" stroke="rgb(0%, 0%, 0%)" stroke-opacity="1" stroke-miterlimit="10" d="M 107.757887 -0.000432969 C 107.757887 4.71893 103.931644 8.545295 99.213876 8.545295 C 94.496107 8.545295 90.669864 4.71893 90.669864 -0.000432969 C 90.669864 -4.719796 94.496107 -8.543455 99.213876 -8.543455 C 103.931644 -8.543455 107.757887 -4.719796 107.757887 -0.000432969 Z M 107.757887 -0.000432969 " transform="matrix(1.441525, 0, 0, -1.443521, 33.23853, 82.10875)"/>
</g>
<g fill="rgb(0%, 0%, 0%)" fill-opacity="1">
<use xlink:href="#glyph-0-0" x="172.176998" y="85.588814"/>
</g>
<path fill="none" stroke-width="0.3985" stroke-linecap="butt" stroke-linejoin="miter" stroke="rgb(0%, 0%, 0%)" stroke-opacity="1" stroke-miterlimit="10" d="M 89.737692 -28.346379 C 89.737692 -25.753977 87.634884 -23.651371 85.041602 -23.651371 C 82.44561 -23.651371 80.342802 -25.753977 80.342802 -28.346379 C 80.342802 -30.941488 82.44561 -33.044094 85.041602 -33.044094 C 87.634884 -33.044094 89.737692 -30.941488 89.737692 -28.346379 Z M 89.737692 -28.346379 " transform="matrix(1.441525, 0, 0, -1.443521, 33.23853, 82.10875)"/>
<path fill-rule="nonzero" fill="rgb(0%, 0%, 0%)" fill-opacity="1" stroke-width="0.3985" stroke-linecap="butt" stroke-linejoin="miter" stroke="rgb(0%, 0%, 0%)" stroke-opacity="1" stroke-miterlimit="10" d="M 89.737692 28.345513 C 89.737692 30.940622 87.634884 33.043228 85.041602 33.043228 C 82.44561 33.043228 80.342802 30.940622 80.342802 28.345513 C 80.342802 25.753111 82.44561 23.650505 85.041602 23.650505 C 87.634884 23.650505 89.737692 25.753111 89.737692 28.345513 Z M 89.737692 28.345513 " transform="matrix(1.441525, 0, 0, -1.443521, 33.23853, 82.10875)"/>
<g fill="rgb(0%, 0%, 0%)" fill-opacity="1">
<use xlink:href="#glyph-1-0" x="68.283408" y="84.848288"/>
</g>
</g>
</defs>
<use xlink:href="#source-5"/>
</svg>
