<?xml version="1.0" encoding="UTF-8"?>
<svg xmlns="http://www.w3.org/2000/svg" xmlns:xlink="http://www.w3.org/1999/xlink" width="362pt" height="141pt" viewBox="0 0 362 141"><!--latexit:AAAKx3jafVZbbBvHFZ1RJoklxyZlx3k4Try25FhqKJmilMhWrNQUFVIrkXTslSiK
WlkdLofLlfblnaXJ1WLRLVAE/WiBAv3IA2jTKD9JUbRNmxf6ka+2aYvCaG23CFAU
QX7afhQo2qJfBYrOkpRE6lEuSM7cOffcc+/cGbJoqgq1o9F7sOs+dP8DD/bk+28R
iyqGvtSPLamisNl8v22Y+X6juEYkmx4D8OXvroZDWWGOOKQUb4F+d6h73jIM24c/
DJ85/NC5p88PDH7hmcjQ8IVnn798ZXp27tr1wvINTMprmmlXF/r1qqrePXI0FD7Z
v5gVhteJQwvsuxUk1y+pmNJ3eo8df/jEI48+9rjf5d/nI/9+/wH/Qf+Q3+33vPPE
qSefOs2dOdvnH/Yf8o/6Ib/XP+k/4T/pP+Vz+SKmRFV0siAZqmHNa0aJLNiKrZK8
aRGsFVWyomFZV8qKhG2W7nwJ24SlVcTSumwZVb2UCBwL1KhaEpkndbsPtF53oyOh
2OjYQla4npoSs0IDKJhYIskoxx4Qhv6RO8+NX7xUaKahY43km0NCF1sOmxcn8lnh
aiPfcNed0OQLX1xiBaC2peiyH36JEcSnGnXOVG3M9AqNlbfiicCvObn7YiiZmuG3
50xM3GajYtUm1D/mP+4fX+3tOi2WDKmqEd1uSFgeiZr2iostW5FU4vWIVUqY+HUs
k2U2DMTSFbdRNo87xywlrmxY7K3bXMPa7uFijVJHKzKkhu0K3b0WGPdbW67a5Ysr
rqKbTKouNQOVqypnG5ztmIQrKRYrjOqwAZYshWnlpAq2sGSz9uyIEnCbeMPoyMS1
lfWNTkuxSqnJWrRM9yKHpJK3h9Siu6E3q0Gr73VXbGZr5OJWDLM8HNio7ahkl/9W
63k9PeI0YbthkSQraxJriuq4C56rKbrneh2LQgWbZHtN81z2eXnoBa5a0tZGow20
RXRSkwxNw3pJdAxXPCParGHdIHSwbZ3eYrBfhuqej0XHPU884wXHMJ196c2M//Cb
V/0T/mO5rBBEvifML4Ryi/klNheUDcLarJxUsUzZPMu6pO/KQPNAhMP+I/6juYyh
Y8lgfSuutBg2xQk2Xf0S68tpRQqOGbaczdXAWJRWw8fa2rXU7ODN0sS+9r4rU81Y
d+RQRQluDFthCuKf/PfL4zNfec0/xSjXVRZ2mh3jzfWJ4Izqo2PJEY49wD8SnJSb
M7x/unkm0BvnuIptm3TiwoWbw41dHcameaHv5uTiRpxmhXoxk6htpBO8gYUpKZ/K
mpKWkedSspxP1tdwfnaNT0nmXNtaQZktpZPUSU9nKK+t7+ASsoETbTinbS21ZPJq
lAYxM0JNmUtUTD5Zl5ZiqrPkTBkd/J1+Sj7QqNTq6cRsm0+8I9ZcSuqINSc0NNbT
03HKKwfH2u3XrpHZK8WZKWMpd2kcC3WjjUNPpwqXeKVWS89QpZjKxQqLNeXq2uyl
ltYa08piJKmUqlTyo7aZTsm0MBrtyCs9zVPizNJCvqAWE/xzGX2kpXlXXYO4i/Ua
TiXLJMZ4nLpWFniaUerjvFZXS1qO8muGU84F2q/RjLNbe5ziRF1v09/0T+znz9Ns
Yrf/Tr0CngNzz0Une8QikRW9cVewm2ZZsrBmktJKD8c9zbkDCidKiiVxlcHWYEBu
DcqDHkOIIgO6A3tx8tagzGCMaQswUNlLxJgaPC2yPVB58CCyNsiOrIAJW5ZRWz7r
ilg1K3iVeUQqke2Innc2wl1X5IrdwEW4smVokyNDsQi75CdjQ6Mr+3O0cozIkQMo
YkMjDQpGtT9FoMLblnH2/P/hGBsaOYhjK+mDZIxtU3RmspXBFtVWJuf35RjdqYZI
9NJWi7Dr7FZtNXx8+9d/5/5869bqBDgEesFJ0A8GQQyMAx6kwTUggBrwwFfB18Er
4DvgbfA98H3wA/Aj8GPwHvgAfAR+Cn4GfgF+CX4NfgNug9+CO+Ae+AP4FHwO/gL+
Bv4J/gO74VHIwWfgGHwexmEWLsBFuARvQAVacAN68GX4NfgN+Ap8Db4O34Dvwvfh
x/Dn8Db8I/wT/Ax+jhA6jI6gEOpFx9EJdAqdQxH0LLqMXkQpxKM5dB0tohsIozKi
6BZy0TfRt9Db6F30AfoYfYJ+hW6j36NP0Wfoz+iv6O/oH+hf6N/dr3Z/u/snzbu/
C7b+gdVBx6v7w/8BIg6iQA==-->
<defs>
<g>
<g id="glyph-0-0">
<path d="M 4.953125 3.59375 C 4.953125 3.546875 4.953125 3.515625 4.703125 3.265625 C 2.828125 1.375 2.359375 -1.453125 2.359375 -3.734375 C 2.359375 -6.34375 2.921875 -8.953125 4.765625 -10.828125 C 4.953125 -11 4.953125 -11.03125 4.953125 -11.078125 C 4.953125 -11.1875 4.90625 -11.21875 4.8125 -11.21875 C 4.65625 -11.21875 3.3125 -10.203125 2.421875 -8.3125 C 1.65625 -6.65625 1.484375 -5 1.484375 -3.734375 C 1.484375 -2.578125 1.640625 -0.765625 2.46875 0.921875 C 3.375 2.765625 4.65625 3.734375 4.8125 3.734375 C 4.90625 3.734375 4.953125 3.703125 4.953125 3.59375 Z M 4.953125 3.59375 "/>
</g>
<g id="glyph-0-1">
<path d="M 4.328125 -3.734375 C 4.328125 -4.90625 4.171875 -6.71875 3.34375 -8.40625 C 2.4375 -10.25 1.15625 -11.21875 1 -11.21875 C 0.90625 -11.21875 0.859375 -11.171875 0.859375 -11.078125 C 0.859375 -11.03125 0.859375 -11 1.140625 -10.734375 C 2.609375 -9.25 3.46875 -6.875 3.46875 -3.734375 C 3.46875 -1.1875 2.90625 1.453125 1.046875 3.34375 C 0.859375 3.515625 0.859375 3.546875 0.859375 3.59375 C 0.859375 3.6875 0.90625 3.734375 1 3.734375 C 1.15625 3.734375 2.5 2.71875 3.390625 0.828125 C 4.15625 -0.828125 4.328125 -2.484375 4.328125 -3.734375 Z M 4.328125 -3.734375 "/>
</g>
<g id="glyph-1-0">
<path d="M 0.484375 -5.578125 L 0.59375 -5.28125 L 1.046875 -5.578125 C 1.578125 -5.921875 1.625 -5.9375 1.71875 -5.9375 C 1.875 -5.9375 1.984375 -5.796875 1.984375 -5.609375 C 1.984375 -5.515625 1.921875 -5.1875 1.875 -4.984375 L 0.921875 -1.53125 C 0.8125 -1.09375 0.734375 -0.703125 0.734375 -0.4375 C 0.734375 -0.09375 0.890625 0.125 1.171875 0.125 C 1.53125 0.125 2.0625 -0.171875 3.46875 -1.21875 L 3.328125 -1.484375 L 2.953125 -1.234375 C 2.53125 -0.96875 2.203125 -0.796875 2.0625 -0.796875 C 1.96875 -0.796875 1.890625 -0.953125 1.890625 -1.09375 C 1.890625 -1.234375 1.90625 -1.359375 1.984375 -1.671875 L 3.09375 -6.03125 C 3.140625 -6.28125 3.171875 -6.4375 3.171875 -6.546875 C 3.171875 -6.796875 3.046875 -6.921875 2.8125 -6.921875 C 2.5 -6.921875 1.96875 -6.625 0.890625 -5.859375 Z M 3.28125 -10.21875 C 2.859375 -10.21875 2.4375 -9.75 2.4375 -9.265625 C 2.4375 -8.90625 2.65625 -8.671875 3 -8.671875 C 3.453125 -8.671875 3.796875 -9.09375 3.796875 -9.640625 C 3.796875 -9.984375 3.578125 -10.21875 3.28125 -10.21875 Z M 3.28125 -10.21875 "/>
</g>
<g id="glyph-1-1">
<path d="M 3.390625 -10.375 L 3.21875 -10.53125 C 2.46875 -10.15625 1.953125 -10.015625 0.921875 -9.921875 L 0.859375 -9.625 L 1.546875 -9.625 C 1.890625 -9.625 2.046875 -9.515625 2.046875 -9.28125 C 2.046875 -9.15625 2.03125 -9.03125 2.015625 -8.9375 L 1.40625 -5.578125 C 1 -3.40625 0.453125 -0.9375 0.140625 -0.03125 L 0.25 0.125 L 1.234375 -0.09375 C 1.46875 -1.75 1.703125 -2.625 2.125 -3.390625 C 2.765625 -4.546875 4.25 -5.9375 4.859375 -5.9375 C 5.046875 -5.9375 5.171875 -5.8125 5.171875 -5.625 C 5.171875 -5.375 5.078125 -4.828125 4.953125 -4.34375 L 4.21875 -1.53125 C 4.09375 -1.015625 4.046875 -0.703125 4.046875 -0.4375 C 4.046875 -0.09375 4.203125 0.125 4.46875 0.125 C 4.84375 0.125 5.359375 -0.171875 6.765625 -1.21875 L 6.625 -1.484375 L 6.25 -1.234375 C 5.84375 -0.96875 5.515625 -0.796875 5.375 -0.796875 C 5.28125 -0.796875 5.1875 -0.9375 5.1875 -1.09375 C 5.1875 -1.234375 5.203125 -1.34375 5.296875 -1.671875 L 6.203125 -5.34375 C 6.296875 -5.71875 6.375 -6.15625 6.375 -6.40625 C 6.375 -6.71875 6.203125 -6.921875 5.953125 -6.921875 C 5.46875 -6.921875 4.578125 -6.453125 3.6875 -5.6875 C 3.171875 -5.265625 2.9375 -5.015625 2.265625 -4.171875 L 1.984375 -3.8125 Z M 3.390625 -10.375 "/>
</g>
<g id="glyph-1-2">
<path d="M 5.828125 -5.453125 C 6.0625 -5.421875 6.1875 -5.421875 6.3125 -5.421875 C 6.5625 -5.421875 6.703125 -5.4375 7.03125 -5.484375 L 7.15625 -6.125 L 7.109375 -6.21875 C 6.71875 -6.109375 6.421875 -6.09375 5.65625 -6.09375 C 5.421875 -6.46875 5.28125 -6.59375 4.921875 -6.734375 C 4.609375 -6.84375 4.25 -6.921875 3.953125 -6.921875 C 3.359375 -6.921875 2.640625 -6.640625 2.015625 -6.171875 C 1.203125 -5.578125 0.796875 -4.734375 0.796875 -3.71875 C 0.796875 -2.609375 1.4375 -1.953125 2.546875 -1.953125 C 2.65625 -1.953125 2.8125 -1.953125 2.96875 -1.96875 L 2.390625 -1.421875 C 2.15625 -1.203125 2 -0.953125 2 -0.75 C 2 -0.609375 2.09375 -0.4375 2.296875 -0.265625 C 1.203125 0.09375 0.765625 0.296875 0.234375 0.75 C -0.265625 1.15625 -0.53125 1.703125 -0.53125 2.28125 C -0.53125 3.296875 0.46875 3.96875 2.046875 3.96875 C 3.890625 3.96875 5.515625 2.921875 5.515625 1.734375 C 5.515625 1.21875 5.21875 0.703125 4.59375 0.203125 L 3.734375 -0.5 C 3.25 -0.890625 3.0625 -1.15625 3.0625 -1.4375 C 3.0625 -1.5625 3.140625 -1.703125 3.359375 -1.984375 C 3.40625 -2.03125 3.421875 -2.046875 3.453125 -2.09375 C 4.859375 -2.4375 5.875 -3.640625 5.875 -4.90625 C 5.875 -5.046875 5.859375 -5.171875 5.84375 -5.390625 Z M 3.640625 0.828125 C 4.296875 1.34375 4.578125 1.734375 4.578125 2.21875 C 4.578125 2.953125 3.578125 3.5625 2.390625 3.5625 C 1.203125 3.5625 0.390625 2.953125 0.390625 2.078125 C 0.390625 1.53125 0.640625 1.03125 1.109375 0.640625 C 1.484375 0.34375 1.796875 0.203125 2.53125 -0.015625 Z M 3.59375 -6.4375 C 4.421875 -6.4375 4.84375 -5.921875 4.84375 -4.890625 C 4.84375 -3.421875 4.15625 -2.40625 3.140625 -2.40625 C 2.265625 -2.40625 1.8125 -3 1.8125 -4.140625 C 1.8125 -5.5 2.546875 -6.4375 3.59375 -6.4375 Z M 3.59375 -6.4375 "/>
</g>
<g id="glyph-1-3">
<path d="M 4.109375 -5.5 C 4.171875 -5.765625 4.265625 -6.109375 4.359375 -6.296875 L 4.296875 -6.40625 L 4.203125 -6.375 C 3.859375 -6.296875 3.6875 -6.28125 2.984375 -6.28125 L 2.765625 -6.28125 L 3.0625 -7.890625 C 3.296875 -9.125 3.6875 -9.65625 4.359375 -9.65625 C 4.78125 -9.65625 5.171875 -9.453125 5.390625 -9.109375 L 5.53125 -9.15625 C 5.609375 -9.390625 5.75 -9.84375 5.859375 -10.125 L 5.9375 -10.34375 C 5.703125 -10.4375 5.265625 -10.53125 4.9375 -10.53125 C 4.765625 -10.53125 4.546875 -10.484375 4.421875 -10.421875 C 4.078125 -10.265625 2.90625 -9.390625 2.578125 -9.046875 C 2.25 -8.734375 2.078125 -8.296875 1.921875 -7.484375 L 1.703125 -6.34375 C 1.125 -6.0625 0.828125 -5.9375 0.46875 -5.8125 L 0.40625 -5.5 L 1.5625 -5.5 L 1.4375 -4.703125 C 1 -1.890625 0.46875 0.78125 0.15625 1.765625 C -0.09375 2.609375 -0.53125 3.0625 -1.046875 3.0625 C -1.375 3.0625 -1.53125 2.953125 -1.796875 2.640625 L -2 2.703125 C -2.0625 3.03125 -2.25 3.71875 -2.328125 3.84375 C -2.203125 3.921875 -1.984375 3.96875 -1.828125 3.96875 C -1.234375 3.96875 -0.453125 3.515625 0.09375 2.84375 C 0.984375 1.8125 1.296875 0.796875 2.34375 -4.234375 C 2.390625 -4.40625 2.5 -4.953125 2.609375 -5.5 Z M 4.109375 -5.5 "/>
</g>
<g id="glyph-2-0">
<path d="M 6.65625 -3.734375 C 6.65625 -5.34375 5.3125 -6.640625 3.75 -6.640625 C 2.125 -6.640625 0.828125 -5.3125 0.828125 -3.734375 C 0.828125 -2.15625 2.125 -0.84375 3.75 -0.84375 C 5.3125 -0.84375 6.65625 -2.140625 6.65625 -3.734375 Z M 3.75 -1.4375 C 2.4375 -1.4375 1.421875 -2.484375 1.421875 -3.734375 C 1.421875 -5 2.453125 -6.046875 3.75 -6.046875 C 4.984375 -6.046875 6.046875 -5.03125 6.046875 -3.734375 C 6.046875 -2.453125 4.984375 -1.4375 3.75 -1.4375 Z M 3.75 -1.4375 "/>
</g>
<g id="glyph-3-0">
<path d="M 5.296875 -1.078125 C 4.890625 -0.734375 4.625 -0.640625 4.453125 -0.640625 C 4.296875 -0.640625 4.15625 -0.671875 4.046875 -0.890625 C 3.953125 -1.09375 3.828125 -1.546875 3.765625 -1.875 C 3.734375 -2.0625 3.71875 -2.234375 3.6875 -2.390625 C 4.015625 -2.828125 4.34375 -3.3125 4.5 -3.546875 C 4.65625 -3.78125 5.0625 -4.4375 5.125 -4.65625 C 5.0625 -4.765625 5.015625 -4.875 4.953125 -5.03125 C 4.921875 -5.0625 4.828125 -5.09375 4.78125 -5.109375 C 4.53125 -4.203125 4.390625 -3.90625 3.984375 -3.25 C 3.9375 -3.1875 3.765625 -2.921875 3.640625 -2.734375 C 3.4375 -4.046875 3.390625 -4.34375 3.328125 -4.734375 C 3.234375 -5.21875 2.921875 -5.265625 2.703125 -5.265625 C 2.453125 -5.25 2.09375 -5.0625 1.734375 -4.734375 C 1.46875 -4.484375 1.265625 -4.203125 1.078125 -3.859375 C 0.59375 -2.890625 0.234375 -1.59375 0.234375 -0.71875 C 0.234375 -0.359375 0.40625 0.125 0.65625 0.125 C 1.078125 0.125 1.4375 -0.09375 1.765625 -0.34375 C 2.234375 -0.75 2.71875 -1.234375 3.0625 -1.609375 C 3.171875 -0.484375 3.5 0.125 3.921875 0.125 C 4.15625 0.125 4.5 -0.0625 4.859375 -0.375 L 5.390625 -0.859375 Z M 3.015625 -1.953125 C 2.703125 -1.578125 2.375 -1.25 2.109375 -1.03125 C 1.765625 -0.75 1.46875 -0.640625 1.265625 -0.640625 C 1.125 -0.640625 1.078125 -0.796875 1.078125 -1.078125 C 1.078125 -1.78125 1.25 -2.953125 1.609375 -3.859375 C 1.75 -4.234375 2.015625 -4.546875 2.265625 -4.546875 C 2.578125 -4.546875 2.703125 -4.34375 2.765625 -3.859375 Z M 3.015625 -1.953125 "/>
</g>
<g id="glyph-4-0">
<path d="M 0.296875 -3.34375 L 0.359375 -3.171875 L 0.625 -3.359375 C 0.953125 -3.546875 0.96875 -3.578125 1.03125 -3.578125 C 1.125 -3.578125 1.1875 -3.484375 1.1875 -3.375 C 1.1875 -3.3125 1.15625 -3.109375 1.125 -3 L 0.546875 -0.921875 C 0.484375 -0.65625 0.4375 -0.421875 0.4375 -0.265625 C 0.4375 -0.046875 0.53125 0.078125 0.703125 0.078125 C 0.921875 0.078125 1.234375 -0.109375 2.078125 -0.734375 L 2 -0.890625 L 1.765625 -0.734375 C 1.515625 -0.578125 1.3125 -0.484375 1.234375 -0.484375 C 1.1875 -0.484375 1.125 -0.5625 1.125 -0.65625 C 1.125 -0.734375 1.140625 -0.8125 1.1875 -1 L 1.859375 -3.625 C 1.890625 -3.765625 1.90625 -3.859375 1.90625 -3.9375 C 1.90625 -4.078125 1.828125 -4.15625 1.6875 -4.15625 C 1.5 -4.15625 1.1875 -3.96875 0.53125 -3.515625 Z M 1.96875 -6.140625 C 1.71875 -6.140625 1.46875 -5.859375 1.46875 -5.5625 C 1.46875 -5.34375 1.59375 -5.203125 1.796875 -5.203125 C 2.0625 -5.203125 2.28125 -5.453125 2.28125 -5.78125 C 2.28125 -6 2.140625 -6.140625 1.96875 -6.140625 Z M 1.96875 -6.140625 "/>
</g>
<g id="glyph-4-1">
<path d="M 2.03125 -6.234375 L 1.9375 -6.328125 C 1.484375 -6.09375 1.171875 -6.015625 0.546875 -5.953125 L 0.515625 -5.78125 L 0.9375 -5.78125 C 1.140625 -5.78125 1.21875 -5.71875 1.21875 -5.578125 C 1.21875 -5.5 1.21875 -5.421875 1.203125 -5.359375 L 0.84375 -3.34375 C 0.609375 -2.046875 0.265625 -0.5625 0.09375 -0.015625 L 0.140625 0.078125 L 0.734375 -0.0625 C 0.875 -1.046875 1.03125 -1.578125 1.28125 -2.03125 C 1.65625 -2.734375 2.546875 -3.578125 2.921875 -3.578125 C 3.03125 -3.578125 3.109375 -3.5 3.109375 -3.375 C 3.109375 -3.21875 3.046875 -2.890625 2.96875 -2.609375 L 2.53125 -0.921875 C 2.453125 -0.609375 2.421875 -0.421875 2.421875 -0.265625 C 2.421875 -0.046875 2.515625 0.078125 2.6875 0.078125 C 2.90625 0.078125 3.21875 -0.109375 4.0625 -0.734375 L 3.96875 -0.890625 L 3.75 -0.734375 C 3.5 -0.578125 3.3125 -0.484375 3.21875 -0.484375 C 3.171875 -0.484375 3.109375 -0.5625 3.109375 -0.65625 C 3.109375 -0.734375 3.125 -0.8125 3.171875 -1 L 3.71875 -3.203125 C 3.78125 -3.4375 3.828125 -3.703125 3.828125 -3.84375 C 3.828125 -4.03125 3.71875 -4.15625 3.578125 -4.15625 C 3.28125 -4.15625 2.75 -3.875 2.203125 -3.421875 C 1.90625 -3.171875 1.765625 -3.015625 1.359375 -2.5 L 1.1875 -2.28125 Z M 2.03125 -6.234375 "/>
</g>
<g id="glyph-4-2">
<path d="M 3.5 -3.28125 C 3.640625 -3.265625 3.703125 -3.265625 3.78125 -3.265625 C 3.9375 -3.265625 4.015625 -3.265625 4.21875 -3.296875 L 4.296875 -3.6875 L 4.265625 -3.734375 C 4.03125 -3.671875 3.859375 -3.65625 3.390625 -3.65625 C 3.25 -3.875 3.171875 -3.953125 2.953125 -4.046875 C 2.765625 -4.109375 2.546875 -4.15625 2.375 -4.15625 C 2.015625 -4.15625 1.59375 -4 1.203125 -3.703125 C 0.71875 -3.34375 0.46875 -2.84375 0.46875 -2.234375 C 0.46875 -1.5625 0.859375 -1.171875 1.53125 -1.171875 C 1.59375 -1.171875 1.6875 -1.171875 1.78125 -1.1875 L 1.4375 -0.859375 C 1.296875 -0.71875 1.203125 -0.5625 1.203125 -0.453125 C 1.203125 -0.359375 1.265625 -0.265625 1.375 -0.15625 C 0.71875 0.046875 0.453125 0.1875 0.140625 0.453125 C -0.15625 0.6875 -0.3125 1.03125 -0.3125 1.375 C -0.3125 1.984375 0.28125 2.375 1.21875 2.375 C 2.34375 2.375 3.3125 1.765625 3.3125 1.046875 C 3.3125 0.734375 3.125 0.421875 2.765625 0.125 L 2.25 -0.296875 C 1.953125 -0.53125 1.84375 -0.703125 1.84375 -0.859375 C 1.84375 -0.9375 1.890625 -1.03125 2.015625 -1.1875 C 2.046875 -1.21875 2.046875 -1.234375 2.0625 -1.265625 C 2.921875 -1.46875 3.53125 -2.1875 3.53125 -2.953125 C 3.53125 -3.03125 3.515625 -3.109375 3.5 -3.234375 Z M 2.1875 0.5 C 2.578125 0.8125 2.75 1.046875 2.75 1.328125 C 2.75 1.78125 2.140625 2.140625 1.4375 2.140625 C 0.71875 2.140625 0.234375 1.78125 0.234375 1.25 C 0.234375 0.921875 0.390625 0.625 0.671875 0.390625 C 0.890625 0.203125 1.078125 0.125 1.515625 -0.015625 Z M 2.15625 -3.859375 C 2.65625 -3.859375 2.90625 -3.546875 2.90625 -2.9375 C 2.90625 -2.046875 2.5 -1.453125 1.890625 -1.453125 C 1.359375 -1.453125 1.09375 -1.796875 1.09375 -2.484375 C 1.09375 -3.296875 1.53125 -3.859375 2.15625 -3.859375 Z M 2.15625 -3.859375 "/>
</g>
<g id="glyph-4-3">
<path d="M 2.46875 -3.296875 C 2.5 -3.46875 2.5625 -3.671875 2.609375 -3.78125 L 2.578125 -3.84375 L 2.515625 -3.828125 C 2.3125 -3.78125 2.21875 -3.765625 1.796875 -3.765625 L 1.65625 -3.765625 L 1.84375 -4.734375 C 1.96875 -5.484375 2.21875 -5.796875 2.609375 -5.796875 C 2.875 -5.796875 3.109375 -5.671875 3.234375 -5.46875 L 3.328125 -5.5 C 3.359375 -5.640625 3.453125 -5.90625 3.515625 -6.078125 L 3.5625 -6.203125 C 3.421875 -6.265625 3.15625 -6.328125 2.953125 -6.328125 C 2.859375 -6.328125 2.71875 -6.296875 2.65625 -6.265625 C 2.453125 -6.171875 1.75 -5.640625 1.546875 -5.4375 C 1.359375 -5.25 1.25 -4.984375 1.15625 -4.5 L 1.03125 -3.8125 C 0.671875 -3.640625 0.5 -3.578125 0.28125 -3.5 L 0.234375 -3.296875 L 0.9375 -3.296875 L 0.859375 -2.828125 C 0.609375 -1.140625 0.28125 0.46875 0.09375 1.0625 C -0.0625 1.5625 -0.3125 1.84375 -0.625 1.84375 C -0.828125 1.84375 -0.921875 1.78125 -1.078125 1.59375 L -1.203125 1.625 C -1.234375 1.8125 -1.359375 2.234375 -1.390625 2.3125 C -1.3125 2.359375 -1.1875 2.375 -1.09375 2.375 C -0.734375 2.375 -0.28125 2.109375 0.0625 1.703125 C 0.59375 1.09375 0.78125 0.484375 1.40625 -2.546875 C 1.4375 -2.640625 1.5 -2.96875 1.5625 -3.296875 Z M 2.46875 -3.296875 "/>
</g>
<g id="glyph-5-0">
<path d="M 1.765625 -1.0625 C 1.53125 -0.984375 1.375 -0.9375 0.921875 -0.796875 C 0.859375 -0.140625 0.640625 0.40625 0.140625 1.234375 L 0.265625 1.34375 L 0.609375 1.171875 C 1.3125 0.265625 1.640625 -0.28125 1.875 -0.9375 Z M 1.765625 -1.0625 "/>
</g>
<g id="glyph-6-0">
<path d="M 3.984375 -2.25 C 3.984375 -3.203125 3.1875 -3.984375 2.25 -3.984375 C 1.28125 -3.984375 0.5 -3.1875 0.5 -2.25 C 0.5 -1.296875 1.28125 -0.5 2.25 -0.5 C 3.1875 -0.5 3.984375 -1.28125 3.984375 -2.25 Z M 2.25 -0.859375 C 1.46875 -0.859375 0.859375 -1.484375 0.859375 -2.25 C 0.859375 -3 1.46875 -3.625 2.25 -3.625 C 2.984375 -3.625 3.625 -3.015625 3.625 -2.25 C 3.625 -1.46875 2.984375 -0.859375 2.25 -0.859375 Z M 2.25 -0.859375 "/>
</g>
<g id="glyph-7-0">
<path d="M 5.0625 -2.84375 C 5.0625 -4.0625 4.046875 -5.046875 2.84375 -5.046875 C 1.625 -5.046875 0.625 -4.03125 0.625 -2.84375 C 0.625 -1.640625 1.625 -0.640625 2.84375 -0.640625 C 4.046875 -0.640625 5.0625 -1.625 5.0625 -2.84375 Z M 2.84375 -1.09375 C 1.859375 -1.09375 1.078125 -1.890625 1.078125 -2.84375 C 1.078125 -3.796875 1.875 -4.59375 2.84375 -4.59375 C 3.796875 -4.59375 4.609375 -3.828125 4.609375 -2.84375 C 4.609375 -1.859375 3.796875 -1.09375 2.84375 -1.09375 Z M 2.84375 -1.09375 "/>
</g>
<g id="glyph-8-0">
<path d="M 3.125 -4.1875 C 3.171875 -4.390625 3.25 -4.640625 3.3125 -4.796875 L 3.265625 -4.875 L 3.1875 -4.84375 C 2.921875 -4.78125 2.8125 -4.765625 2.265625 -4.765625 L 2.09375 -4.765625 L 2.328125 -6 C 2.5 -6.9375 2.8125 -7.34375 3.3125 -7.34375 C 3.640625 -7.34375 3.9375 -7.1875 4.09375 -6.921875 L 4.203125 -6.96875 C 4.265625 -7.140625 4.375 -7.484375 4.453125 -7.703125 L 4.515625 -7.859375 C 4.34375 -7.9375 4 -8 3.75 -8 C 3.625 -8 3.453125 -7.96875 3.359375 -7.921875 C 3.109375 -7.8125 2.203125 -7.140625 1.953125 -6.875 C 1.71875 -6.640625 1.578125 -6.3125 1.46875 -5.6875 L 1.296875 -4.828125 C 0.859375 -4.609375 0.640625 -4.515625 0.359375 -4.421875 L 0.3125 -4.1875 L 1.1875 -4.1875 L 1.09375 -3.578125 C 0.765625 -1.4375 0.359375 0.59375 0.125 1.34375 C -0.078125 1.984375 -0.40625 2.328125 -0.796875 2.328125 C -1.046875 2.328125 -1.171875 2.25 -1.359375 2.015625 L -1.515625 2.046875 C -1.5625 2.296875 -1.71875 2.828125 -1.765625 2.921875 C -1.671875 2.984375 -1.5 3.015625 -1.390625 3.015625 C -0.9375 3.015625 -0.34375 2.671875 0.078125 2.15625 C 0.75 1.375 0.984375 0.609375 1.78125 -3.21875 C 1.8125 -3.359375 1.90625 -3.765625 1.984375 -4.1875 Z M 3.125 -4.1875 "/>
</g>
<g id="glyph-8-1">
<path d="M 0.375 -4.234375 L 0.453125 -4.015625 L 0.796875 -4.25 C 1.203125 -4.5 1.234375 -4.515625 1.3125 -4.515625 C 1.421875 -4.515625 1.5 -4.40625 1.5 -4.265625 C 1.5 -4.1875 1.46875 -3.9375 1.421875 -3.796875 L 0.703125 -1.171875 C 0.609375 -0.828125 0.5625 -0.53125 0.5625 -0.328125 C 0.5625 -0.0625 0.671875 0.09375 0.890625 0.09375 C 1.171875 0.09375 1.5625 -0.125 2.625 -0.921875 L 2.515625 -1.125 L 2.234375 -0.9375 C 1.921875 -0.734375 1.671875 -0.609375 1.578125 -0.609375 C 1.5 -0.609375 1.4375 -0.71875 1.4375 -0.828125 C 1.4375 -0.9375 1.453125 -1.03125 1.5 -1.265625 L 2.34375 -4.59375 C 2.390625 -4.765625 2.40625 -4.890625 2.40625 -4.984375 C 2.40625 -5.171875 2.3125 -5.265625 2.140625 -5.265625 C 1.90625 -5.265625 1.5 -5.03125 0.671875 -4.453125 Z M 2.484375 -7.78125 C 2.171875 -7.78125 1.859375 -7.421875 1.859375 -7.046875 C 1.859375 -6.765625 2.015625 -6.59375 2.28125 -6.59375 C 2.625 -6.59375 2.890625 -6.90625 2.890625 -7.328125 C 2.890625 -7.59375 2.71875 -7.78125 2.484375 -7.78125 Z M 2.484375 -7.78125 "/>
</g>
</g>
<clipPath id="clip-0">
<path clip-rule="nonzero" d="M 163 0 L 332 0 L 332 96 L 163 96 Z M 163 0 "/>
</clipPath>
<clipPath id="clip-1">
<path clip-rule="nonzero" d="M 179 0 L 316 0 L 316 80 L 179 80 Z M 179 0 "/>
</clipPath>
<clipPath id="clip-2">
<path clip-rule="nonzero" d="M 27 0 L 196 0 L 196 97 L 27 97 Z M 27 0 "/>
</clipPath>
<clipPath id="clip-3">
<path clip-rule="nonzero" d="M 43 0 L 180 0 L 180 81 L 43 81 Z M 43 0 "/>
</clipPath>
<clipPath id="clip-4">
<rect x="0" y="0" width="362" height="141"/>
</clipPath>
<g id="source-5" clip-path="url(#clip-4)">
<g fill="rgb(0%, 0%, 0%)" fill-opacity="1">
<use xlink:href="#glyph-0-0" x="134.678526" y="11.589033"/>
</g>
<g fill="rgb(0%, 0%, 0%)" fill-opacity="1">
<use xlink:href="#glyph-1-0" x="140.749445" y="11.589033"/>
</g>
<g fill="rgb(0%, 0%, 0%)" fill-opacity="1">
<use xlink:href="#glyph-2-0" x="147.997573" y="11.589033"/>
</g>
<g fill="rgb(0%, 0%, 0%)" fill-opacity="1">
<use xlink:href="#glyph-1-1" x="158.709066" y="11.589033"/>
</g>
<g fill="rgb(0%, 0%, 0%)" fill-opacity="1">
<use xlink:href="#glyph-0-1" x="166.257666" y="11.589033"/>
</g>
<g fill="rgb(0%, 0%, 0%)" fill-opacity="1">
<use xlink:href="#glyph-2-0" x="175.230261" y="11.589033"/>
</g>
<g fill="rgb(0%, 0%, 0%)" fill-opacity="1">
<use xlink:href="#glyph-0-0" x="185.86743" y="11.589033"/>
</g>
<g fill="rgb(0%, 0%, 0%)" fill-opacity="1">
<use xlink:href="#glyph-1-2" x="192.355286" y="11.589033"/>
</g>
<g fill="rgb(0%, 0%, 0%)" fill-opacity="1">
<use xlink:href="#glyph-2-0" x="202.705404" y="11.589033"/>
</g>
<g fill="rgb(0%, 0%, 0%)" fill-opacity="1">
<use xlink:href="#glyph-1-3" x="215.214245" y="11.589033"/>
</g>
<g fill="rgb(0%, 0%, 0%)" fill-opacity="1">
<use xlink:href="#glyph-0-1" x="221.518527" y="11.589033"/>
</g>
<g fill="rgb(0%, 0%, 0%)" fill-opacity="1">
<use xlink:href="#glyph-0-0" x="-1.460379" y="61.276135"/>
<use xlink:href="#glyph-0-0" x="4.710661" y="61.276135"/>
</g>
<g fill="rgb(0%, 0%, 0%)" fill-opacity="1">
<use xlink:href="#glyph-1-0" x="10.781472" y="61.276135"/>
</g>
<g fill="rgb(0%, 0%, 0%)" fill-opacity="1">
<use xlink:href="#glyph-2-0" x="18.029744" y="61.276135"/>
</g>
<g fill="rgb(0%, 0%, 0%)" fill-opacity="1">
<use xlink:href="#glyph-1-1" x="28.741237" y="61.276135"/>
</g>
<g fill="rgb(0%, 0%, 0%)" fill-opacity="1">
<use xlink:href="#glyph-0-1" x="36.289837" y="61.276135"/>
</g>
<g fill="rgb(0%, 0%, 0%)" fill-opacity="1">
<use xlink:href="#glyph-2-0" x="45.262432" y="61.276135"/>
</g>
<g fill="rgb(0%, 0%, 0%)" fill-opacity="1">
<use xlink:href="#glyph-1-2" x="56.218401" y="61.276135"/>
</g>
<g fill="rgb(0%, 0%, 0%)" fill-opacity="1">
<use xlink:href="#glyph-0-1" x="63.767001" y="61.276135"/>
</g>
<g fill="rgb(0%, 0%, 0%)" fill-opacity="1">
<use xlink:href="#glyph-2-0" x="72.724731" y="61.276135"/>
</g>
<g fill="rgb(0%, 0%, 0%)" fill-opacity="1">
<use xlink:href="#glyph-1-3" x="85.24786" y="61.276135"/>
</g>
<g fill="rgb(0%, 0%, 0%)" fill-opacity="1">
<use xlink:href="#glyph-1-0" x="270.716407" y="61.276135"/>
</g>
<g fill="rgb(0%, 0%, 0%)" fill-opacity="1">
<use xlink:href="#glyph-2-0" x="277.964536" y="61.276135"/>
</g>
<g fill="rgb(0%, 0%, 0%)" fill-opacity="1">
<use xlink:href="#glyph-0-0" x="288.616714" y="61.276135"/>
</g>
<g fill="rgb(0%, 0%, 0%)" fill-opacity="1">
<use xlink:href="#glyph-1-1" x="294.860094" y="61.276135"/>
</g>
<g fill="rgb(0%, 0%, 0%)" fill-opacity="1">
<use xlink:href="#glyph-2-0" x="305.195203" y="61.276135"/>
</g>
<g fill="rgb(0%, 0%, 0%)" fill-opacity="1">
<use xlink:href="#glyph-0-0" x="315.847381" y="61.276135"/>
</g>
<g fill="rgb(0%, 0%, 0%)" fill-opacity="1">
<use xlink:href="#glyph-1-2" x="322.335237" y="61.276135"/>
</g>
<g fill="rgb(0%, 0%, 0%)" fill-opacity="1">
<use xlink:href="#glyph-2-0" x="332.670346" y="61.276135"/>
</g>
<g fill="rgb(0%, 0%, 0%)" fill-opacity="1">
<use xlink:href="#glyph-1-3" x="345.193619" y="61.276135"/>
</g>
<g fill="rgb(0%, 0%, 0%)" fill-opacity="1">
<use xlink:href="#glyph-0-1" x="351.482892" y="61.276135"/>
<use xlink:href="#glyph-0-1" x="357.653933" y="61.276135"/>
</g>
<g fill="rgb(0%, 0%, 0%)" fill-opacity="1">
<use xlink:href="#glyph-0-0" x="-1.460379" y="136.821989"/>
</g>
<g fill="rgb(0%, 0%, 0%)" fill-opacity="1">
<use xlink:href="#glyph-1-0" x="4.61054" y="136.821989"/>
</g>
<g fill="rgb(0%, 0%, 0%)" fill-opacity="1">
<use xlink:href="#glyph-2-0" x="11.858668" y="136.821989"/>
</g>
<g fill="rgb(0%, 0%, 0%)" fill-opacity="1">
<use xlink:href="#glyph-0-0" x="22.510702" y="136.821989"/>
</g>
<g fill="rgb(0%, 0%, 0%)" fill-opacity="1">
<use xlink:href="#glyph-1-1" x="28.739794" y="136.821989"/>
</g>
<g fill="rgb(0%, 0%, 0%)" fill-opacity="1">
<use xlink:href="#glyph-2-0" x="39.089913" y="136.821989"/>
</g>
<g fill="rgb(0%, 0%, 0%)" fill-opacity="1">
<use xlink:href="#glyph-1-2" x="50.045882" y="136.821989"/>
</g>
<g fill="rgb(0%, 0%, 0%)" fill-opacity="1">
<use xlink:href="#glyph-0-1" x="57.594482" y="136.821989"/>
<use xlink:href="#glyph-0-1" x="63.765522" y="136.821989"/>
</g>
<g fill="rgb(0%, 0%, 0%)" fill-opacity="1">
<use xlink:href="#glyph-2-0" x="72.738153" y="136.821989"/>
</g>
<g fill="rgb(0%, 0%, 0%)" fill-opacity="1">
<use xlink:href="#glyph-1-3" x="85.246994" y="136.821989"/>
</g>
<g fill="rgb(0%, 0%, 0%)" fill-opacity="1">
<use xlink:href="#glyph-1-0" x="270.716407" y="136.821989"/>
</g>
<g fill="rgb(0%, 0%, 0%)" fill-opacity="1">
<use xlink:href="#glyph-2-0" x="277.964536" y="136.821989"/>
</g>
<g fill="rgb(0%, 0%, 0%)" fill-opacity="1">
<use xlink:href="#glyph-0-0" x="288.616714" y="136.821989"/>
<use xlink:href="#glyph-0-0" x="294.787754" y="136.821989"/>
</g>
<g fill="rgb(0%, 0%, 0%)" fill-opacity="1">
<use xlink:href="#glyph-1-1" x="301.016738" y="136.821989"/>
</g>
<g fill="rgb(0%, 0%, 0%)" fill-opacity="1">
<use xlink:href="#glyph-2-0" x="311.366856" y="136.821989"/>
</g>
<g fill="rgb(0%, 0%, 0%)" fill-opacity="1">
<use xlink:href="#glyph-1-2" x="322.322826" y="136.821989"/>
</g>
<g fill="rgb(0%, 0%, 0%)" fill-opacity="1">
<use xlink:href="#glyph-0-1" x="329.871426" y="136.821989"/>
</g>
<g fill="rgb(0%, 0%, 0%)" fill-opacity="1">
<use xlink:href="#glyph-2-0" x="338.84402" y="136.821989"/>
</g>
<g fill="rgb(0%, 0%, 0%)" fill-opacity="1">
<use xlink:href="#glyph-1-3" x="351.352861" y="136.821989"/>
</g>
<g fill="rgb(0%, 0%, 0%)" fill-opacity="1">
<use xlink:href="#glyph-0-1" x="357.657144" y="136.821989"/>
</g>
<g clip-path="url(#clip-0)">
<path fill="none" stroke-width="2.5011" stroke-linecap="butt" stroke-linejoin="miter" stroke="rgb(0%, 0%, 0%)" stroke-opacity="1" stroke-miterlimit="10" d="M 23.090267 34.962917 L 68.884576 18.238621 " transform="matrix(1.443189, 0, 0, -1.442045, 181.0006, 70.57435)"/>
</g>
<g clip-path="url(#clip-1)">
<path fill="none" stroke-width="1.70409" stroke-linecap="butt" stroke-linejoin="miter" stroke="rgb(100%, 100%, 100%)" stroke-opacity="1" stroke-miterlimit="10" d="M 23.090267 34.962917 L 68.884576 18.238621 " transform="matrix(1.443189, 0, 0, -1.442045, 181.0006, 70.57435)"/>
</g>
<path fill="none" stroke-width="0.3985" stroke-linecap="round" stroke-linejoin="round" stroke="rgb(0%, 0%, 0%)" stroke-opacity="1" stroke-miterlimit="10" d="M -1.408684 2.784785 C -0.725217 1.315572 1.113609 0.0519661 2.166693 0.00105053 C 1.114006 -0.0517083 -0.724466 -1.31425 -1.408532 -2.786812 " transform="matrix(1.355588, 0.494622, 0.495014, -1.354513, 280.4139, 44.27348)"/>
<g fill="rgb(0%, 0%, 0%)" fill-opacity="1">
<use xlink:href="#glyph-3-0" x="252.766023" y="24.241536"/>
</g>
<g fill="rgb(0%, 0%, 0%)" fill-opacity="1">
<use xlink:href="#glyph-4-0" x="258.72062" y="26.760788"/>
</g>
<g fill="rgb(0%, 0%, 0%)" fill-opacity="1">
<use xlink:href="#glyph-5-0" x="261.282714" y="26.760788"/>
</g>
<g fill="rgb(0%, 0%, 0%)" fill-opacity="1">
<use xlink:href="#glyph-4-1" x="263.594703" y="26.760788"/>
</g>
<g fill="rgb(0%, 0%, 0%)" fill-opacity="1">
<use xlink:href="#glyph-5-0" x="268.011727" y="26.760788"/>
</g>
<g fill="rgb(0%, 0%, 0%)" fill-opacity="1">
<use xlink:href="#glyph-4-2" x="270.470344" y="26.760788"/>
</g>
<g fill="rgb(0%, 0%, 0%)" fill-opacity="1">
<use xlink:href="#glyph-6-0" x="274.999504" y="26.760788"/>
</g>
<g fill="rgb(0%, 0%, 0%)" fill-opacity="1">
<use xlink:href="#glyph-4-3" x="280.831142" y="26.760788"/>
</g>
<g clip-path="url(#clip-2)">
<path fill="none" stroke-width="2.5011" stroke-linecap="butt" stroke-linejoin="miter" stroke="rgb(0%, 0%, 0%)" stroke-opacity="1" stroke-miterlimit="10" d="M -71.091351 17.428682 L -25.299749 34.150269 " transform="matrix(1.443189, 0, 0, -1.442045, 181.0006, 70.57435)"/>
</g>
<g clip-path="url(#clip-3)">
<path fill="none" stroke-width="1.70409" stroke-linecap="butt" stroke-linejoin="miter" stroke="rgb(100%, 100%, 100%)" stroke-opacity="1" stroke-miterlimit="10" d="M -71.091351 17.428682 L -25.299749 34.150269 " transform="matrix(1.443189, 0, 0, -1.442045, 181.0006, 70.57435)"/>
</g>
<path fill="none" stroke-width="0.3985" stroke-linecap="round" stroke-linejoin="round" stroke="rgb(0%, 0%, 0%)" stroke-opacity="1" stroke-miterlimit="10" d="M -1.409477 2.786772 C -0.725459 1.314206 1.112959 0.0516252 2.165633 -0.00116275 C 1.115101 -0.0529766 -0.725355 -1.313045 -1.407243 -2.785696 " transform="matrix(1.355588, -0.494665, -0.495057, -1.354513, 144.4895, 21.3275)"/>
<g fill="rgb(0%, 0%, 0%)" fill-opacity="1">
<use xlink:href="#glyph-3-0" x="76.937977" y="24.241536"/>
</g>
<g fill="rgb(0%, 0%, 0%)" fill-opacity="1">
<use xlink:href="#glyph-4-0" x="82.891132" y="26.760788"/>
</g>
<g fill="rgb(0%, 0%, 0%)" fill-opacity="1">
<use xlink:href="#glyph-6-0" x="85.568103" y="26.760788"/>
</g>
<g fill="rgb(0%, 0%, 0%)" fill-opacity="1">
<use xlink:href="#glyph-4-1" x="90.32139" y="26.760788"/>
</g>
<g fill="rgb(0%, 0%, 0%)" fill-opacity="1">
<use xlink:href="#glyph-5-0" x="94.73827" y="26.760788"/>
</g>
<g fill="rgb(0%, 0%, 0%)" fill-opacity="1">
<use xlink:href="#glyph-4-2" x="97.196887" y="26.760788"/>
</g>
<g fill="rgb(0%, 0%, 0%)" fill-opacity="1">
<use xlink:href="#glyph-5-0" x="101.613911" y="26.760788"/>
</g>
<g fill="rgb(0%, 0%, 0%)" fill-opacity="1">
<use xlink:href="#glyph-4-3" x="105.004251" y="26.760788"/>
</g>
<path fill="none" stroke-width="2.5011" stroke-linecap="butt" stroke-linejoin="miter" stroke="rgb(0%, 0%, 0%)" stroke-opacity="1" stroke-miterlimit="10" d="M -94.333608 0.506642 L -94.333608 -32.59793 " transform="matrix(1.443189, 0, 0, -1.442045, 181.0006, 70.57435)"/>
<path fill="none" stroke-width="1.70409" stroke-linecap="butt" stroke-linejoin="miter" stroke="rgb(100%, 100%, 100%)" stroke-opacity="1" stroke-miterlimit="10" d="M -94.333608 0.506642 L -94.333608 -32.59793 " transform="matrix(1.443189, 0, 0, -1.442045, 181.0006, 70.57435)"/>
<path fill="none" stroke-width="0.3985" stroke-linecap="round" stroke-linejoin="round" stroke="rgb(0%, 0%, 0%)" stroke-opacity="1" stroke-miterlimit="10" d="M -1.407646 2.784809 C -0.725022 1.315082 1.114272 0.0537698 2.165297 -0.000363778 C 1.114272 -0.0517907 -0.725022 -1.313103 -1.407646 -2.785537 " transform="matrix(0, 1.442045, 1.443189, 0, 44.8599, 117.58067)"/>
<g fill="rgb(0%, 0%, 0%)" fill-opacity="1">
<use xlink:href="#glyph-3-0" x="6.18708" y="96.940792"/>
</g>
<g fill="rgb(0%, 0%, 0%)" fill-opacity="1">
<use xlink:href="#glyph-4-0" x="12.140234" y="99.460045"/>
</g>
<g fill="rgb(0%, 0%, 0%)" fill-opacity="1">
<use xlink:href="#glyph-5-0" x="14.710987" y="99.460045"/>
</g>
<g fill="rgb(0%, 0%, 0%)" fill-opacity="1">
<use xlink:href="#glyph-4-1" x="17.014317" y="99.460045"/>
</g>
<g fill="rgb(0%, 0%, 0%)" fill-opacity="1">
<use xlink:href="#glyph-5-0" x="21.44" y="99.460045"/>
</g>
<g fill="rgb(0%, 0%, 0%)" fill-opacity="1">
<use xlink:href="#glyph-4-2" x="23.889958" y="99.460045"/>
</g>
<g fill="rgb(0%, 0%, 0%)" fill-opacity="1">
<use xlink:href="#glyph-7-0" x="29.166978" y="96.940792"/>
</g>
<g fill="rgb(0%, 0%, 0%)" fill-opacity="1">
<use xlink:href="#glyph-8-0" x="36.553797" y="96.940792"/>
</g>
<path fill="none" stroke-width="2.5011" stroke-linecap="butt" stroke-linejoin="miter" stroke="rgb(0%, 0%, 0%)" stroke-opacity="1" stroke-miterlimit="10" d="M -58.922121 -43.449489 L 56.558358 -43.449489 " transform="matrix(1.443189, 0, 0, -1.442045, 181.0006, 70.57435)"/>
<path fill="none" stroke-width="1.70409" stroke-linecap="butt" stroke-linejoin="miter" stroke="rgb(100%, 100%, 100%)" stroke-opacity="1" stroke-miterlimit="10" d="M -58.922121 -43.449489 L 56.558358 -43.449489 " transform="matrix(1.443189, 0, 0, -1.442045, 181.0006, 70.57435)"/>
<path fill="none" stroke-width="0.3985" stroke-linecap="round" stroke-linejoin="round" stroke="rgb(0%, 0%, 0%)" stroke-opacity="1" stroke-miterlimit="10" d="M -1.409626 2.785376 C -0.724836 1.314483 1.115706 0.0521697 2.165898 0.000701955 C 1.115706 -0.0534746 -0.724836 -1.313079 -1.409626 -2.786681 " transform="matrix(1.443189, 0, 0, -1.442045, 262.6242, 133.231481)"/>
<g fill="rgb(0%, 0%, 0%)" fill-opacity="1">
<use xlink:href="#glyph-3-0" x="164.842619" y="124.671317"/>
</g>
<g fill="rgb(0%, 0%, 0%)" fill-opacity="1">
<use xlink:href="#glyph-4-0" x="170.795774" y="127.19057"/>
</g>
<g fill="rgb(0%, 0%, 0%)" fill-opacity="1">
<use xlink:href="#glyph-5-0" x="173.366526" y="127.19057"/>
</g>
<g fill="rgb(0%, 0%, 0%)" fill-opacity="1">
<use xlink:href="#glyph-4-1" x="175.669856" y="127.19057"/>
</g>
<g fill="rgb(0%, 0%, 0%)" fill-opacity="1">
<use xlink:href="#glyph-6-0" x="180.199016" y="127.19057"/>
</g>
<g fill="rgb(0%, 0%, 0%)" fill-opacity="1">
<use xlink:href="#glyph-4-2" x="185.099076" y="127.19057"/>
</g>
<g fill="rgb(0%, 0%, 0%)" fill-opacity="1">
<use xlink:href="#glyph-5-0" x="189.524615" y="127.19057"/>
</g>
<g fill="rgb(0%, 0%, 0%)" fill-opacity="1">
<use xlink:href="#glyph-4-3" x="192.906295" y="127.19057"/>
</g>
<path fill="none" stroke-width="2.5011" stroke-linecap="butt" stroke-linejoin="miter" stroke="rgb(0%, 0%, 0%)" stroke-opacity="1" stroke-miterlimit="10" d="M 94.332776 -34.962735 L 94.332776 -1.858164 " transform="matrix(1.443189, 0, 0, -1.442045, 181.0006, 70.57435)"/>
<path fill="none" stroke-width="1.70409" stroke-linecap="butt" stroke-linejoin="miter" stroke="rgb(100%, 100%, 100%)" stroke-opacity="1" stroke-miterlimit="10" d="M 94.332776 -34.962735 L 94.332776 -1.858164 " transform="matrix(1.443189, 0, 0, -1.442045, 181.0006, 70.57435)"/>
<path fill="none" stroke-width="0.3985" stroke-linecap="round" stroke-linejoin="round" stroke="rgb(0%, 0%, 0%)" stroke-opacity="1" stroke-miterlimit="10" d="M -1.407478 2.78571 C -0.724853 1.313277 1.11444 0.0519639 2.165465 0.000537005 C 1.11444 -0.0535966 -0.724853 -1.314909 -1.407478 -2.784636 " transform="matrix(0, -1.442045, -1.443189, 0, 317.1414, 73.25551)"/>
<g fill="rgb(0%, 0%, 0%)" fill-opacity="1">
<use xlink:href="#glyph-8-1" x="320.858566" y="96.851385"/>
</g>
<g fill="rgb(0%, 0%, 0%)" fill-opacity="1">
<use xlink:href="#glyph-7-0" x="324.249339" y="96.851385"/>
</g>
<g fill="rgb(0%, 0%, 0%)" fill-opacity="1">
<use xlink:href="#glyph-3-0" x="330.215626" y="96.851385"/>
</g>
<g fill="rgb(0%, 0%, 0%)" fill-opacity="1">
<use xlink:href="#glyph-4-1" x="336.270381" y="99.370638"/>
</g>
<g fill="rgb(0%, 0%, 0%)" fill-opacity="1">
<use xlink:href="#glyph-5-0" x="340.687261" y="99.370638"/>
</g>
<g fill="rgb(0%, 0%, 0%)" fill-opacity="1">
<use xlink:href="#glyph-4-2" x="343.145878" y="99.370638"/>
</g>
<g fill="rgb(0%, 0%, 0%)" fill-opacity="1">
<use xlink:href="#glyph-5-0" x="347.562902" y="99.370638"/>
</g>
<g fill="rgb(0%, 0%, 0%)" fill-opacity="1">
<use xlink:href="#glyph-4-3" x="350.953242" y="99.370638"/>
</g>
</g>
</defs>
<use xlink:href="#source-5"/>
</svg>
