<?xml version="1.0" encoding="UTF-8"?>
<svg xmlns="http://www.w3.org/2000/svg" xmlns:xlink="http://www.w3.org/1999/xlink" width="176pt" height="139pt" viewBox="0 0 176 139"><!--latexit:AAAJ6njajVZrbBRVFL63M0C7PHZb3u/BLtJKqbvbF2xFWqgFhC6P7WPb7lLvztzd
Dp2dGWbu0m7XNfeHIf6Qf0aUGJQSEzAGHxFjNEF/iBpjCJaGGIlREhOMMTHxryZ6
Z2dad2m7MJPJ3HPmO+eex3fPblxXZJP4fFOwjOMXLFzkinhPY8OUNbXfiwxxWGZS
t5doesSrxU9ikZhVAJ55a8jjDoUP4QyW2h3Q9+UV3YamEQrf82xZvGTr49tqap/Y
Xrej/smm1qfaOp49dOz4wOAJhBMnUzpJ93jVtKLcXrrM7Vnn7QuF60dwxhxgb2eT
Xq+oINO8Ulm1fMXKVavXrKVllKM8XUAX0kW0nFZQ15X1GzZu2ixseayaLqZL6DLq
ppV0HV1PN9JNVIjEkYkVWcU9oqZoRndKk3APkYmCI7qBUSqu4FgKJVU5IYuIsHS7
JUQwSyuOxJGkoaVVaZ9lOGBqaUPE3XiMVAPnuu3zuwMNjT2h8PH9e6OhcB4Y1pGI
O30Cu4EH0qWTzS07dw3YaagohSP2Ept9jsHEzmAkFD6Sz9dTNune/fSeflYAkxiy
mqSeo8xB+958nbvSBLF4w/kvl9r3WXa2cPsZd+f+AwdnZBZMO2GreJpgk1bRtXT5
UCW8HJU0MZ3CKsmHMOj36SSWRQaRRQXnXNG0iVnwIyiJB9nSCtaMZfNlywlbmUYS
EprBHpUIeW2hRRalTDOTijNkCpFh88FvlnKub4NpktgZy8qqzkJVRXujRFoRiCaQ
jI4FSTZYYZQMWyDRkFmsgjiMDCQSRs+iXSzfOhrXijLJEnlkfLZmhygVK0+lLfLO
BsqE6fLRZYc1PVFv6UySUbCZc20VCtHTdMq5XFEVj4paKoVUKRtltMoN+mPZaD73
RLban2MuOzDrgYG7mO6Ijg1ENCMblaVclj0u6zwcDh292EVXXDxCV9I1vaFwJyv7
VLi7x93bF+lnclgex6zfiU4FJU0mh1i7qttqbGZ6PHQVXd3bpalI1BiBojHHw0Q0
yMSh5xhBOmTR4jsyMhNDljIuDnmqCngj2VSakIJz6qvb9tp7TSbdw7J1dInMImj/
OpP49bdtn9MNzOWIwrbtYOdpYiRoHRa1obHTL7Ab0KUWZU8dOEg32+Tkd0XjOCmr
+aLrLLS0gXODlpCQkzFXhfNVTzL6KSjDWpVV2VG2l66KiqglCYP51uxWNRXHhBpf
rYAIe9W3NNUJOwK1QjbXOg/Ub0P9dUJjKVig0KOvFLLBcVgfeBiy0UY2PATWVATz
Bnd7Z0Pj2piVi28mmTw0mk3UJaM57/zJ+wuDnadQjm+nAk5S3sT8UTgVaHGQyRL7
OyVoepRGOXVoLhWrnjZ0hY0OjVgWzY5FnVDac8sMbpoDUcwOcAHl5qQhlpIFNJQM
NDrt2MCSxcJ6kU1cbNRaI60mMC21PoiOK2m7GUX4hnnxdpKWRZEB637r3IH4G4uB
gfljaCpGNpTaPeCAmkuBGh4F1OyAWgpyntWCvKJwSLjYoDk9OuRZPvMD+f9ku3R6
KAjKQSVYB7ygFgRACzgIDoNjIAxGQQ68CF4G58AFcBm8A94FV8H74EPwEfgYfAI+
BV+Cr8A34FvwHbgJboFJMAXugB/APXAf/AH+An/DCrgMCnA7bIStsB2GYA/sg/3w
BJShAcdhDp6BL8Gz8Bx8HZ6Hb8IP4DV4Hd6AN+Fd+BP8Gd7jznKvcK9yr3HnuTe4
C9zb3FXuGnedu8Hd5G5xk9wUd5f7hbvP/c79yf3D/cvz/Fp+A+/ng/wefj9/lD/O
9/EneMQP8xp/ih/jx/nn+RfKPyv/ovyOPZXLoPMnZQwUXeU//gdmIC5Q-->
<defs>
<g>
<g id="glyph-0-0">
<path d="M 2 -1.796875 C 1.515625 -1.796875 1.078125 -1.34375 1.078125 -0.859375 C 1.078125 -0.375 1.515625 0.078125 1.984375 0.078125 C 2.5 0.078125 2.953125 -0.359375 2.953125 -0.859375 C 2.953125 -1.34375 2.5 -1.796875 2 -1.796875 Z M 2 -7.375 C 1.515625 -7.375 1.078125 -6.921875 1.078125 -6.4375 C 1.078125 -5.953125 1.515625 -5.5 1.984375 -5.5 C 2.5 -5.5 2.953125 -5.9375 2.953125 -6.421875 C 2.953125 -6.921875 2.5 -7.375 2 -7.375 Z M 2 -7.375 "/>
</g>
<g id="glyph-0-1">
<path d="M 3.3125 -1.984375 C 2.875 -1.84375 2.578125 -1.75 1.71875 -1.5 C 1.609375 -0.28125 1.203125 0.78125 0.265625 2.328125 L 0.484375 2.515625 L 1.15625 2.203125 C 2.46875 0.5 3.078125 -0.515625 3.546875 -1.765625 Z M 3.3125 -1.984375 "/>
</g>
<g id="glyph-1-0">
<path d="M 11.609375 -5.515625 C 11.875 -5.515625 12.1875 -5.515625 12.1875 -5.84375 C 12.1875 -6.1875 11.875 -6.1875 11.625 -6.1875 L 1.5 -6.1875 C 1.265625 -6.1875 0.953125 -6.1875 0.953125 -5.84375 C 0.953125 -5.515625 1.265625 -5.515625 1.515625 -5.515625 Z M 11.625 -2.25 C 11.875 -2.25 12.1875 -2.25 12.1875 -2.578125 C 12.1875 -2.921875 11.875 -2.921875 11.609375 -2.921875 L 1.515625 -2.921875 C 1.265625 -2.921875 0.953125 -2.921875 0.953125 -2.578125 C 0.953125 -2.25 1.265625 -2.25 1.5 -2.25 Z M 11.625 -2.25 "/>
</g>
<g id="glyph-2-0">
<path d="M 4.78125 -10.40625 C 4.78125 -11.078125 5.21875 -12.15625 7.0625 -12.28125 C 7.15625 -12.296875 7.21875 -12.359375 7.21875 -12.453125 C 7.21875 -12.640625 7.078125 -12.640625 6.890625 -12.640625 C 5.203125 -12.640625 3.671875 -11.78125 3.65625 -10.53125 L 3.65625 -6.6875 C 3.65625 -6.03125 3.65625 -5.5 2.96875 -4.9375 C 2.390625 -4.453125 1.734375 -4.421875 1.375 -4.40625 C 1.28125 -4.390625 1.21875 -4.3125 1.21875 -4.21875 C 1.21875 -4.046875 1.3125 -4.046875 1.484375 -4.03125 C 2.609375 -3.96875 3.421875 -3.359375 3.59375 -2.53125 C 3.65625 -2.34375 3.65625 -2.3125 3.65625 -1.703125 L 3.65625 1.640625 C 3.65625 2.34375 3.65625 2.890625 4.46875 3.53125 C 5.125 4.03125 6.234375 4.21875 6.890625 4.21875 C 7.078125 4.21875 7.21875 4.21875 7.21875 4.03125 C 7.21875 3.859375 7.125 3.859375 6.953125 3.84375 C 5.890625 3.78125 5.0625 3.234375 4.828125 2.375 C 4.78125 2.21875 4.78125 2.1875 4.78125 1.578125 L 4.78125 -1.953125 C 4.78125 -2.734375 4.65625 -3.015625 4.109375 -3.5625 C 3.75 -3.90625 3.265625 -4.078125 2.796875 -4.21875 C 4.171875 -4.609375 4.78125 -5.375 4.78125 -6.359375 Z M 4.78125 -10.40625 "/>
</g>
<g id="glyph-2-1">
<path d="M 3.65625 1.96875 C 3.65625 2.640625 3.21875 3.71875 1.375 3.84375 C 1.28125 3.859375 1.21875 3.921875 1.21875 4.03125 C 1.21875 4.21875 1.40625 4.21875 1.5625 4.21875 C 3.1875 4.21875 4.765625 3.390625 4.78125 2.109375 L 4.78125 -1.734375 C 4.78125 -2.390625 4.78125 -2.9375 5.453125 -3.484375 C 6.046875 -3.984375 6.6875 -4.015625 7.0625 -4.03125 C 7.15625 -4.046875 7.21875 -4.109375 7.21875 -4.21875 C 7.21875 -4.390625 7.125 -4.390625 6.953125 -4.40625 C 5.828125 -4.46875 5.015625 -5.078125 4.828125 -5.90625 C 4.78125 -6.09375 4.78125 -6.125 4.78125 -6.734375 L 4.78125 -10.0625 C 4.78125 -10.765625 4.78125 -11.3125 3.96875 -11.953125 C 3.296875 -12.46875 2.125 -12.640625 1.5625 -12.640625 C 1.40625 -12.640625 1.21875 -12.640625 1.21875 -12.453125 C 1.21875 -12.296875 1.3125 -12.296875 1.484375 -12.28125 C 2.546875 -12.203125 3.375 -11.671875 3.59375 -10.8125 C 3.65625 -10.65625 3.65625 -10.625 3.65625 -10.015625 L 3.65625 -6.46875 C 3.65625 -5.703125 3.78125 -5.40625 4.328125 -4.875 C 4.6875 -4.515625 5.171875 -4.34375 5.640625 -4.21875 C 4.265625 -3.828125 3.65625 -3.046875 3.65625 -2.078125 Z M 3.65625 1.96875 "/>
</g>
<g id="glyph-3-0">
<path d="M 4.640625 -6.203125 C 4.703125 -6.5 4.828125 -6.875 4.921875 -7.109375 L 4.859375 -7.21875 L 4.734375 -7.1875 C 4.34375 -7.09375 4.171875 -7.078125 3.375 -7.078125 L 3.109375 -7.078125 L 3.453125 -8.890625 C 3.71875 -10.28125 4.171875 -10.890625 4.921875 -10.890625 C 5.40625 -10.890625 5.84375 -10.65625 6.09375 -10.265625 L 6.25 -10.328125 C 6.328125 -10.59375 6.5 -11.09375 6.625 -11.40625 L 6.703125 -11.65625 C 6.4375 -11.765625 5.9375 -11.859375 5.5625 -11.859375 C 5.390625 -11.859375 5.125 -11.8125 5 -11.75 C 4.609375 -11.578125 3.28125 -10.59375 2.90625 -10.203125 C 2.546875 -9.84375 2.359375 -9.359375 2.171875 -8.4375 L 1.9375 -7.15625 C 1.265625 -6.828125 0.9375 -6.703125 0.53125 -6.5625 L 0.453125 -6.203125 L 1.765625 -6.203125 L 1.625 -5.296875 C 1.140625 -2.140625 0.53125 0.875 0.171875 1.984375 C -0.109375 2.953125 -0.59375 3.453125 -1.1875 3.453125 C -1.5625 3.453125 -1.734375 3.328125 -2.03125 2.984375 L -2.25 3.046875 C -2.328125 3.421875 -2.546875 4.1875 -2.625 4.34375 C -2.484375 4.421875 -2.234375 4.46875 -2.0625 4.46875 C -1.390625 4.46875 -0.515625 3.96875 0.109375 3.203125 C 1.109375 2.046875 1.46875 0.90625 2.640625 -4.78125 C 2.6875 -4.96875 2.828125 -5.578125 2.953125 -6.203125 Z M 4.640625 -6.203125 "/>
</g>
<g id="glyph-3-1">
<path d="M 6.578125 -6.15625 C 6.84375 -6.125 6.984375 -6.125 7.125 -6.125 C 7.40625 -6.125 7.5625 -6.140625 7.9375 -6.1875 L 8.078125 -6.90625 L 8.03125 -7.015625 C 7.578125 -6.890625 7.25 -6.859375 6.375 -6.859375 C 6.125 -7.28125 5.953125 -7.4375 5.546875 -7.59375 C 5.21875 -7.71875 4.8125 -7.796875 4.46875 -7.796875 C 3.796875 -7.796875 2.984375 -7.5 2.265625 -6.953125 C 1.359375 -6.28125 0.890625 -5.34375 0.890625 -4.1875 C 0.890625 -2.953125 1.625 -2.203125 2.875 -2.203125 C 3 -2.203125 3.1875 -2.203125 3.359375 -2.21875 L 2.6875 -1.609375 C 2.4375 -1.359375 2.25 -1.0625 2.25 -0.84375 C 2.25 -0.6875 2.375 -0.5 2.59375 -0.3125 C 1.359375 0.09375 0.859375 0.34375 0.265625 0.84375 C -0.296875 1.296875 -0.59375 1.921875 -0.59375 2.578125 C -0.59375 3.71875 0.53125 4.46875 2.3125 4.46875 C 4.40625 4.46875 6.234375 3.296875 6.234375 1.953125 C 6.234375 1.375 5.890625 0.796875 5.1875 0.234375 L 4.21875 -0.5625 C 3.671875 -1 3.453125 -1.3125 3.453125 -1.625 C 3.453125 -1.765625 3.5625 -1.921875 3.796875 -2.234375 C 3.84375 -2.296875 3.859375 -2.3125 3.890625 -2.359375 C 5.484375 -2.75 6.640625 -4.09375 6.640625 -5.53125 C 6.640625 -5.6875 6.625 -5.828125 6.59375 -6.0625 Z M 4.109375 0.9375 C 4.859375 1.515625 5.15625 1.953125 5.15625 2.5 C 5.15625 3.328125 4.046875 4.015625 2.6875 4.015625 C 1.359375 4.015625 0.4375 3.328125 0.4375 2.34375 C 0.4375 1.734375 0.734375 1.171875 1.25 0.734375 C 1.671875 0.390625 2.03125 0.234375 2.859375 -0.015625 Z M 4.0625 -7.25 C 5 -7.25 5.46875 -6.671875 5.46875 -5.515625 C 5.46875 -3.859375 4.6875 -2.71875 3.5625 -2.71875 C 2.5625 -2.71875 2.046875 -3.390625 2.046875 -4.65625 C 2.046875 -6.203125 2.875 -7.25 4.0625 -7.25 Z M 4.0625 -7.25 "/>
</g>
</g>
</defs>
<path fill="none" stroke-width="0.3985" stroke-linecap="butt" stroke-linejoin="miter" stroke="rgb(100%, 0%, 0%)" stroke-opacity="1" stroke-miterlimit="10" d="M 10.631087 -28.347682 L 10.631087 -0.000666287 " transform="matrix(1.628792, 0, 0, -1.624675, 4.16464, 92.41298)"/>
<path fill="none" stroke-width="0.3985" stroke-linecap="butt" stroke-linejoin="miter" stroke="rgb(0%, 0%, 100%)" stroke-opacity="1" stroke-miterlimit="10" d="M 17.717915 -28.347682 L 17.717915 -0.000666287 " transform="matrix(1.628792, 0, 0, -1.624675, 4.16464, 92.41298)"/>
<path fill="none" stroke-width="0.3985" stroke-linecap="butt" stroke-linejoin="miter" stroke="rgb(50.196838%, 0%, 50.196838%)" stroke-opacity="1" stroke-miterlimit="10" d="M 14.173301 56.693365 L 14.173301 8.791958 " transform="matrix(1.628792, 0, 0, -1.624675, 4.16464, 92.41298)"/>
<path fill="none" stroke-width="0.3985" stroke-linecap="butt" stroke-linejoin="miter" stroke="rgb(100%, 0%, 0%)" stroke-opacity="1" stroke-miterlimit="10" d="M 81.496968 -28.347682 L 74.062394 -8.524006 " transform="matrix(1.628792, 0, 0, -1.624675, 4.16464, 92.41298)"/>
<path fill="none" stroke-width="0.3985" stroke-linecap="butt" stroke-linejoin="miter" stroke="rgb(0%, 0%, 100%)" stroke-opacity="1" stroke-miterlimit="10" d="M 88.583796 -28.347682 L 96.474038 -7.305012 " transform="matrix(1.628792, 0, 0, -1.624675, 4.16464, 92.41298)"/>
<path fill="none" stroke-width="0.3985" stroke-linecap="butt" stroke-linejoin="miter" stroke="rgb(50.196838%, 0%, 50.196838%)" stroke-opacity="1" stroke-miterlimit="10" d="M 75.129615 8.522673 L 82.851979 23.96807 " transform="matrix(1.628792, 0, 0, -1.624675, 4.16464, 92.41298)"/>
<path fill="none" stroke-width="0.3985" stroke-linecap="butt" stroke-linejoin="miter" stroke="rgb(50.196838%, 0%, 50.196838%)" stroke-opacity="1" stroke-miterlimit="10" d="M 95.560305 7.306084 L 87.228785 23.96807 " transform="matrix(1.628792, 0, 0, -1.624675, 4.16464, 92.41298)"/>
<path fill="none" stroke-width="0.3985" stroke-linecap="butt" stroke-linejoin="miter" stroke="rgb(50.196838%, 0%, 50.196838%)" stroke-opacity="1" stroke-miterlimit="10" d="M 85.041581 33.241559 L 85.041581 56.693365 " transform="matrix(1.628792, 0, 0, -1.624675, 4.16464, 92.41298)"/>
<g fill="rgb(0%, 0%, 0%)" fill-opacity="1">
<use xlink:href="#glyph-0-0" x="64.617292" y="96.034378"/>
</g>
<g fill="rgb(0%, 0%, 0%)" fill-opacity="1">
<use xlink:href="#glyph-1-0" x="69.079857" y="96.034378"/>
</g>
<path fill-rule="nonzero" fill="rgb(100%, 100%, 100%)" fill-opacity="1" stroke-width="0.3985" stroke-linecap="butt" stroke-linejoin="miter" stroke="rgb(0%, 0%, 0%)" stroke-opacity="1" stroke-miterlimit="10" d="M -2.216337 -8.593731 L 30.56294 -8.593731 L 30.56294 8.592398 L -2.216337 8.592398 Z M -2.216337 -8.593731 " transform="matrix(1.628792, 0, 0, -1.624675, 4.16464, 92.41298)"/>
<g fill="rgb(0%, 0%, 0%)" fill-opacity="1">
<use xlink:href="#glyph-2-0" x="6.166463" y="96.503909"/>
</g>
<g fill="rgb(0%, 0%, 0%)" fill-opacity="1">
<use xlink:href="#glyph-3-0" x="17.136051" y="96.503909"/>
</g>
<g fill="rgb(0%, 0%, 0%)" fill-opacity="1">
<use xlink:href="#glyph-0-1" x="24.032519" y="96.503909"/>
</g>
<g fill="rgb(0%, 0%, 0%)" fill-opacity="1">
<use xlink:href="#glyph-3-1" x="31.367133" y="96.503909"/>
</g>
<g fill="rgb(0%, 0%, 0%)" fill-opacity="1">
<use xlink:href="#glyph-2-1" x="39.886366" y="96.503909"/>
</g>
<path fill-rule="nonzero" fill="rgb(100%, 100%, 100%)" fill-opacity="1" stroke-width="0.3985" stroke-linecap="butt" stroke-linejoin="miter" stroke="rgb(0%, 0%, 0%)" stroke-opacity="1" stroke-miterlimit="10" d="M 64.716415 -8.324446 L 77.017038 -8.324446 L 77.017038 8.325518 L 64.716415 8.325518 Z M 64.716415 -8.324446 " transform="matrix(1.628792, 0, 0, -1.624675, 4.16464, 92.41298)"/>
<g fill="rgb(0%, 0%, 0%)" fill-opacity="1">
<use xlink:href="#glyph-3-0" x="117.294055" y="96.066871"/>
</g>
<path fill-rule="nonzero" fill="rgb(100%, 100%, 100%)" fill-opacity="1" stroke-width="0.3985" stroke-linecap="butt" stroke-linejoin="miter" stroke="rgb(0%, 0%, 0%)" stroke-opacity="1" stroke-miterlimit="10" d="M 93.16925 -7.105453 L 105.258827 -7.105453 L 105.258827 7.106524 L 93.16925 7.106524 Z M 93.16925 -7.105453 " transform="matrix(1.628792, 0, 0, -1.624675, 4.16464, 92.41298)"/>
<g fill="rgb(0%, 0%, 0%)" fill-opacity="1">
<use xlink:href="#glyph-3-1" x="161.883864" y="94.088017"/>
</g>
<path fill-rule="nonzero" fill="rgb(50.196838%, 0%, 50.196838%)" fill-opacity="1" stroke-width="0.3985" stroke-linecap="butt" stroke-linejoin="miter" stroke="rgb(50.196838%, 0%, 50.196838%)" stroke-opacity="1" stroke-miterlimit="10" d="M 89.737354 28.346349 C 89.737354 30.940618 87.634089 33.042 85.041581 33.042 C 82.446675 33.042 80.34341 30.940618 80.34341 28.346349 C 80.34341 25.75208 82.446675 23.650699 85.041581 23.650699 C 87.634089 23.650699 89.737354 25.75208 89.737354 28.346349 Z M 89.737354 28.346349 " transform="matrix(1.628792, 0, 0, -1.624675, 4.16464, 92.41298)"/>
</svg>
