<?xml version="1.0" encoding="UTF-8"?>
<svg xmlns="http://www.w3.org/2000/svg" xmlns:xlink="http://www.w3.org/1999/xlink" width="529pt" height="205pt" viewBox="0 0 529 205"><!--latexit:AAAXB3japVhbbBzVGT7HM4TYkHidYC4Jl4EsbVJsd257c3Abh9RJCFkgayd2bOPO
zp5dD56dWWZm4ziWqyOEIlS1qtQXoA+lmBdAVaFVWyGEeIK2QhUqTlRRtajipVWl
qg/tQx/ah56ZObM7a+/MrNxdWZ45+/237//+OUdTbuia7fD8TdjHsLfsuXVgNn0F
WbZmGnNpxVKXNXI3nXbMxmzaLD+LVMc+AOD1Hy2lBoulc2gNVSYp6NO9/dOWaToY
vp168LbbH/7Sl48e+8ojI6NjX80cf/TEqcfPPX3h8vwzCqo+W284zZm00dT1G/v2
D6YOpS8VS2MraM2+TP7TIBfTqq7Y9ptDBw7eMXznXXffg/swg1l8C96Db8V7cT8e
ePPwvffd/wD34ENH8G34drwfD+IhfAgfxvfh+zE3W1ZspGsGmlFN3bSm62YFzTia
o6PZhoWUellHi3WlZmhVTVUcUu50RXEQKausqCs1y2walcdcw8u22bRUNI2uOkcA
/dzghUFRkmeKpQunTy4USx6w1FBUNMVz5AtSEO/byubyhct+GYZSR7P+JbIvUYPN
/PhssfSkV2+qb2tw4mtfnyME2I6lGTWceoo4mDzp8Xy+6Sgk35L3y+uTj7l2/s2N
bwxOnT5ztnVPkpl0yFW56SAbH8D34INLQ/D7CxVTbdaR4XgpzAt8w1lcVyxHU3W0
MbDQtBFJfkWpoXly6SZrL657tG1wD5OVClc1LfJnOJy3GrZYV+q2vVYvE2RdcZbt
7b+5i91+m2861fziumY0SKqG6geqNnXOMTlnrYG4imYRYvQ1cqGolkZy5dRlxVJU
h8izI4rru6FcMzsqWXe0lWudK+WmbTeIRKv2TuSoWtnY4dSyt0Ofa7pS32muOWTN
q2V92WxUx9w121nT0Tb7QHobrvKfKD712nl8x2tP4mF898ViaYoQfLM0PTN48dLs
HLkvadcQ6Wx1SldqNrkvksYcOXHU12Aqhe/Ed108bxqKahKpLCxSD5sL4+R26ZtE
Cqc01VW2Yq1tLrmLZXUpdSCkkIovms3KeNf1IydO+rG2aoPLmjukjkYymPz1n258
+7+n+/C9xOWKTsKeIpOzuTLujoUhyVMCR74A73PF+dyZs/gBX4ZD+kIZ1TTDI6xB
UmtaaGPevalqtcWBfvpro0aEpitrhOZ1gwytfznQ37/g3nHzHq0TZfPqIneUP8Yp
Dnd0VB7hyOV6upreOL4daRH5Lpu6bq4SA4EaSCPcqEgsdsLLepNoz3QIWGyDu2Nd
1z5UCvmVu2IN00AEKLeB3XF+YRkKE2lhtXSkx6wP5SlyIhqZa7M1mo1LMt+OHg8s
+MBEnEAbFR25s0tC26/cA1xse5cTGiVIbddJTRXktl8xpllCpuUzUoUhWQm0Y5Gy
CkjLtXBxUhHyrSyTpCLQfmVjtBLWP+2awEdl6mcg0nblKE/dCfChtFWFHqC0U4IQ
YGvRWNopQYrDdohGpOzmx3KZ3mQm5kMJxQ65WGgTFwuU+I4kYmdIEkLhs0nPLokS
nfdbHY8NmBajwEEKAc1ynIC8jkh0JoRMXKc7+JXoXAjZSH7DSefaaD5GnFLQtVyy
jKSgb4Wek5ZpB0W+l6RloY2OS1qm3RNjtR9sKVKIt1gJyXIo2UQJyUEL8wkPKjnb
BgYULCCjEt7Ku27vqFILbe8VS1kNcTzClYkPTkdVZ4TTTZMcTJFtT/BkVPyNnBwU
yQHg+HZTtwJqa2m15W7GYqxxGyCPqeTMjKydOJKfv+u7MCE2iYgCaIhMV98J+Qtx
tu5GH+TtwaQoWD4J1gOV7mbmcZCJJLMFyUXSmUxXy0k+qppCRzWCEIUT+E6gGAmk
LRIiCRRoI8hBIQohJ6UtSNEEdk7BhJwJx5QSlUMNxNgkk0aFhiPbZXdrzZiQyOPE
bDoTowW+00OGp/t4kgchE++CliDmd1VCnlpHdsk9C3gjwCcMfOBKEmKlTM9OXtDC
/yH6gHxJTLSecDfaHQ6kgDh+lw6CMiRpN/lLUjTzPVQv9RQ7su1iNHmJ24tEHzdS
ZlexpVxP5lHBA+tdyb2Ven4XdctBvwu7qlsWejKPCk6tZXE3dQepyz0NS4hmOXrr
co9AHiTb6xT7rlt2kbtQ0CVZSnjktMoKH0Z2nK68hfB7lYGtbO7K6lLqYOvtYftl
0OtXlsbBXjAEDoE0OAZEkANnwRPgaVACq2ADvAC+A14CPwRvgLfAj8FPwDvgZ+Dn
4JfgXfAe+BD8CvwGfAx+Cz4BvwNb4Cb4PfgMfAH+Cv4O/gn+A/vhfsjBR6AMj8NJ
WIQz8BKcg89ADVrwGtyA1+GL8LvwJfgK/AF8Ff4U/gJ+AD+Cn8A/ws/hn+EXzCrz
LQYzzzMvMNeZF5nvMS8zrzJvMG8z7zLvMe8zHzAfMR8znzI3mT8wf2H+xvyDZdg9
7GE2zR5jBXacfZSdZM+w59gL7Bw7z5bZCltll4c/G/58+F/+i6w+SN/gXgUdn+F/
/w+LVQJz-->
<defs>
<g>
<g id="glyph-0-0">
<path d="M 4.109375 -5.515625 C 4.171875 -5.78125 4.265625 -6.109375 4.34375 -6.3125 L 4.296875 -6.421875 L 4.1875 -6.390625 C 3.84375 -6.296875 3.6875 -6.28125 2.984375 -6.28125 L 2.75 -6.28125 L 3.0625 -7.90625 C 3.28125 -9.140625 3.6875 -9.6875 4.34375 -9.6875 C 4.78125 -9.6875 5.171875 -9.46875 5.390625 -9.125 L 5.53125 -9.1875 C 5.59375 -9.40625 5.75 -9.859375 5.859375 -10.140625 L 5.9375 -10.359375 C 5.703125 -10.46875 5.25 -10.546875 4.921875 -10.546875 C 4.765625 -10.546875 4.53125 -10.5 4.421875 -10.453125 C 4.078125 -10.296875 2.90625 -9.40625 2.578125 -9.0625 C 2.25 -8.75 2.078125 -8.3125 1.921875 -7.5 L 1.703125 -6.359375 C 1.125 -6.078125 0.828125 -5.953125 0.46875 -5.828125 L 0.40625 -5.515625 L 1.5625 -5.515625 L 1.4375 -4.703125 C 1 -1.90625 0.46875 0.78125 0.15625 1.765625 C -0.09375 2.625 -0.53125 3.0625 -1.046875 3.0625 C -1.375 3.0625 -1.53125 2.96875 -1.796875 2.640625 L -2 2.703125 C -2.046875 3.03125 -2.25 3.734375 -2.328125 3.859375 C -2.203125 3.921875 -1.984375 3.96875 -1.828125 3.96875 C -1.234375 3.96875 -0.453125 3.53125 0.09375 2.84375 C 0.96875 1.8125 1.296875 0.8125 2.34375 -4.25 C 2.390625 -4.421875 2.5 -4.96875 2.609375 -5.515625 Z M 4.109375 -5.515625 "/>
</g>
<g id="glyph-0-1">
<path d="M 5.8125 -5.46875 C 6.0625 -5.4375 6.171875 -5.4375 6.296875 -5.4375 C 6.546875 -5.4375 6.6875 -5.453125 7.015625 -5.5 L 7.15625 -6.140625 L 7.109375 -6.234375 C 6.703125 -6.125 6.421875 -6.109375 5.640625 -6.109375 C 5.40625 -6.46875 5.265625 -6.609375 4.90625 -6.75 C 4.609375 -6.859375 4.25 -6.9375 3.953125 -6.9375 C 3.359375 -6.9375 2.640625 -6.65625 2.015625 -6.1875 C 1.203125 -5.578125 0.796875 -4.75 0.796875 -3.734375 C 0.796875 -2.625 1.4375 -1.953125 2.546875 -1.953125 C 2.65625 -1.953125 2.8125 -1.953125 2.96875 -1.96875 L 2.390625 -1.421875 C 2.15625 -1.203125 2 -0.953125 2 -0.75 C 2 -0.609375 2.09375 -0.453125 2.296875 -0.265625 C 1.203125 0.09375 0.765625 0.296875 0.234375 0.75 C -0.265625 1.15625 -0.53125 1.71875 -0.53125 2.28125 C -0.53125 3.3125 0.46875 3.96875 2.03125 3.96875 C 3.890625 3.96875 5.515625 2.9375 5.515625 1.734375 C 5.515625 1.21875 5.21875 0.703125 4.59375 0.203125 L 3.734375 -0.5 C 3.25 -0.890625 3.0625 -1.171875 3.0625 -1.4375 C 3.0625 -1.5625 3.140625 -1.71875 3.359375 -1.984375 C 3.40625 -2.046875 3.421875 -2.0625 3.453125 -2.09375 C 4.859375 -2.453125 5.875 -3.640625 5.875 -4.921875 C 5.875 -5.046875 5.859375 -5.1875 5.828125 -5.390625 Z M 3.640625 0.828125 C 4.296875 1.359375 4.5625 1.734375 4.5625 2.21875 C 4.5625 2.96875 3.578125 3.5625 2.390625 3.5625 C 1.203125 3.5625 0.390625 2.96875 0.390625 2.09375 C 0.390625 1.546875 0.640625 1.03125 1.109375 0.640625 C 1.484375 0.34375 1.796875 0.203125 2.53125 -0.015625 Z M 3.59375 -6.453125 C 4.421875 -6.453125 4.84375 -5.921875 4.84375 -4.90625 C 4.84375 -3.421875 4.15625 -2.421875 3.140625 -2.421875 C 2.265625 -2.421875 1.8125 -3 1.8125 -4.140625 C 1.8125 -5.515625 2.546875 -6.453125 3.59375 -6.453125 Z M 3.59375 -6.453125 "/>
</g>
<g id="glyph-1-0">
<path d="M 10.265625 -4.90625 C 10.5 -4.90625 10.78125 -4.90625 10.78125 -5.203125 C 10.78125 -5.5 10.5 -5.5 10.28125 -5.5 L 1.328125 -5.5 C 1.125 -5.5 0.84375 -5.5 0.84375 -5.203125 C 0.84375 -4.90625 1.125 -4.90625 1.34375 -4.90625 Z M 10.28125 -2 C 10.5 -2 10.78125 -2 10.78125 -2.296875 C 10.78125 -2.59375 10.5 -2.59375 10.265625 -2.59375 L 1.34375 -2.59375 C 1.125 -2.59375 0.84375 -2.59375 0.84375 -2.296875 C 0.84375 -2 1.125 -2 1.328125 -2 Z M 10.28125 -2 "/>
</g>
</g>
<clipPath id="clip-0">
<path clip-rule="nonzero" d="M 29 0 L 31 0 L 31 35 L 29 35 Z M 29 0 "/>
</clipPath>
<clipPath id="clip-1">
<path clip-rule="nonzero" d="M 1 161 L 35 161 L 35 205 L 1 205 Z M 1 161 "/>
</clipPath>
<clipPath id="clip-2">
<path clip-rule="nonzero" d="M 24 161 L 59 161 L 59 205 L 24 205 Z M 24 161 "/>
</clipPath>
<clipPath id="clip-3">
<path clip-rule="nonzero" d="M 151 0 L 153 0 L 153 35 L 151 35 Z M 151 0 "/>
</clipPath>
<clipPath id="clip-4">
<path clip-rule="nonzero" d="M 131 170 L 133 170 L 133 205 L 131 205 Z M 131 170 "/>
</clipPath>
<clipPath id="clip-5">
<path clip-rule="nonzero" d="M 172 170 L 173 170 L 173 205 L 172 205 Z M 172 170 "/>
</clipPath>
<clipPath id="clip-6">
<path clip-rule="nonzero" d="M 269 170 L 270 170 L 270 205 L 269 205 Z M 269 170 "/>
</clipPath>
<clipPath id="clip-7">
<path clip-rule="nonzero" d="M 315 170 L 316 170 L 316 205 L 315 205 Z M 315 170 "/>
</clipPath>
<clipPath id="clip-8">
<path clip-rule="nonzero" d="M 294 0 L 296 0 L 296 35 L 294 35 Z M 294 0 "/>
</clipPath>
<clipPath id="clip-9">
<path clip-rule="nonzero" d="M 458 0 L 459 0 L 459 35 L 458 35 Z M 458 0 "/>
</clipPath>
<clipPath id="clip-10">
<path clip-rule="nonzero" d="M 417 170 L 418 170 L 418 205 L 417 205 Z M 417 170 "/>
</clipPath>
<clipPath id="clip-11">
<path clip-rule="nonzero" d="M 499 170 L 500 170 L 500 205 L 499 205 Z M 499 170 "/>
</clipPath>
<clipPath id="clip-12">
<rect x="0" y="0" width="529" height="205"/>
</clipPath>
<g id="source-5" clip-path="url(#clip-12)">
<path fill="none" stroke-width="0.3985" stroke-linecap="butt" stroke-linejoin="miter" stroke="rgb(100%, 0%, 0%)" stroke-opacity="1" stroke-miterlimit="10" d="M -46.606572 -25.650348 C -51.807511 -22.856358 -57.024721 -14.425701 -57.203689 -8.523972 " transform="matrix(1.440545, 0, 0, -1.444227, 91.01777, 81.9082)"/>
<path fill="none" stroke-width="0.3985" stroke-linecap="butt" stroke-linejoin="miter" stroke="rgb(0%, 0%, 100%)" stroke-opacity="1" stroke-miterlimit="10" d="M -46.606572 25.650344 C -51.807511 22.856353 -57.024721 14.425697 -57.203689 8.523967 " transform="matrix(1.440545, 0, 0, -1.444227, 91.01777, 81.9082)"/>
<g clip-path="url(#clip-0)">
<path fill="none" stroke-width="0.3985" stroke-linecap="butt" stroke-linejoin="miter" stroke="rgb(0%, 0%, 100%)" stroke-opacity="1" stroke-miterlimit="10" d="M -42.520119 33.242532 L -42.520119 56.692577 " transform="matrix(1.440545, 0, 0, -1.444227, 91.01777, 81.9082)"/>
</g>
<path fill="none" stroke-width="0.3985" stroke-linecap="butt" stroke-linejoin="miter" stroke="rgb(100%, 0%, 0%)" stroke-opacity="1" stroke-miterlimit="10" d="M -42.520119 -51.797012 L -42.520119 -33.242536 " transform="matrix(1.440545, 0, 0, -1.444227, 91.01777, 81.9082)"/>
<path fill="none" stroke-width="0.3985" stroke-linecap="butt" stroke-linejoin="miter" stroke="rgb(0%, 0%, 100%)" stroke-opacity="1" stroke-miterlimit="10" d="M -38.436378 25.650344 C -33.064605 22.52908 -27.893493 13.516906 -27.909763 7.306837 " transform="matrix(1.440545, 0, 0, -1.444227, 91.01777, 81.9082)"/>
<path fill="none" stroke-width="0.3985" stroke-linecap="butt" stroke-linejoin="miter" stroke="rgb(100%, 0%, 0%)" stroke-opacity="1" stroke-miterlimit="10" d="M -38.436378 -25.650348 C -33.064605 -22.529085 -27.893493 -13.516911 -27.909763 -7.306841 " transform="matrix(1.440545, 0, 0, -1.444227, 91.01777, 81.9082)"/>
<g clip-path="url(#clip-1)">
<path fill="none" stroke-width="0.3985" stroke-linecap="butt" stroke-linejoin="miter" stroke="rgb(100%, 0%, 0%)" stroke-opacity="1" stroke-miterlimit="10" d="M -56.6939 -85.040899 L -44.708419 -61.071546 " transform="matrix(1.440545, 0, 0, -1.444227, 91.01777, 81.9082)"/>
</g>
<g clip-path="url(#clip-2)">
<path fill="none" stroke-width="0.3985" stroke-linecap="butt" stroke-linejoin="miter" stroke="rgb(100%, 0%, 0%)" stroke-opacity="1" stroke-miterlimit="10" d="M -28.346339 -85.040899 L -40.33182 -61.071546 " transform="matrix(1.440545, 0, 0, -1.444227, 91.01777, 81.9082)"/>
</g>
<path fill="none" stroke-width="0.3985" stroke-linecap="butt" stroke-linejoin="miter" stroke="rgb(0%, 0%, 100%)" stroke-opacity="1" stroke-miterlimit="10" d="M 38.436112 25.650344 C 33.232461 22.856353 28.015251 14.425697 27.836282 8.523967 " transform="matrix(1.440545, 0, 0, -1.444227, 91.01777, 81.9082)"/>
<g clip-path="url(#clip-3)">
<path fill="none" stroke-width="0.3985" stroke-linecap="butt" stroke-linejoin="miter" stroke="rgb(0%, 0%, 100%)" stroke-opacity="1" stroke-miterlimit="10" d="M 42.519853 33.242532 L 42.519853 56.692577 " transform="matrix(1.440545, 0, 0, -1.444227, 91.01777, 81.9082)"/>
</g>
<path fill="none" stroke-width="0.3985" stroke-linecap="butt" stroke-linejoin="miter" stroke="rgb(0%, 0%, 100%)" stroke-opacity="1" stroke-miterlimit="10" d="M 46.606305 25.650344 C 51.975367 22.52908 57.14919 13.516906 57.13292 7.306837 " transform="matrix(1.440545, 0, 0, -1.444227, 91.01777, 81.9082)"/>
<g clip-path="url(#clip-4)">
<path fill="none" stroke-width="0.3985" stroke-linecap="butt" stroke-linejoin="miter" stroke="rgb(100%, 0%, 0%)" stroke-opacity="1" stroke-miterlimit="10" d="M 28.346072 -85.040899 L 28.346072 -61.58815 " transform="matrix(1.440545, 0, 0, -1.444227, 91.01777, 81.9082)"/>
</g>
<g clip-path="url(#clip-5)">
<path fill="none" stroke-width="0.3985" stroke-linecap="butt" stroke-linejoin="miter" stroke="rgb(100%, 0%, 0%)" stroke-opacity="1" stroke-miterlimit="10" d="M 56.693633 -85.040899 L 56.693633 -61.58815 " transform="matrix(1.440545, 0, 0, -1.444227, 91.01777, 81.9082)"/>
</g>
<path fill="none" stroke-width="0.3985" stroke-linecap="butt" stroke-linejoin="miter" stroke="rgb(100%, 0%, 0%)" stroke-opacity="1" stroke-miterlimit="10" d="M 53.23086 -53.233226 L 31.808846 -31.809027 " transform="matrix(1.440545, 0, 0, -1.444227, 91.01777, 81.9082)"/>
<path fill="none" stroke-width="0.3985" stroke-linecap="butt" stroke-linejoin="miter" stroke="rgb(100%, 0%, 0%)" stroke-opacity="1" stroke-miterlimit="10" d="M 31.808846 -53.233226 L 53.23086 -31.809027 " transform="matrix(1.440545, 0, 0, -1.444227, 91.01777, 81.9082)"/>
<path fill="none" stroke-width="0.3985" stroke-linecap="butt" stroke-linejoin="miter" stroke="rgb(100%, 0%, 0%)" stroke-opacity="1" stroke-miterlimit="10" d="M 56.693633 -23.451399 L 56.693633 -7.306841 " transform="matrix(1.440545, 0, 0, -1.444227, 91.01777, 81.9082)"/>
<path fill="none" stroke-width="0.3985" stroke-linecap="butt" stroke-linejoin="miter" stroke="rgb(100%, 0%, 0%)" stroke-opacity="1" stroke-miterlimit="10" d="M 28.346072 -23.451399 L 28.346072 -8.523972 " transform="matrix(1.440545, 0, 0, -1.444227, 91.01777, 81.9082)"/>
<path fill="none" stroke-width="0.3985" stroke-linecap="butt" stroke-linejoin="miter" stroke="rgb(100%, 0%, 0%)" stroke-opacity="1" stroke-miterlimit="10" d="M 24.88601 -53.233226 C 18.977331 -47.323382 18.977331 -37.716167 24.88601 -31.809027 " transform="matrix(1.440545, 0, 0, -1.444227, 91.01777, 81.9082)"/>
<path fill="none" stroke-width="0.3985" stroke-linecap="butt" stroke-linejoin="miter" stroke="rgb(100%, 0%, 0%)" stroke-opacity="1" stroke-miterlimit="10" d="M 60.156407 -53.233226 C 66.062375 -47.323382 66.062375 -37.716167 60.156407 -31.809027 " transform="matrix(1.440545, 0, 0, -1.444227, 91.01777, 81.9082)"/>
<path fill="none" stroke-width="0.3985" stroke-linecap="butt" stroke-linejoin="miter" stroke="rgb(100%, 0%, 0%)" stroke-opacity="1" stroke-miterlimit="10" d="M 100.898908 -36.869585 C 102.921797 -44.231871 111.997681 -53.187246 119.384208 -55.115721 " transform="matrix(1.440545, 0, 0, -1.444227, 91.01777, 81.9082)"/>
<path fill="none" stroke-width="0.3985" stroke-linecap="butt" stroke-linejoin="miter" stroke="rgb(100%, 0%, 0%)" stroke-opacity="1" stroke-miterlimit="10" d="M 155.907386 -35.652455 C 155.907386 -42.15734 133.891521 -50.993706 128.256718 -54.244797 " transform="matrix(1.440545, 0, 0, -1.444227, 91.01777, 81.9082)"/>
<path fill="none" stroke-width="0.3985" stroke-linecap="butt" stroke-linejoin="miter" stroke="rgb(100%, 0%, 0%)" stroke-opacity="1" stroke-miterlimit="10" d="M 127.559825 -36.869585 C 127.559825 -42.679354 146.638975 -51.342617 151.669081 -54.244797 " transform="matrix(1.440545, 0, 0, -1.444227, 91.01777, 81.9082)"/>
<path fill="none" stroke-width="0.3985" stroke-linecap="butt" stroke-linejoin="miter" stroke="rgb(100%, 0%, 0%)" stroke-opacity="1" stroke-miterlimit="10" d="M 160.636499 -55.426765 C 169.05074 -53.576727 179.691244 -43.864027 182.297138 -35.652455 " transform="matrix(1.440545, 0, 0, -1.444227, 91.01777, 81.9082)"/>
<g clip-path="url(#clip-6)">
<path fill="none" stroke-width="0.3985" stroke-linecap="butt" stroke-linejoin="miter" stroke="rgb(100%, 0%, 0%)" stroke-opacity="1" stroke-miterlimit="10" d="M 124.018413 -61.58815 L 124.018413 -85.040899 " transform="matrix(1.440545, 0, 0, -1.444227, 91.01777, 81.9082)"/>
</g>
<g clip-path="url(#clip-7)">
<path fill="none" stroke-width="0.3985" stroke-linecap="butt" stroke-linejoin="miter" stroke="rgb(100%, 0%, 0%)" stroke-opacity="1" stroke-miterlimit="10" d="M 155.907386 -61.58815 L 155.907386 -85.040899 " transform="matrix(1.440545, 0, 0, -1.444227, 91.01777, 81.9082)"/>
</g>
<g clip-path="url(#clip-8)">
<path fill="none" stroke-width="0.3985" stroke-linecap="butt" stroke-linejoin="miter" stroke="rgb(0%, 0%, 100%)" stroke-opacity="1" stroke-miterlimit="10" d="M 141.733605 33.242532 L 141.733605 56.692577 " transform="matrix(1.440545, 0, 0, -1.444227, 91.01777, 81.9082)"/>
</g>
<path fill="none" stroke-width="0.3985" stroke-linecap="butt" stroke-linejoin="miter" stroke="rgb(0%, 0%, 100%)" stroke-opacity="1" stroke-miterlimit="10" d="M 98.702474 -19.824351 C 98.884154 -13.919916 104.101364 -5.491965 109.302303 -2.697974 " transform="matrix(1.440545, 0, 0, -1.444227, 91.01777, 81.9082)"/>
<path fill="none" stroke-width="0.3985" stroke-linecap="butt" stroke-linejoin="miter" stroke="rgb(0%, 0%, 100%)" stroke-opacity="1" stroke-miterlimit="10" d="M 115.834662 4.239669 C 120.333284 12.029303 129.704738 21.401206 137.4953 25.899179 " transform="matrix(1.440545, 0, 0, -1.444227, 91.01777, 81.9082)"/>
<path fill="none" stroke-width="0.3985" stroke-linecap="butt" stroke-linejoin="miter" stroke="rgb(0%, 0%, 100%)" stroke-opacity="1" stroke-miterlimit="10" d="M 145.974622 25.899179 C 153.762473 21.401206 163.136638 12.029303 167.632549 4.239669 " transform="matrix(1.440545, 0, 0, -1.444227, 91.01777, 81.9082)"/>
<path fill="none" stroke-width="0.3985" stroke-linecap="butt" stroke-linejoin="miter" stroke="rgb(0%, 0%, 100%)" stroke-opacity="1" stroke-miterlimit="10" d="M 174.164907 -2.697974 C 179.536681 -5.816533 184.707792 -14.831412 184.691522 -21.041481 " transform="matrix(1.440545, 0, 0, -1.444227, 91.01777, 81.9082)"/>
<path fill="none" stroke-width="0.3985" stroke-linecap="butt" stroke-linejoin="miter" stroke="rgb(0%, 0%, 100%)" stroke-opacity="1" stroke-miterlimit="10" d="M 155.468099 -21.041481 C 155.451829 -14.831412 160.625652 -5.816533 165.994714 -2.697974 " transform="matrix(1.440545, 0, 0, -1.444227, 91.01777, 81.9082)"/>
<path fill="none" stroke-width="0.3985" stroke-linecap="butt" stroke-linejoin="miter" stroke="rgb(0%, 0%, 100%)" stroke-opacity="1" stroke-miterlimit="10" d="M 128.072326 -19.824351 C 127.890646 -13.919916 122.673436 -5.491965 117.472497 -2.697974 " transform="matrix(1.440545, 0, 0, -1.444227, 91.01777, 81.9082)"/>
<path fill="none" stroke-width="0.3985" stroke-linecap="butt" stroke-linejoin="miter" stroke="rgb(100%, 0%, 0%)" stroke-opacity="1" stroke-miterlimit="10" d="M 222.689836 -53.995961 C 217.488897 -51.201971 212.271687 -42.771315 212.090007 -36.869585 " transform="matrix(1.440545, 0, 0, -1.444227, 91.01777, 81.9082)"/>
<path fill="none" stroke-width="0.3985" stroke-linecap="butt" stroke-linejoin="miter" stroke="rgb(0%, 0%, 100%)" stroke-opacity="1" stroke-miterlimit="10" d="M 222.689836 -2.697974 C 217.488897 -5.491965 212.271687 -13.919916 212.090007 -19.824351 " transform="matrix(1.440545, 0, 0, -1.444227, 91.01777, 81.9082)"/>
<path fill="none" stroke-width="0.3985" stroke-linecap="butt" stroke-linejoin="miter" stroke="rgb(0%, 0%, 100%)" stroke-opacity="1" stroke-miterlimit="10" d="M 230.86003 -2.697974 C 236.229091 -5.816533 241.402914 -14.831412 241.386644 -21.041481 " transform="matrix(1.440545, 0, 0, -1.444227, 91.01777, 81.9082)"/>
<path fill="none" stroke-width="0.3985" stroke-linecap="butt" stroke-linejoin="miter" stroke="rgb(100%, 0%, 0%)" stroke-opacity="1" stroke-miterlimit="10" d="M 230.86003 -53.995961 C 236.229091 -50.877403 241.402914 -41.862524 241.386644 -35.652455 " transform="matrix(1.440545, 0, 0, -1.444227, 91.01777, 81.9082)"/>
<path fill="none" stroke-width="0.3985" stroke-linecap="butt" stroke-linejoin="miter" stroke="rgb(100%, 0%, 0%)" stroke-opacity="1" stroke-miterlimit="10" d="M 279.382247 -53.995961 C 274.181307 -51.201971 268.964098 -42.771315 268.782417 -36.869585 " transform="matrix(1.440545, 0, 0, -1.444227, 91.01777, 81.9082)"/>
<path fill="none" stroke-width="0.3985" stroke-linecap="butt" stroke-linejoin="miter" stroke="rgb(0%, 0%, 100%)" stroke-opacity="1" stroke-miterlimit="10" d="M 279.382247 -2.697974 C 274.181307 -5.491965 268.964098 -13.919916 268.782417 -19.824351 " transform="matrix(1.440545, 0, 0, -1.444227, 91.01777, 81.9082)"/>
<path fill="none" stroke-width="0.3985" stroke-linecap="butt" stroke-linejoin="miter" stroke="rgb(0%, 0%, 100%)" stroke-opacity="1" stroke-miterlimit="10" d="M 287.55244 -2.697974 C 292.924214 -5.816533 298.095325 -14.831412 298.079055 -21.041481 " transform="matrix(1.440545, 0, 0, -1.444227, 91.01777, 81.9082)"/>
<path fill="none" stroke-width="0.3985" stroke-linecap="butt" stroke-linejoin="miter" stroke="rgb(100%, 0%, 0%)" stroke-opacity="1" stroke-miterlimit="10" d="M 287.55244 -53.995961 C 292.924214 -50.877403 298.095325 -41.862524 298.079055 -35.652455 " transform="matrix(1.440545, 0, 0, -1.444227, 91.01777, 81.9082)"/>
<path fill="none" stroke-width="0.3985" stroke-linecap="butt" stroke-linejoin="miter" stroke="rgb(0%, 0%, 100%)" stroke-opacity="1" stroke-miterlimit="10" d="M 229.222195 4.239669 C 235.217647 14.625847 240.494512 19.902784 250.882833 25.899179 " transform="matrix(1.440545, 0, 0, -1.444227, 91.01777, 81.9082)"/>
<g clip-path="url(#clip-9)">
<path fill="none" stroke-width="0.3985" stroke-linecap="butt" stroke-linejoin="miter" stroke="rgb(0%, 0%, 100%)" stroke-opacity="1" stroke-miterlimit="10" d="M 255.121138 33.242532 L 255.121138 56.692577 " transform="matrix(1.440545, 0, 0, -1.444227, 91.01777, 81.9082)"/>
</g>
<path fill="none" stroke-width="0.3985" stroke-linecap="butt" stroke-linejoin="miter" stroke="rgb(0%, 0%, 100%)" stroke-opacity="1" stroke-miterlimit="10" d="M 259.362155 25.899179 C 269.747764 19.902784 275.02463 14.625847 281.020082 4.239669 " transform="matrix(1.440545, 0, 0, -1.444227, 91.01777, 81.9082)"/>
<g clip-path="url(#clip-10)">
<path fill="none" stroke-width="0.3985" stroke-linecap="butt" stroke-linejoin="miter" stroke="rgb(100%, 0%, 0%)" stroke-opacity="1" stroke-miterlimit="10" d="M 226.773577 -61.58815 L 226.773577 -85.040899 " transform="matrix(1.440545, 0, 0, -1.444227, 91.01777, 81.9082)"/>
</g>
<g clip-path="url(#clip-11)">
<path fill="none" stroke-width="0.3985" stroke-linecap="butt" stroke-linejoin="miter" stroke="rgb(100%, 0%, 0%)" stroke-opacity="1" stroke-miterlimit="10" d="M 283.468699 -61.58815 L 283.468699 -85.040899 " transform="matrix(1.440545, 0, 0, -1.444227, 91.01777, 81.9082)"/>
</g>
<path fill-rule="nonzero" fill="rgb(100%, 100%, 100%)" fill-opacity="1" stroke-width="0.3985" stroke-linecap="butt" stroke-linejoin="miter" stroke="rgb(0%, 0%, 0%)" stroke-opacity="1" stroke-miterlimit="10" d="M -62.843916 -8.323821 L -50.543884 -8.323821 L -50.543884 8.323817 L -62.843916 8.323817 Z M -62.843916 -8.323821 " transform="matrix(1.440545, 0, 0, -1.444227, 91.01777, 81.9082)"/>
<g fill="rgb(0%, 0%, 0%)" fill-opacity="1">
<use xlink:href="#glyph-0-0" x="7.31932" y="85.156087"/>
</g>
<path fill="none" stroke-width="0.3985" stroke-linecap="butt" stroke-linejoin="miter" stroke="rgb(100%, 0%, 0%)" stroke-opacity="1" stroke-miterlimit="10" d="M -37.823546 -28.346968 C -37.823546 -25.753128 -39.927784 -23.651549 -42.520119 -23.651549 C -45.115166 -23.651549 -47.216692 -25.753128 -47.216692 -28.346968 C -47.216692 -30.940808 -45.115166 -33.042386 -42.520119 -33.042386 C -39.927784 -33.042386 -37.823546 -30.940808 -37.823546 -28.346968 Z M -37.823546 -28.346968 " transform="matrix(1.440545, 0, 0, -1.444227, 91.01777, 81.9082)"/>
<path fill-rule="nonzero" fill="rgb(0%, 0%, 100%)" fill-opacity="1" stroke-width="0.3985" stroke-linecap="butt" stroke-linejoin="miter" stroke="rgb(0%, 0%, 100%)" stroke-opacity="1" stroke-miterlimit="10" d="M -37.823546 28.346963 C -37.823546 30.940803 -39.927784 33.042382 -42.520119 33.042382 C -45.115166 33.042382 -47.216692 30.940803 -47.216692 28.346963 C -47.216692 25.753123 -45.115166 23.651545 -42.520119 23.651545 C -39.927784 23.651545 -37.823546 25.753123 -37.823546 28.346963 Z M -37.823546 28.346963 " transform="matrix(1.440545, 0, 0, -1.444227, 91.01777, 81.9082)"/>
<path fill-rule="nonzero" fill="rgb(100%, 0%, 0%)" fill-opacity="1" stroke-width="0.3985" stroke-linecap="butt" stroke-linejoin="miter" stroke="rgb(100%, 0%, 0%)" stroke-opacity="1" stroke-miterlimit="10" d="M -37.823546 -56.692581 C -37.823546 -54.098741 -39.927784 -51.997163 -42.520119 -51.997163 C -45.115166 -51.997163 -47.216692 -54.098741 -47.216692 -56.692581 C -47.216692 -59.286421 -45.115166 -61.390704 -42.520119 -61.390704 C -39.927784 -61.390704 -37.823546 -59.286421 -37.823546 -56.692581 Z M -37.823546 -56.692581 " transform="matrix(1.440545, 0, 0, -1.444227, 91.01777, 81.9082)"/>
<path fill-rule="nonzero" fill="rgb(100%, 100%, 100%)" fill-opacity="1" stroke-width="0.3985" stroke-linecap="butt" stroke-linejoin="miter" stroke="rgb(0%, 0%, 0%)" stroke-opacity="1" stroke-miterlimit="10" d="M -34.393312 -7.106691 L -22.302077 -7.106691 L -22.302077 7.106687 L -34.393312 7.106687 Z M -34.393312 -7.106691 " transform="matrix(1.440545, 0, 0, -1.444227, 91.01777, 81.9082)"/>
<g fill="rgb(0%, 0%, 0%)" fill-opacity="1">
<use xlink:href="#glyph-0-1" x="46.75424" y="83.397018"/>
</g>
<g fill="rgb(0%, 0%, 0%)" fill-opacity="1">
<use xlink:href="#glyph-1-0" x="85.206707" y="84.649163"/>
</g>
<path fill="none" stroke-width="0.3985" stroke-linecap="butt" stroke-linejoin="miter" stroke="rgb(100%, 0%, 0%)" stroke-opacity="1" stroke-miterlimit="10" d="M 33.042645 -56.692581 C 33.042645 -54.098741 30.941119 -51.997163 28.346072 -51.997163 C 25.753737 -51.997163 23.649499 -54.098741 23.649499 -56.692581 C 23.649499 -59.286421 25.753737 -61.390704 28.346072 -61.390704 C 30.941119 -61.390704 33.042645 -59.286421 33.042645 -56.692581 Z M 33.042645 -56.692581 " transform="matrix(1.440545, 0, 0, -1.444227, 91.01777, 81.9082)"/>
<path fill="none" stroke-width="0.3985" stroke-linecap="butt" stroke-linejoin="miter" stroke="rgb(100%, 0%, 0%)" stroke-opacity="1" stroke-miterlimit="10" d="M 61.390206 -56.692581 C 61.390206 -54.098741 59.28868 -51.997163 56.693633 -51.997163 C 54.098587 -51.997163 51.99706 -54.098741 51.99706 -56.692581 C 51.99706 -59.286421 54.098587 -61.390704 56.693633 -61.390704 C 59.28868 -61.390704 61.390206 -59.286421 61.390206 -56.692581 Z M 61.390206 -56.692581 " transform="matrix(1.440545, 0, 0, -1.444227, 91.01777, 81.9082)"/>
<path fill-rule="nonzero" fill="rgb(100%, 0%, 0%)" fill-opacity="1" stroke-width="0.3985" stroke-linecap="butt" stroke-linejoin="miter" stroke="rgb(100%, 0%, 0%)" stroke-opacity="1" stroke-miterlimit="10" d="M 33.042645 -28.346968 C 33.042645 -25.753128 30.941119 -23.651549 28.346072 -23.651549 C 25.753737 -23.651549 23.649499 -25.753128 23.649499 -28.346968 C 23.649499 -30.940808 25.753737 -33.042386 28.346072 -33.042386 C 30.941119 -33.042386 33.042645 -30.940808 33.042645 -28.346968 Z M 33.042645 -28.346968 " transform="matrix(1.440545, 0, 0, -1.444227, 91.01777, 81.9082)"/>
<path fill-rule="nonzero" fill="rgb(100%, 0%, 0%)" fill-opacity="1" stroke-width="0.3985" stroke-linecap="butt" stroke-linejoin="miter" stroke="rgb(100%, 0%, 0%)" stroke-opacity="1" stroke-miterlimit="10" d="M 61.390206 -28.346968 C 61.390206 -25.753128 59.28868 -23.651549 56.693633 -23.651549 C 54.098587 -23.651549 51.99706 -25.753128 51.99706 -28.346968 C 51.99706 -30.940808 54.098587 -33.042386 56.693633 -33.042386 C 59.28868 -33.042386 61.390206 -30.940808 61.390206 -28.346968 Z M 61.390206 -28.346968 " transform="matrix(1.440545, 0, 0, -1.444227, 91.01777, 81.9082)"/>
<path fill-rule="nonzero" fill="rgb(100%, 100%, 100%)" fill-opacity="1" stroke-width="0.3985" stroke-linecap="butt" stroke-linejoin="miter" stroke="rgb(0%, 0%, 0%)" stroke-opacity="1" stroke-miterlimit="10" d="M 22.196056 -8.323821 L 34.496088 -8.323821 L 34.496088 8.323817 L 22.196056 8.323817 Z M 22.196056 -8.323821 " transform="matrix(1.440545, 0, 0, -1.444227, 91.01777, 81.9082)"/>
<g fill="rgb(0%, 0%, 0%)" fill-opacity="1">
<use xlink:href="#glyph-0-0" x="129.821827" y="85.156087"/>
</g>
<path fill-rule="nonzero" fill="rgb(0%, 0%, 100%)" fill-opacity="1" stroke-width="0.3985" stroke-linecap="butt" stroke-linejoin="miter" stroke="rgb(0%, 0%, 100%)" stroke-opacity="1" stroke-miterlimit="10" d="M 47.216426 28.346963 C 47.216426 30.940803 45.114899 33.042382 42.519853 33.042382 C 39.927518 33.042382 37.82328 30.940803 37.82328 28.346963 C 37.82328 25.753123 39.927518 23.651545 42.519853 23.651545 C 45.114899 23.651545 47.216426 25.753123 47.216426 28.346963 Z M 47.216426 28.346963 " transform="matrix(1.440545, 0, 0, -1.444227, 91.01777, 81.9082)"/>
<path fill-rule="nonzero" fill="rgb(100%, 100%, 100%)" fill-opacity="1" stroke-width="0.3985" stroke-linecap="butt" stroke-linejoin="miter" stroke="rgb(0%, 0%, 0%)" stroke-opacity="1" stroke-miterlimit="10" d="M 50.649371 -7.106691 L 62.737895 -7.106691 L 62.737895 7.106687 L 50.649371 7.106687 Z M 50.649371 -7.106691 " transform="matrix(1.440545, 0, 0, -1.444227, 91.01777, 81.9082)"/>
<g fill="rgb(0%, 0%, 0%)" fill-opacity="1">
<use xlink:href="#glyph-0-1" x="169.256746" y="83.397018"/>
</g>
<g fill="rgb(0%, 0%, 0%)" fill-opacity="1">
<use xlink:href="#glyph-1-0" x="207.709214" y="84.649163"/>
</g>
<path fill-rule="nonzero" fill="rgb(0%, 0%, 100%)" fill-opacity="1" stroke-width="0.3985" stroke-linecap="butt" stroke-linejoin="miter" stroke="rgb(0%, 0%, 100%)" stroke-opacity="1" stroke-miterlimit="10" d="M 146.430178 28.346963 C 146.430178 30.940803 144.328652 33.042382 141.733605 33.042382 C 139.14127 33.042382 137.037032 30.940803 137.037032 28.346963 C 137.037032 25.753123 139.14127 23.651545 141.733605 23.651545 C 144.328652 23.651545 146.430178 25.753123 146.430178 28.346963 Z M 146.430178 28.346963 " transform="matrix(1.440545, 0, 0, -1.444227, 91.01777, 81.9082)"/>
<path fill-rule="nonzero" fill="rgb(100%, 100%, 100%)" fill-opacity="1" stroke-width="0.3985" stroke-linecap="butt" stroke-linejoin="miter" stroke="rgb(0%, 0%, 0%)" stroke-opacity="1" stroke-miterlimit="10" d="M 93.064959 -36.672139 L 105.364991 -36.672139 L 105.364991 -20.021796 L 93.064959 -20.021796 Z M 93.064959 -36.672139 " transform="matrix(1.440545, 0, 0, -1.444227, 91.01777, 81.9082)"/>
<g fill="rgb(0%, 0%, 0%)" fill-opacity="1">
<use xlink:href="#glyph-0-0" x="231.907489" y="126.09559"/>
</g>
<path fill-rule="nonzero" fill="rgb(100%, 100%, 100%)" fill-opacity="1" stroke-width="0.3985" stroke-linecap="butt" stroke-linejoin="miter" stroke="rgb(0%, 0%, 0%)" stroke-opacity="1" stroke-miterlimit="10" d="M 121.409808 -36.672139 L 133.709841 -36.672139 L 133.709841 -20.021796 L 121.409808 -20.021796 Z M 121.409808 -36.672139 " transform="matrix(1.440545, 0, 0, -1.444227, 91.01777, 81.9082)"/>
<g fill="rgb(0%, 0%, 0%)" fill-opacity="1">
<use xlink:href="#glyph-0-0" x="272.741177" y="126.09559"/>
</g>
<path fill-rule="nonzero" fill="rgb(100%, 100%, 100%)" fill-opacity="1" stroke-width="0.3985" stroke-linecap="butt" stroke-linejoin="miter" stroke="rgb(0%, 0%, 0%)" stroke-opacity="1" stroke-miterlimit="10" d="M 149.863124 -35.452304 L 161.951648 -35.452304 L 161.951648 -21.241631 L 149.863124 -21.241631 Z M 149.863124 -35.452304 " transform="matrix(1.440545, 0, 0, -1.444227, 91.01777, 81.9082)"/>
<g fill="rgb(0%, 0%, 0%)" fill-opacity="1">
<use xlink:href="#glyph-0-1" x="312.177537" y="124.336521"/>
</g>
<path fill-rule="nonzero" fill="rgb(100%, 100%, 100%)" fill-opacity="1" stroke-width="0.3985" stroke-linecap="butt" stroke-linejoin="miter" stroke="rgb(0%, 0%, 0%)" stroke-opacity="1" stroke-miterlimit="10" d="M 178.207973 -35.452304 L 190.299209 -35.452304 L 190.299209 -21.241631 L 178.207973 -21.241631 Z M 178.207973 -35.452304 " transform="matrix(1.440545, 0, 0, -1.444227, 91.01777, 81.9082)"/>
<g fill="rgb(0%, 0%, 0%)" fill-opacity="1">
<use xlink:href="#glyph-0-1" x="353.011226" y="124.336521"/>
</g>
<path fill="none" stroke-width="0.3985" stroke-linecap="butt" stroke-linejoin="miter" stroke="rgb(100%, 0%, 0%)" stroke-opacity="1" stroke-miterlimit="10" d="M 128.712275 -56.692581 C 128.712275 -54.098741 126.610748 -51.997163 124.018413 -51.997163 C 121.423367 -51.997163 119.32184 -54.098741 119.32184 -56.692581 C 119.32184 -59.286421 121.423367 -61.390704 124.018413 -61.390704 C 126.610748 -61.390704 128.712275 -59.286421 128.712275 -56.692581 Z M 128.712275 -56.692581 " transform="matrix(1.440545, 0, 0, -1.444227, 91.01777, 81.9082)"/>
<path fill="none" stroke-width="0.3985" stroke-linecap="butt" stroke-linejoin="miter" stroke="rgb(100%, 0%, 0%)" stroke-opacity="1" stroke-miterlimit="10" d="M 160.603959 -56.692581 C 160.603959 -54.098741 158.502432 -51.997163 155.907386 -51.997163 C 153.315051 -51.997163 151.210813 -54.098741 151.210813 -56.692581 C 151.210813 -59.286421 153.315051 -61.390704 155.907386 -61.390704 C 158.502432 -61.390704 160.603959 -59.286421 160.603959 -56.692581 Z M 160.603959 -56.692581 " transform="matrix(1.440545, 0, 0, -1.444227, 91.01777, 81.9082)"/>
<path fill-rule="nonzero" fill="rgb(0%, 0%, 100%)" fill-opacity="1" stroke-width="0.3985" stroke-linecap="butt" stroke-linejoin="miter" stroke="rgb(0%, 0%, 100%)" stroke-opacity="1" stroke-miterlimit="10" d="M 118.082617 0.0013502 C 118.082617 2.592485 115.98109 4.696769 113.386044 4.696769 C 110.793709 4.696769 108.692182 2.592485 108.692182 0.0013502 C 108.692182 -2.59249 110.793709 -4.696773 113.386044 -4.696773 C 115.98109 -4.696773 118.082617 -2.59249 118.082617 0.0013502 Z M 118.082617 0.0013502 " transform="matrix(1.440545, 0, 0, -1.444227, 91.01777, 81.9082)"/>
<path fill-rule="nonzero" fill="rgb(0%, 0%, 100%)" fill-opacity="1" stroke-width="0.3985" stroke-linecap="butt" stroke-linejoin="miter" stroke="rgb(0%, 0%, 100%)" stroke-opacity="1" stroke-miterlimit="10" d="M 174.77774 0.0013502 C 174.77774 2.592485 172.673501 4.696769 170.081166 4.696769 C 167.48612 4.696769 165.384593 2.592485 165.384593 0.0013502 C 165.384593 -2.59249 167.48612 -4.696773 170.081166 -4.696773 C 172.673501 -4.696773 174.77774 -2.59249 174.77774 0.0013502 Z M 174.77774 0.0013502 " transform="matrix(1.440545, 0, 0, -1.444227, 91.01777, 81.9082)"/>
<g fill="rgb(0%, 0%, 0%)" fill-opacity="1">
<use xlink:href="#glyph-1-0" x="371.045408" y="84.649163"/>
</g>
<path fill-rule="nonzero" fill="rgb(100%, 100%, 100%)" fill-opacity="1" stroke-width="0.3985" stroke-linecap="butt" stroke-linejoin="miter" stroke="rgb(0%, 0%, 0%)" stroke-opacity="1" stroke-miterlimit="10" d="M 206.44978 -36.672139 L 218.749813 -36.672139 L 218.749813 -20.021796 L 206.44978 -20.021796 Z M 206.44978 -36.672139 " transform="matrix(1.440545, 0, 0, -1.444227, 91.01777, 81.9082)"/>
<g fill="rgb(0%, 0%, 0%)" fill-opacity="1">
<use xlink:href="#glyph-0-0" x="395.245124" y="126.09559"/>
</g>
<path fill="none" stroke-width="0.3985" stroke-linecap="butt" stroke-linejoin="miter" stroke="rgb(100%, 0%, 0%)" stroke-opacity="1" stroke-miterlimit="10" d="M 231.47015 -56.692581 C 231.47015 -54.098741 229.368624 -51.997163 226.773577 -51.997163 C 224.181242 -51.997163 222.077004 -54.098741 222.077004 -56.692581 C 222.077004 -59.286421 224.181242 -61.390704 226.773577 -61.390704 C 229.368624 -61.390704 231.47015 -59.286421 231.47015 -56.692581 Z M 231.47015 -56.692581 " transform="matrix(1.440545, 0, 0, -1.444227, 91.01777, 81.9082)"/>
<path fill-rule="nonzero" fill="rgb(0%, 0%, 100%)" fill-opacity="1" stroke-width="0.3985" stroke-linecap="butt" stroke-linejoin="miter" stroke="rgb(0%, 0%, 100%)" stroke-opacity="1" stroke-miterlimit="10" d="M 231.47015 0.0013502 C 231.47015 2.592485 229.368624 4.696769 226.773577 4.696769 C 224.181242 4.696769 222.077004 2.592485 222.077004 0.0013502 C 222.077004 -2.59249 224.181242 -4.696773 226.773577 -4.696773 C 229.368624 -4.696773 231.47015 -2.59249 231.47015 0.0013502 Z M 231.47015 0.0013502 " transform="matrix(1.440545, 0, 0, -1.444227, 91.01777, 81.9082)"/>
<path fill-rule="nonzero" fill="rgb(100%, 100%, 100%)" fill-opacity="1" stroke-width="0.3985" stroke-linecap="butt" stroke-linejoin="miter" stroke="rgb(0%, 0%, 0%)" stroke-opacity="1" stroke-miterlimit="10" d="M 234.903096 -35.452304 L 246.994331 -35.452304 L 246.994331 -21.241631 L 234.903096 -21.241631 Z M 234.903096 -35.452304 " transform="matrix(1.440545, 0, 0, -1.444227, 91.01777, 81.9082)"/>
<g fill="rgb(0%, 0%, 0%)" fill-opacity="1">
<use xlink:href="#glyph-0-1" x="434.680043" y="124.336521"/>
</g>
<path fill-rule="nonzero" fill="rgb(100%, 100%, 100%)" fill-opacity="1" stroke-width="0.3985" stroke-linecap="butt" stroke-linejoin="miter" stroke="rgb(0%, 0%, 0%)" stroke-opacity="1" stroke-miterlimit="10" d="M 263.144903 -36.672139 L 275.444935 -36.672139 L 275.444935 -20.021796 L 263.144903 -20.021796 Z M 263.144903 -36.672139 " transform="matrix(1.440545, 0, 0, -1.444227, 91.01777, 81.9082)"/>
<g fill="rgb(0%, 0%, 0%)" fill-opacity="1">
<use xlink:href="#glyph-0-0" x="476.913942" y="126.09559"/>
</g>
<path fill="none" stroke-width="0.3985" stroke-linecap="butt" stroke-linejoin="miter" stroke="rgb(100%, 0%, 0%)" stroke-opacity="1" stroke-miterlimit="10" d="M 288.165273 -56.692581 C 288.165273 -54.098741 286.061034 -51.997163 283.468699 -51.997163 C 280.873653 -51.997163 278.772126 -54.098741 278.772126 -56.692581 C 278.772126 -59.286421 280.873653 -61.390704 283.468699 -61.390704 C 286.061034 -61.390704 288.165273 -59.286421 288.165273 -56.692581 Z M 288.165273 -56.692581 " transform="matrix(1.440545, 0, 0, -1.444227, 91.01777, 81.9082)"/>
<path fill-rule="nonzero" fill="rgb(0%, 0%, 100%)" fill-opacity="1" stroke-width="0.3985" stroke-linecap="butt" stroke-linejoin="miter" stroke="rgb(0%, 0%, 100%)" stroke-opacity="1" stroke-miterlimit="10" d="M 288.165273 0.0013502 C 288.165273 2.592485 286.061034 4.696769 283.468699 4.696769 C 280.873653 4.696769 278.772126 2.592485 278.772126 0.0013502 C 278.772126 -2.59249 280.873653 -4.696773 283.468699 -4.696773 C 286.061034 -4.696773 288.165273 -2.59249 288.165273 0.0013502 Z M 288.165273 0.0013502 " transform="matrix(1.440545, 0, 0, -1.444227, 91.01777, 81.9082)"/>
<path fill-rule="nonzero" fill="rgb(100%, 100%, 100%)" fill-opacity="1" stroke-width="0.3985" stroke-linecap="butt" stroke-linejoin="miter" stroke="rgb(0%, 0%, 0%)" stroke-opacity="1" stroke-miterlimit="10" d="M 291.595506 -35.452304 L 303.686742 -35.452304 L 303.686742 -21.241631 L 291.595506 -21.241631 Z M 291.595506 -35.452304 " transform="matrix(1.440545, 0, 0, -1.444227, 91.01777, 81.9082)"/>
<g fill="rgb(0%, 0%, 0%)" fill-opacity="1">
<use xlink:href="#glyph-0-1" x="516.348861" y="124.336521"/>
</g>
<path fill-rule="nonzero" fill="rgb(0%, 0%, 100%)" fill-opacity="1" stroke-width="0.3985" stroke-linecap="butt" stroke-linejoin="miter" stroke="rgb(0%, 0%, 100%)" stroke-opacity="1" stroke-miterlimit="10" d="M 259.817711 28.346963 C 259.817711 30.940803 257.716185 33.042382 255.121138 33.042382 C 252.528803 33.042382 250.424565 30.940803 250.424565 28.346963 C 250.424565 25.753123 252.528803 23.651545 255.121138 23.651545 C 257.716185 23.651545 259.817711 25.753123 259.817711 28.346963 Z M 259.817711 28.346963 " transform="matrix(1.440545, 0, 0, -1.444227, 91.01777, 81.9082)"/>
</g>
</defs>
<use xlink:href="#source-5"/>
</svg>
