<?xml version="1.0" encoding="UTF-8"?>
<svg xmlns="http://www.w3.org/2000/svg" xmlns:xlink="http://www.w3.org/1999/xlink" width="248pt" height="105pt" viewBox="0 0 248 105"><!--latexit:AAAHLXjajVRbbBRVGD6nZyh0uey2XMt1aJebtNilIFhE2lILCF1Kt9tu21nWszNn
d4fOjZkzlO0w5jwY4oO8GVFiUEpMwBi8RIzxgSdRYwzB0hgTYpQnEmNi4qtGPbO7
1Lbw4JlM5vzf+e//dyZraapDW1qmYBUS5lXPD6WiZ4jtqKYxFMW2XFC51B+lppWK
mtlTRKZOHYDn381EwvHEUVIkSkdF6fsFNf22aVIGP4xsXLho0+YtW7c9tb2pecfT
u/c919714tETfcMjJzHJndIt6iajhqtp9xYvCUdWRwfjiR2jpOgM828lyEBU1rDj
XK+tW7ps+YqVq+pZFUNMYPNYNZvPFrAaFrq+Zu269RvEjQ2NbCFbxJawMKtlq9ka
to6tZ2Iqix2iqQZJyqZm2v26qZAkValGUpZNsJ7VSFrHeUPNqTKmvNx+BVPCy8pi
eTRvm66hHAwMhx3TtWXST87SRlBZ91pi4Z2tu5LxRN+hTimeKCkmLCyT7haRPyAC
2eLJZ/bsfXa4XIaBdZIqb4kzWDGY2NuWiieOl+qNVE2G9z9/YIg3wKG2auRZpJc7
6Ogs9bnHpZjnmyidXO04GNiVhXsvhLsPHT4yLfNkOijfZV1KHFbH6tnSTC28Jimm
7OrEoKUURmItFk172KaqrBE/JLkO4cmP4jwZ4dsgWSftldrmi5s4oog50+avQcUS
OtPCw7rjFPUs19QxLThzzwLwSWcjLs3tTXuqYfFUDbkcKOdqIjVFWrSIqKg2b4xW
5Bss2yrPVZQL2MYy5fScFSXwbeFxc1YlHlVHxx9HmmVlNnjaDcj7uKJKOVbKziuY
Vm5HgDm0qBHHD20SZ2o/opMfCkkGGZNNXceG4kmcVv5ILO1JpdpzXmPM5y67CJ+B
TXo4dtwiNqam7Umq4nv8DQX34Vi890oPW3blOFvOVg3EE9287VOJ/mR4YDA1xOWE
Ok74vHPdGs47XI7zcTW2by0zMxJhK9jKgR7TwLLJCSSlKx4mpDYuZl7iBOlS5YDv
2C5OZAIwK2cidTN4o5SpNKG0PRFvbO8sx5rMhwtqcHWpyjPo+LqY1+uSk2wtdzmq
8bBd/D5NjLYFl8Vo3dUdE/kD2OKAsqcPH2EbKuQ8J2VJXjVKTQ+GU8PX5s0i719A
Nc9ybYv3Vuz1RUkqHVY+jxRsovh9vhiYzIREjklmkJoz7SurudxTp1/WngOWfWPb
NsdGGnINTWLONvX9rc2xJk7J/bHm1vQsjfJYbZ0z2M/E/IYtcwxaHzfwck15yfcb
PIU4nNFWMAW/SVSwUyDKtHnrk+PlZ0TY/T9S2uk3zNF/lJFEODsr3eazOjOWiSyd
/sf8R46rZzJtYAGoBatBFGwDO8EecAQcAydAAowBH7wCXgMXwWVwDbwPPgA3wEfg
E/Ap+Ax8Dr4AX4KvwDfgW/AduAPugkkwBX4AP4IH4CH4DfwB/oQ1cAkU4Xa4C+6D
HTAOk3AQDsGTUIU2HIc+PA9fhRfgRfgWvATfgR/Dm/AWvA3vwPvwJ/gzfIAuoNfR
G+hNdAm9jS6j99ANdBPdQrfRHXQXTaIpdB/9gh6iX9Hv6C/0jyAI9cJaISa0CQeE
Q0Kv0CcMCicFLBQEUzgtnBXGhXPCy/P+rkbV9WViV8HKf/4smLWq1/0LEfxaCA==-->
<defs>
<g>
<g id="glyph-0-0">
<path d="M 1.6875 -10.734375 L 2.578125 -10.703125 C 2.96875 -10.671875 3.140625 -10.546875 3.140625 -10.265625 C 3.140625 -10.03125 3.078125 -9.53125 3 -9.03125 L 1.8125 -2.015625 C 1.53125 -0.546875 1.515625 -0.5 0.875 -0.453125 L 0.203125 -0.40625 L 0.140625 0.046875 L 0.828125 0.03125 C 1.484375 0.015625 1.984375 0 2.28125 0 C 2.546875 0 3.015625 0.015625 3.65625 0.03125 L 4.515625 0.046875 L 4.5625 -0.40625 L 3.515625 -0.453125 C 3.09375 -0.46875 2.9375 -0.59375 2.9375 -0.9375 C 2.9375 -1.078125 2.953125 -1.203125 3 -1.5 L 4.328125 -9.375 C 4.328125 -9.390625 4.390625 -9.703125 4.46875 -10.015625 C 4.484375 -10.09375 4.53125 -10.265625 4.578125 -10.46875 C 5.171875 -10.5625 5.421875 -10.59375 5.734375 -10.59375 C 7.375 -10.59375 8.171875 -9.890625 8.171875 -8.390625 C 8.171875 -6.640625 7 -5.21875 5.578125 -5.21875 C 5.234375 -5.21875 4.90625 -5.296875 4.3125 -5.53125 L 4.34375 -5.03125 C 4.9375 -4.734375 5.265625 -4.65625 5.734375 -4.65625 C 7.8125 -4.65625 9.59375 -6.546875 9.59375 -8.734375 C 9.59375 -10.375 8.578125 -11.234375 6.65625 -11.1875 L 4.421875 -11.125 L 2.59375 -11.15625 L 1.75 -11.1875 Z M 1.6875 -10.734375 "/>
</g>
<g id="glyph-0-1">
<path d="M 1.6875 -10.734375 L 2.59375 -10.703125 C 2.984375 -10.671875 3.15625 -10.546875 3.15625 -10.265625 C 3.15625 -10.03125 3.09375 -9.515625 3.015625 -9.03125 L 1.8125 -2.015625 C 1.546875 -0.546875 1.515625 -0.515625 0.875 -0.453125 L 0.203125 -0.40625 L 0.140625 0.046875 L 0.828125 0.03125 C 1.578125 0 1.890625 0 2.28125 0 L 3.84375 0.046875 L 4.265625 0.046875 L 4.3125 -0.40625 L 3.515625 -0.453125 C 3.078125 -0.484375 2.9375 -0.609375 2.9375 -0.9375 C 2.9375 -1.078125 2.953125 -1.234375 3 -1.5 L 4.375 -9.375 C 4.375 -9.40625 4.453125 -9.71875 4.515625 -10.015625 C 4.546875 -10.140625 4.578125 -10.265625 4.625 -10.46875 C 5.09375 -10.5625 5.421875 -10.59375 5.859375 -10.59375 C 7.265625 -10.59375 8 -9.96875 8 -8.765625 C 8 -7.234375 6.75 -6.109375 5.0625 -6.109375 L 4.359375 -6.109375 L 4.3125 -5.921875 C 6.46875 -2.78125 6.96875 -2 8.1875 0.046875 L 9.25 0 L 9.5625 0 C 9.578125 0 9.796875 0.015625 10.109375 0.046875 L 10.3125 0.046875 L 10.3125 -0.390625 C 9.671875 -0.46875 9.484375 -0.59375 9.015625 -1.28125 L 6.046875 -5.71875 C 6.9375 -5.875 7.40625 -6.078125 7.984375 -6.5 C 8.921875 -7.171875 9.421875 -8.0625 9.421875 -9.046875 C 9.421875 -10.4375 8.390625 -11.21875 6.59375 -11.1875 L 4.1875 -11.125 C 3.9375 -11.125 3.640625 -11.125 1.75 -11.1875 Z M 1.6875 -10.734375 "/>
</g>
<g id="glyph-0-2">
<path d="M 1.5625 -10.734375 L 2.421875 -10.703125 C 2.8125 -10.671875 2.984375 -10.546875 2.984375 -10.265625 C 2.984375 -10.03125 2.921875 -9.515625 2.84375 -9.03125 L 1.4375 -0.890625 C 1.375 -0.59375 1.171875 -0.484375 0.5 -0.375 L 0.421875 0.046875 L 1.015625 0.03125 C 1.453125 0 1.6875 0 1.890625 0 C 2.0625 0 2.484375 0.015625 2.90625 0.03125 L 3.5 0.046875 L 3.828125 0.0625 C 4.125 0.078125 4.34375 0.09375 4.46875 0.09375 C 5.25 0.09375 6.015625 -0.125 6.78125 -0.578125 C 8.046875 -1.34375 8.765625 -2.4375 8.765625 -3.671875 C 8.765625 -4.359375 8.53125 -4.890625 8.109375 -5.25 C 7.6875 -5.59375 7.203125 -5.734375 6.078125 -5.890625 C 7 -6.21875 7.40625 -6.40625 7.90625 -6.859375 C 8.65625 -7.5 9.015625 -8.25 9.015625 -9.078125 C 9.015625 -10.40625 8.09375 -11.1875 6.46875 -11.1875 C 6.4375 -11.1875 6.28125 -11.1875 6.03125 -11.15625 L 5.015625 -11.140625 C 4.828125 -11.125 4.25 -11.125 4.046875 -11.125 C 3.75 -11.125 3.25 -11.140625 2.453125 -11.15625 L 1.609375 -11.1875 Z M 3.5 -5.5 L 4.875 -5.5 C 6.53125 -5.5 7.34375 -4.8125 7.34375 -3.40625 C 7.34375 -1.75 6.171875 -0.546875 4.546875 -0.546875 C 4.234375 -0.546875 3.765625 -0.5625 3.234375 -0.609375 C 3.125 -0.625 2.9375 -0.640625 2.671875 -0.65625 Z M 4.390625 -10.5 C 4.5625 -10.5 4.59375 -10.515625 4.9375 -10.53125 C 5.28125 -10.5625 5.484375 -10.578125 5.6875 -10.578125 C 6.984375 -10.578125 7.640625 -10 7.640625 -8.78125 C 7.640625 -7.09375 6.4375 -6.078125 4.4375 -6.078125 L 3.59375 -6.078125 Z M 4.390625 -10.5 "/>
</g>
<g id="glyph-1-0">
<path d="M 12.15625 -4.21875 C 12.15625 -7.3125 9.625 -9.8125 6.546875 -9.8125 C 3.421875 -9.8125 0.921875 -7.28125 0.921875 -4.21875 C 0.921875 -1.109375 3.453125 1.390625 6.53125 1.390625 C 9.65625 1.390625 12.15625 -1.140625 12.15625 -4.21875 Z M 3.203125 -7.828125 C 3.15625 -7.859375 3.046875 -7.984375 3.046875 -8.015625 C 3.046875 -8.078125 4.40625 -9.40625 6.53125 -9.40625 C 7.125 -9.40625 8.671875 -9.3125 10.046875 -8.015625 L 6.546875 -4.5 Z M 2.703125 -0.6875 C 1.6875 -1.84375 1.34375 -3.140625 1.34375 -4.21875 C 1.34375 -5.515625 1.828125 -6.734375 2.703125 -7.734375 L 6.21875 -4.21875 Z M 10.34375 -7.734375 C 11.15625 -6.875 11.734375 -5.59375 11.734375 -4.21875 C 11.734375 -2.90625 11.234375 -1.6875 10.359375 -0.6875 L 6.84375 -4.21875 Z M 9.875 -0.59375 C 9.90625 -0.5625 10.03125 -0.4375 10.03125 -0.40625 C 10.03125 -0.34375 8.671875 0.984375 6.546875 0.984375 C 5.953125 0.984375 4.40625 0.890625 3.03125 -0.40625 L 6.53125 -3.921875 Z M 9.875 -0.59375 "/>
</g>
<g id="glyph-2-0">
<path d="M 3.515625 -4.703125 C 3.5625 -4.9375 3.640625 -5.21875 3.71875 -5.390625 L 3.671875 -5.484375 L 3.578125 -5.453125 C 3.28125 -5.375 3.15625 -5.359375 2.546875 -5.359375 L 2.359375 -5.359375 L 2.609375 -6.75 C 2.8125 -7.796875 3.15625 -8.265625 3.71875 -8.265625 C 4.078125 -8.265625 4.421875 -8.078125 4.59375 -7.78125 L 4.71875 -7.828125 C 4.78125 -8.03125 4.90625 -8.40625 5 -8.65625 L 5.0625 -8.84375 C 4.875 -8.921875 4.484375 -9 4.203125 -9 C 4.078125 -9 3.875 -8.96875 3.78125 -8.921875 C 3.484375 -8.78125 2.484375 -8.03125 2.203125 -7.734375 C 1.921875 -7.46875 1.78125 -7.09375 1.640625 -6.40625 L 1.453125 -5.421875 C 0.953125 -5.1875 0.71875 -5.078125 0.40625 -4.96875 L 0.34375 -4.703125 L 1.34375 -4.703125 L 1.234375 -4.015625 C 0.859375 -1.625 0.40625 0.65625 0.140625 1.515625 C -0.078125 2.234375 -0.453125 2.609375 -0.890625 2.609375 C -1.171875 2.609375 -1.3125 2.53125 -1.53125 2.265625 L -1.703125 2.3125 C -1.75 2.59375 -1.921875 3.1875 -1.984375 3.296875 C -1.875 3.359375 -1.6875 3.390625 -1.5625 3.390625 C -1.0625 3.390625 -0.390625 3.015625 0.078125 2.4375 C 0.828125 1.546875 1.109375 0.6875 2 -3.625 C 2.03125 -3.765625 2.140625 -4.234375 2.234375 -4.703125 Z M 3.515625 -4.703125 "/>
</g>
<g id="glyph-2-1">
<path d="M 4.96875 -4.671875 C 5.171875 -4.640625 5.28125 -4.640625 5.390625 -4.640625 C 5.59375 -4.640625 5.71875 -4.65625 6 -4.6875 L 6.109375 -5.25 L 6.078125 -5.3125 C 5.734375 -5.234375 5.484375 -5.203125 4.828125 -5.203125 C 4.625 -5.53125 4.5 -5.640625 4.1875 -5.765625 C 3.9375 -5.859375 3.625 -5.921875 3.375 -5.921875 C 2.875 -5.921875 2.25 -5.6875 1.71875 -5.28125 C 1.03125 -4.765625 0.671875 -4.046875 0.671875 -3.1875 C 0.671875 -2.234375 1.234375 -1.671875 2.171875 -1.671875 C 2.265625 -1.671875 2.40625 -1.671875 2.53125 -1.6875 L 2.03125 -1.21875 C 1.84375 -1.03125 1.703125 -0.8125 1.703125 -0.640625 C 1.703125 -0.515625 1.796875 -0.375 1.96875 -0.234375 C 1.03125 0.078125 0.65625 0.265625 0.203125 0.640625 C -0.21875 0.984375 -0.453125 1.46875 -0.453125 1.953125 C -0.453125 2.828125 0.40625 3.390625 1.734375 3.390625 C 3.328125 3.390625 4.703125 2.5 4.703125 1.484375 C 4.703125 1.046875 4.453125 0.609375 3.921875 0.171875 L 3.1875 -0.4375 C 2.765625 -0.765625 2.609375 -1 2.609375 -1.234375 C 2.609375 -1.34375 2.6875 -1.46875 2.875 -1.6875 C 2.90625 -1.75 2.921875 -1.75 2.9375 -1.796875 C 4.140625 -2.09375 5.015625 -3.109375 5.015625 -4.203125 C 5.015625 -4.3125 5 -4.421875 4.984375 -4.609375 Z M 3.109375 0.71875 C 3.671875 1.15625 3.90625 1.484375 3.90625 1.890625 C 3.90625 2.53125 3.046875 3.046875 2.03125 3.046875 C 1.03125 3.046875 0.328125 2.53125 0.328125 1.78125 C 0.328125 1.3125 0.546875 0.890625 0.9375 0.546875 C 1.265625 0.296875 1.53125 0.171875 2.15625 -0.015625 Z M 3.0625 -5.5 C 3.78125 -5.5 4.140625 -5.0625 4.140625 -4.1875 C 4.140625 -2.921875 3.546875 -2.0625 2.6875 -2.0625 C 1.9375 -2.0625 1.546875 -2.5625 1.546875 -3.53125 C 1.546875 -4.703125 2.171875 -5.5 3.0625 -5.5 Z M 3.0625 -5.5 "/>
</g>
<g id="glyph-3-0">
<path d="M 2.3125 -5.703125 L 2.203125 -5.765625 C 1.5625 -5.5 0.9375 -5.328125 0.28125 -5.25 L 0.28125 -4.90625 L 0.734375 -4.90625 C 1.234375 -4.90625 1.28125 -4.828125 1.28125 -4.015625 L 1.28125 -1.25 C 1.28125 -0.484375 1.234375 -0.390625 0.828125 -0.375 L 0.25 -0.328125 L 0.25 0.03125 C 1.484375 0 1.484375 0 1.796875 0 C 2.09375 0 2.09375 0 3.328125 0.03125 L 3.328125 -0.328125 L 2.765625 -0.375 C 2.34375 -0.390625 2.3125 -0.484375 2.3125 -1.25 Z M 1.734375 -8.4375 C 1.375 -8.4375 1.0625 -8.125 1.0625 -7.75 C 1.0625 -7.390625 1.375 -7.078125 1.734375 -7.078125 C 2.078125 -7.078125 2.421875 -7.390625 2.421875 -7.75 C 2.421875 -8.09375 2.078125 -8.4375 1.734375 -8.4375 Z M 1.734375 -8.4375 "/>
</g>
<g id="glyph-3-1">
<path d="M 5.03125 0.03125 C 5.78125 0 5.796875 0 6 0 C 6.171875 0 6.171875 0 7.015625 0.03125 L 7.015625 -0.328125 L 6.515625 -0.375 C 6.09375 -0.390625 6.0625 -0.46875 6.0625 -1.25 L 6.0625 -3.625 C 6.0625 -5.0625 5.390625 -5.765625 4.015625 -5.765625 C 3.5625 -5.765625 3.296875 -5.671875 3.046875 -5.453125 L 2.109375 -4.640625 L 2.109375 -5.703125 L 2 -5.765625 C 1.375 -5.5 0.734375 -5.328125 0.078125 -5.25 L 0.078125 -4.90625 L 0.546875 -4.90625 C 1.03125 -4.90625 1.078125 -4.828125 1.078125 -4.015625 L 1.078125 -1.25 C 1.078125 -0.484375 1.046875 -0.390625 0.625 -0.375 L 0.078125 -0.328125 L 0.078125 0.03125 C 0.90625 0.015625 1.234375 0 1.59375 0 C 1.953125 0 2.28125 0.015625 3.109375 0.03125 L 3.109375 -0.328125 L 2.5625 -0.375 C 2.140625 -0.390625 2.109375 -0.484375 2.109375 -1.25 L 2.109375 -3.859375 C 2.109375 -4.40625 2.921875 -5.015625 3.671875 -5.015625 C 4.484375 -5.015625 5.03125 -4.390625 5.03125 -3.453125 Z M 5.03125 0.03125 "/>
</g>
<g id="glyph-3-2">
<path d="M 2.5 -1.515625 C 2.171875 -1.40625 1.953125 -1.328125 1.296875 -1.140625 C 1.21875 -0.203125 0.90625 0.59375 0.203125 1.765625 L 0.375 1.90625 L 0.875 1.671875 C 1.859375 0.375 2.328125 -0.390625 2.671875 -1.34375 Z M 2.5 -1.515625 "/>
</g>
<g id="glyph-4-0">
<path d="M 0.65625 -5.390625 L 0.75 -5.390625 L 2 -5.953125 C 2 -5.953125 2.015625 -5.953125 2.03125 -5.953125 C 2.078125 -5.953125 2.109375 -5.875 2.109375 -5.640625 L 2.109375 -0.9375 C 2.109375 -0.421875 2 -0.3125 1.46875 -0.296875 L 0.9375 -0.265625 L 0.9375 0.03125 C 2.421875 0 2.421875 0 2.53125 0 C 2.65625 0 2.875 0 3.203125 0.015625 C 3.3125 0.015625 3.65625 0.015625 4.046875 0.03125 L 4.046875 -0.265625 L 3.546875 -0.296875 C 3.015625 -0.3125 2.921875 -0.421875 2.921875 -0.9375 L 2.921875 -6.6875 L 2.78125 -6.734375 C 2.15625 -6.40625 1.46875 -6.109375 0.578125 -5.796875 Z M 0.65625 -5.390625 "/>
</g>
<g id="glyph-4-1">
<path d="M 0.15625 -0.21875 L 0.15625 0.03125 C 1.96875 0 1.96875 0 2.3125 0 C 2.65625 0 2.65625 0 4.53125 0.03125 C 4.515625 -0.171875 4.515625 -0.265625 4.515625 -0.40625 C 4.515625 -0.53125 4.515625 -0.625 4.53125 -0.84375 C 3.421875 -0.796875 2.96875 -0.78125 1.1875 -0.75 L 2.9375 -2.625 C 3.890625 -3.625 4.171875 -4.15625 4.171875 -4.875 C 4.171875 -6 3.421875 -6.6875 2.1875 -6.6875 C 1.484375 -6.6875 1.015625 -6.484375 0.546875 -6 L 0.375 -4.6875 L 0.65625 -4.6875 L 0.78125 -5.140625 C 0.9375 -5.703125 1.28125 -5.9375 1.9375 -5.9375 C 2.765625 -5.9375 3.296875 -5.421875 3.296875 -4.59375 C 3.296875 -3.859375 2.890625 -3.140625 1.796875 -1.984375 Z M 0.15625 -0.21875 "/>
</g>
<g id="glyph-5-0">
<path d="M 3.609375 -7.890625 C 3.609375 -8.40625 3.953125 -9.21875 5.34375 -9.3125 C 5.40625 -9.328125 5.453125 -9.375 5.453125 -9.453125 C 5.453125 -9.59375 5.359375 -9.59375 5.21875 -9.59375 C 3.9375 -9.59375 2.78125 -8.9375 2.765625 -8 L 2.765625 -5.078125 C 2.765625 -4.578125 2.765625 -4.171875 2.25 -3.75 C 1.796875 -3.375 1.3125 -3.359375 1.03125 -3.34375 C 0.96875 -3.328125 0.921875 -3.28125 0.921875 -3.203125 C 0.921875 -3.078125 1 -3.078125 1.125 -3.0625 C 1.96875 -3 2.578125 -2.546875 2.71875 -1.921875 C 2.765625 -1.78125 2.765625 -1.75 2.765625 -1.296875 L 2.765625 1.234375 C 2.765625 1.78125 2.765625 2.1875 3.375 2.671875 C 3.875 3.0625 4.71875 3.203125 5.21875 3.203125 C 5.359375 3.203125 5.453125 3.203125 5.453125 3.0625 C 5.453125 2.9375 5.375 2.9375 5.25 2.921875 C 4.453125 2.859375 3.828125 2.453125 3.65625 1.796875 C 3.609375 1.6875 3.609375 1.65625 3.609375 1.203125 L 3.609375 -1.484375 C 3.609375 -2.078125 3.515625 -2.296875 3.109375 -2.703125 C 2.84375 -2.96875 2.46875 -3.09375 2.109375 -3.203125 C 3.15625 -3.5 3.609375 -4.078125 3.609375 -4.828125 Z M 3.609375 -7.890625 "/>
</g>
<g id="glyph-5-1">
<path d="M 2.765625 1.5 C 2.765625 2.015625 2.421875 2.828125 1.03125 2.921875 C 0.96875 2.9375 0.921875 2.984375 0.921875 3.0625 C 0.921875 3.203125 1.0625 3.203125 1.171875 3.203125 C 2.421875 3.203125 3.609375 2.578125 3.609375 1.59375 L 3.609375 -1.3125 C 3.609375 -1.8125 3.609375 -2.234375 4.125 -2.65625 C 4.578125 -3.015625 5.0625 -3.046875 5.34375 -3.0625 C 5.40625 -3.078125 5.453125 -3.125 5.453125 -3.203125 C 5.453125 -3.328125 5.375 -3.328125 5.25 -3.34375 C 4.40625 -3.390625 3.796875 -3.859375 3.65625 -4.484375 C 3.609375 -4.625 3.609375 -4.640625 3.609375 -5.109375 L 3.609375 -7.640625 C 3.609375 -8.171875 3.609375 -8.59375 3 -9.078125 C 2.5 -9.46875 1.609375 -9.59375 1.171875 -9.59375 C 1.0625 -9.59375 0.921875 -9.59375 0.921875 -9.453125 C 0.921875 -9.328125 1 -9.328125 1.125 -9.3125 C 1.9375 -9.265625 2.5625 -8.859375 2.71875 -8.203125 C 2.765625 -8.09375 2.765625 -8.0625 2.765625 -7.59375 L 2.765625 -4.90625 C 2.765625 -4.328125 2.859375 -4.109375 3.265625 -3.703125 C 3.546875 -3.421875 3.90625 -3.296875 4.265625 -3.203125 C 3.21875 -2.90625 2.765625 -2.3125 2.765625 -1.578125 Z M 2.765625 1.5 "/>
</g>
</g>
</defs>
<g fill="rgb(74.902344%, 0%, 25.097656%)" fill-opacity="1">
<use xlink:href="#glyph-0-0" x="119.967228" y="11.528471"/>
</g>
<g fill="rgb(100%, 0%, 0%)" fill-opacity="1">
<use xlink:href="#glyph-0-1" x="0.223443" y="93.848131"/>
</g>
<g fill="rgb(100%, 0%, 0%)" fill-opacity="1">
<use xlink:href="#glyph-0-1" x="104.342415" y="93.848131"/>
</g>
<g fill="rgb(0%, 0%, 0%)" fill-opacity="1">
<use xlink:href="#glyph-1-0" x="118.658814" y="93.848131"/>
</g>
<g fill="rgb(0%, 0%, 100%)" fill-opacity="1">
<use xlink:href="#glyph-0-2" x="135.599981" y="93.848131"/>
</g>
<g fill="rgb(0%, 0%, 100%)" fill-opacity="1">
<use xlink:href="#glyph-0-2" x="238.808492" y="93.848131"/>
</g>
<path fill="none" stroke-width="0.3985" stroke-linecap="butt" stroke-linejoin="miter" stroke="rgb(0%, 0%, 0%)" stroke-opacity="1" stroke-miterlimit="10" d="M -64.927245 -20.09391 L -8.189566 19.016313 " transform="matrix(1.620327, 0, 0, -1.622318, 124.2854, 47.79582)"/>
<path fill="none" stroke-width="0.3985" stroke-linecap="round" stroke-linejoin="round" stroke="rgb(0%, 0%, 0%)" stroke-opacity="1" stroke-miterlimit="10" d="M -2.071535 2.391408 C -1.693932 0.955412 -0.85037 0.28033 -0.000213438 0.00137594 C -0.849379 -0.278958 -1.694467 -0.956929 -2.070889 -2.390812 " transform="matrix(1.333999, -0.920698, -0.919568, -1.335638, 111.2828, 16.76336)"/>
<g fill="rgb(0%, 0%, 0%)" fill-opacity="1">
<use xlink:href="#glyph-2-0" x="55.988617" y="40.976787"/>
</g>
<path fill="none" stroke-width="0.3985" stroke-linecap="butt" stroke-linejoin="miter" stroke="rgb(0%, 0%, 0%)" stroke-opacity="1" stroke-miterlimit="10" d="M -64.927245 -25.896756 L -17.902594 -25.896756 " transform="matrix(1.620327, 0, 0, -1.622318, 124.2854, 47.79582)"/>
<path fill="none" stroke-width="0.3985" stroke-linecap="round" stroke-linejoin="round" stroke="rgb(0%, 0%, 0%)" stroke-opacity="1" stroke-miterlimit="10" d="M -2.072663 2.391388 C -1.694171 0.956328 -0.850399 0.27973 0.000606359 0.000423006 C -0.850399 -0.278884 -1.694171 -0.955482 -2.072663 -2.390542 " transform="matrix(1.620327, 0, 0, -1.622318, 95.60058, 89.80928)"/>
<g fill="rgb(0%, 0%, 0%)" fill-opacity="1">
<use xlink:href="#glyph-3-0" x="49.324212" y="102.311764"/>
<use xlink:href="#glyph-3-1" x="52.894336" y="102.311764"/>
</g>
<g fill="rgb(0%, 0%, 0%)" fill-opacity="1">
<use xlink:href="#glyph-4-0" x="60.034573" y="104.853936"/>
</g>
<path fill="none" stroke-width="0.3985" stroke-linecap="butt" stroke-linejoin="miter" stroke="rgb(0%, 0%, 0%)" stroke-opacity="1" stroke-dasharray="2.78952 1.59401" stroke-miterlimit="10" d="M 0.2795 -17.327324 L 0.2795 17.740169 " transform="matrix(1.620327, 0, 0, -1.622318, 124.2854, 47.79582)"/>
<path fill="none" stroke-width="0.3985" stroke-linecap="round" stroke-linejoin="round" stroke="rgb(0%, 0%, 0%)" stroke-opacity="1" stroke-miterlimit="10" d="M -2.071204 2.390887 C -1.693176 0.956474 -0.850439 0.279045 -0.000478482 -0.000605588 C -0.850439 -0.277845 -1.693176 -0.955274 -2.071204 -2.392098 " transform="matrix(0, -1.622318, -1.620327, 0, 124.7373, 18.69063)"/>
<path fill-rule="nonzero" fill="rgb(100%, 100%, 100%)" fill-opacity="1" d="M 105.878906 57.429688 L 143.59375 57.429688 L 143.59375 36.847656 L 105.878906 36.847656 Z M 105.878906 57.429688 "/>
<g fill="rgb(0%, 0%, 0%)" fill-opacity="1">
<use xlink:href="#glyph-5-0" x="109.81912" y="50.241845"/>
</g>
<g fill="rgb(0%, 0%, 0%)" fill-opacity="1">
<use xlink:href="#glyph-2-0" x="118.112602" y="50.241845"/>
</g>
<g fill="rgb(0%, 0%, 0%)" fill-opacity="1">
<use xlink:href="#glyph-3-2" x="123.338967" y="50.241845"/>
</g>
<g fill="rgb(0%, 0%, 0%)" fill-opacity="1">
<use xlink:href="#glyph-2-1" x="126.823156" y="50.241845"/>
</g>
<g fill="rgb(0%, 0%, 0%)" fill-opacity="1">
<use xlink:href="#glyph-5-1" x="133.26428" y="50.241845"/>
</g>
<path fill="none" stroke-width="0.3985" stroke-linecap="butt" stroke-linejoin="miter" stroke="rgb(0%, 0%, 0%)" stroke-opacity="1" stroke-miterlimit="10" d="M 65.483834 -20.267273 L 8.746155 18.989827 " transform="matrix(1.620327, 0, 0, -1.622318, 124.2854, 47.79582)"/>
<path fill="none" stroke-width="0.3985" stroke-linecap="round" stroke-linejoin="round" stroke="rgb(0%, 0%, 0%)" stroke-opacity="1" stroke-miterlimit="10" d="M -2.072681 2.389846 C -1.693776 0.956627 -0.849502 0.278755 0.000143159 -0.000105215 C -0.850893 -0.27855 -1.693278 -0.95509 -2.071742 -2.391121 " transform="matrix(-1.332411, -0.923018, -0.921885, 1.334048, 138.1915, 16.80496)"/>
<g fill="rgb(0%, 0%, 0%)" fill-opacity="1">
<use xlink:href="#glyph-2-1" x="188.690158" y="41.139019"/>
</g>
<path fill="none" stroke-width="0.3985" stroke-linecap="butt" stroke-linejoin="miter" stroke="rgb(0%, 0%, 0%)" stroke-opacity="1" stroke-miterlimit="10" d="M 65.483834 -25.896756 L 18.459183 -25.896756 " transform="matrix(1.620327, 0, 0, -1.622318, 124.2854, 47.79582)"/>
<path fill="none" stroke-width="0.3985" stroke-linecap="round" stroke-linejoin="round" stroke="rgb(0%, 0%, 0%)" stroke-opacity="1" stroke-miterlimit="10" d="M -2.071476 2.390542 C -1.692984 0.955482 -0.849211 0.278884 -0.000617159 -0.000423006 C -0.849211 -0.27973 -1.692984 -0.956328 -2.071476 -2.391388 " transform="matrix(-1.620327, 0, 0, 1.622318, 153.874, 89.80928)"/>
<g fill="rgb(0%, 0%, 0%)" fill-opacity="1">
<use xlink:href="#glyph-3-0" x="183.790289" y="102.311764"/>
<use xlink:href="#glyph-3-1" x="187.360413" y="102.311764"/>
</g>
<g fill="rgb(0%, 0%, 0%)" fill-opacity="1">
<use xlink:href="#glyph-4-1" x="194.50065" y="104.70955"/>
</g>
</svg>
