<?xml version="1.0" encoding="UTF-8"?>
<svg xmlns="http://www.w3.org/2000/svg" xmlns:xlink="http://www.w3.org/1999/xlink" width="161pt" height="144pt" viewBox="0 0 161 144"><!--latexit:AAAIv3jadVVNbBtFFJ7pLk2b0sb9A9rysyRuoDRJY6fQNm2gTlInTmOXxkm8ThzC
7O7Ynni9u9kZx3EsoxFCVQ8gEBIqcOAnXFpAFBCgqkI9UUAIVTStKhBCiAsICXHg
yoVZO02bNOxqvTNv3vfeN2++t9Yck1DW3n4drpHku9bW1av+GexSYltJP3L1LBGz
YT+zHdVva1NYZ3QLgKfemfQ1xOLHcQkboUWnq+vWD7u2zTg873t4w927mx95dM9j
e1ta2/Y9fvjI0d6B4yeHxsafQTg9lXdYYcRvFUzz2sZNDb6d/kQs3pbDJTom3otJ
Rv26iSg9t3nL1m3b77n3vh18DZe4zO/ia3kdX8fX8/pzu+5/4MGHlIcbm/gGfjff
xBv4Zr6T7+IP8Ae5omqIYpNYeES3TdsdztsGHmGEmVh1XIzymokn8ihjkTTRERPb
HTYQw2JbGtJzGdcuWEaPBxyjdsHV8TCeZU1g8brWHmgIduwficWH+rpTsXjVMe4g
HYfbFXEDH+QbF544cPDQWG0bFspjtTbENLEImD/YqcbiJ6r79a1ZaOh68qmkKABl
LrEy3Pe0CBDqrtY5WmBI8I1XV94L9Xi42uTasYZwX39kaS7IhJgYaQWGKd/Cd/Ct
k5vhqynD1gt5bLEqhfFAu8MmyshlRDdxpT5VoFiQz6EMHhdDjyydKFfLVlF2C4uh
pG1XPBZTqtbbEWWUp7SU14RnHrEsXbnmGVdbGy+w9MGJMrEcQdXSa4nSBVNhtsJK
DlYM4orCmCUxQLpLBFdFzyIX6UzIc1kWL7aD5uxlOykzkptbbtEKlDpComl6p2er
blTuCOrSla7TBU/qd8IJE7bqXspZ20m3eTbKSiZegb8pvYqn/MHY0+9G+bZ3T/Dt
/L7RWDwsCnw9PjzSMJpQk2IeJ3NYnGw6bKIMFfOYOJimo4/WNOjz8Xv4vaNR20K6
LaSSmliMMJ/qFNPJZ4UUeonuKRu5pflJz6jpk74ttynEqIlm3uhc1d50tLuWayHT
kCVekzIiGIS+ueGQfinL7xchc6ZI2ys6Zz7X6bWF1bE/HFDEDfhGT5zT/RH+UE2G
kn+3kmXMoZ379k23VQvZhhxnX9N0V2IuRGM9s1o0XiwO9gz0RMx2mpg7RqOkSNTw
bDCpDhT1/KFprc9kkfCsriXC7ag/NqWT7mM13xCNlqq+LKkO2XowVoocG0qj+IAx
GKalwd4ojZjLcWrQJmpc5OwpzoqcdoSIdz8lesfQ41rfCDlhUZLMH8rheOQJXBoo
JBMBMzJlk7G+8BzqG81FrMCh9KiXO7JqbjHPav3ddrLGYXawN1LlMKYOZdVgjgz2
3rRHb7MvcSoJTrraZ2S1RGDRP0IFjylDHQiOCU5RK+Dhi0v4YJiJ/aUREXx6Zg9E
8rGAbo15nJnnq57s6qpPaThDrKpkPcErSrPSLZ5USgyrP81KOTWDXNEmUybJK6lq
3+qu0luprZdvWSZJRWluXmaZ8kKmkOvaxfHGbGPZwMJOHE+ElRbFQDSLjRYl7dr5
rkBrsEX0eldHa3DiNlA5lUH5PBKxGx9pUfSCO4O7yllMMlnWFQg6rLICvr81sBp8
qtK4Et26OrxjORyzm7mrfh3/l8bzqyZZ4bYi3K3SpJDpZNESQgS8hUhhy7h5JqKn
ZoqTvq1LX/1bTfzezGQnWAc2g53AD/aAIDgAImAQnARxUAQV8AJ4EZwBb4Gz4H3w
IfgIfAw+BZ+BL8AFcBF8Bb4G34LvwPfgCvgBLIDr4Ab4EfwG/gB/gX/Av3A93AQV
uBfuh4dhCMbgCEzAJHwGEujCOViBp+Bp+BI8A9+Ab8K34Sfwc3gJXoZX4M/wF/gr
/E0qSs9JXHpeekE6JZ2WXpZel96WzkrnpQvSRelL6ZJ0WfpOuipdl36Sfpf+lP6W
JXmtvEv2y3vkgNwpH5FDcr98XB6Sk/K4rMmGnJazda/UvVb3Qe0DtAYu/vPOgmVX
3fn/AIee57I=-->
<defs>
<g>
<g id="glyph-0-0">
<path d="M 1.390625 -9.5625 L 2.15625 -9.53125 C 2.5 -9.515625 2.65625 -9.390625 2.65625 -9.140625 C 2.65625 -8.9375 2.59375 -8.46875 2.53125 -8.046875 L 1.28125 -0.796875 C 1.21875 -0.53125 1.046875 -0.4375 0.4375 -0.328125 L 0.375 0.046875 L 0.90625 0.03125 C 1.296875 0 1.5 0 1.6875 0 C 1.84375 0 2.21875 0.015625 2.578125 0.03125 L 3.109375 0.046875 L 3.40625 0.0625 C 3.671875 0.078125 3.859375 0.09375 3.984375 0.09375 C 4.671875 0.09375 5.359375 -0.109375 6.03125 -0.515625 C 7.171875 -1.1875 7.796875 -2.171875 7.796875 -3.265625 C 7.796875 -3.890625 7.59375 -4.359375 7.203125 -4.671875 C 6.828125 -4.984375 6.40625 -5.109375 5.40625 -5.25 C 6.234375 -5.546875 6.59375 -5.71875 7.03125 -6.109375 C 7.703125 -6.671875 8.03125 -7.359375 8.03125 -8.09375 C 8.03125 -9.265625 7.1875 -9.953125 5.765625 -9.953125 C 5.734375 -9.953125 5.578125 -9.953125 5.375 -9.9375 L 4.46875 -9.921875 C 4.296875 -9.921875 3.78125 -9.921875 3.609375 -9.921875 C 3.328125 -9.921875 2.890625 -9.921875 2.1875 -9.9375 L 1.4375 -9.953125 Z M 3.109375 -4.890625 L 4.34375 -4.890625 C 5.8125 -4.890625 6.53125 -4.28125 6.53125 -3.03125 C 6.53125 -1.546875 5.484375 -0.484375 4.046875 -0.484375 C 3.765625 -0.484375 3.34375 -0.5 2.875 -0.546875 C 2.78125 -0.5625 2.609375 -0.578125 2.390625 -0.59375 Z M 3.90625 -9.359375 C 4.0625 -9.359375 4.09375 -9.375 4.390625 -9.375 C 4.703125 -9.40625 4.875 -9.421875 5.046875 -9.421875 C 6.21875 -9.421875 6.796875 -8.90625 6.796875 -7.828125 C 6.796875 -6.3125 5.734375 -5.40625 3.953125 -5.40625 L 3.203125 -5.40625 Z M 3.90625 -9.359375 "/>
</g>
<g id="glyph-1-0">
<path d="M 0.328125 -9.515625 L 1.140625 -9.515625 C 1.390625 -9.515625 1.5 -9.359375 1.5 -8.921875 L 1.5 -1.46875 C 1.5 -0.5625 1.453125 -0.453125 0.96875 -0.4375 L 0.296875 -0.390625 L 0.296875 0.046875 C 1.734375 0 1.734375 0 2.09375 0 C 2.453125 0 2.453125 0 3.890625 0.046875 L 3.890625 -0.390625 L 3.234375 -0.4375 C 2.75 -0.453125 2.703125 -0.5625 2.703125 -1.46875 L 2.703125 -10.328125 L 2.578125 -10.453125 C 1.9375 -10.203125 1.46875 -10.09375 0.328125 -9.921875 Z M 0.328125 -9.515625 "/>
</g>
<g id="glyph-1-1">
<path d="M 2.703125 -6.6875 L 2.578125 -6.75 C 1.84375 -6.453125 1.09375 -6.25 0.328125 -6.15625 L 0.328125 -5.75 L 0.859375 -5.75 C 1.4375 -5.75 1.5 -5.65625 1.5 -4.703125 L 1.5 -1.46875 C 1.5 -0.5625 1.453125 -0.453125 0.96875 -0.4375 L 0.296875 -0.390625 L 0.296875 0.046875 C 1.734375 0 1.734375 0 2.09375 0 C 2.453125 0 2.453125 0 3.890625 0.046875 L 3.890625 -0.390625 L 3.234375 -0.4375 C 2.75 -0.453125 2.703125 -0.5625 2.703125 -1.46875 Z M 2.03125 -9.890625 C 1.609375 -9.890625 1.234375 -9.515625 1.234375 -9.078125 C 1.234375 -8.65625 1.609375 -8.28125 2.03125 -8.28125 C 2.4375 -8.28125 2.828125 -8.65625 2.828125 -9.078125 C 2.828125 -9.484375 2.4375 -9.890625 2.03125 -9.890625 Z M 2.03125 -9.890625 "/>
</g>
<g id="glyph-1-2">
<path d="M 0.265625 -5.75 L 0.796875 -5.75 C 1.359375 -5.75 1.421875 -5.65625 1.421875 -4.703125 L 1.421875 -1.46875 C 1.421875 -0.5625 1.375 -0.453125 0.890625 -0.4375 L 0.234375 -0.390625 L 0.234375 0.046875 C 1.609375 0 1.65625 0 2.046875 0 C 2.453125 0 2.828125 0.015625 3.765625 0.046875 L 3.765625 -0.390625 L 3.15625 -0.4375 C 2.671875 -0.453125 2.625 -0.5625 2.625 -1.46875 L 2.625 -4.515625 C 2.625 -5.171875 3.578125 -5.875 4.4375 -5.875 C 5.21875 -5.875 5.75 -5.140625 5.75 -4.046875 L 5.75 -1.46875 C 5.75 -0.5625 5.703125 -0.453125 5.21875 -0.4375 L 4.546875 -0.390625 L 4.546875 0.046875 C 5.984375 0 5.984375 0 6.34375 0 C 6.703125 0 6.703125 0 8.140625 0.046875 L 8.140625 -0.390625 L 7.484375 -0.4375 C 7 -0.453125 6.953125 -0.5625 6.953125 -1.46875 L 6.953125 -4.515625 C 6.953125 -5.171875 7.890625 -5.875 8.765625 -5.875 C 9.53125 -5.875 10.0625 -5.140625 10.0625 -4.046875 L 10.0625 0.046875 C 10.9375 0 10.953125 0 11.203125 0 C 11.390625 0 11.390625 0 12.484375 0.046875 L 12.484375 -0.390625 L 11.796875 -0.4375 C 11.3125 -0.453125 11.265625 -0.5625 11.265625 -1.46875 L 11.265625 -4.4375 C 11.265625 -5.859375 10.4375 -6.75 9.125 -6.75 C 8.609375 -6.75 8.203125 -6.625 7.9375 -6.390625 L 6.84375 -5.40625 C 6.390625 -6.359375 5.796875 -6.75 4.8125 -6.75 C 4.28125 -6.75 3.875 -6.625 3.625 -6.390625 L 2.625 -5.46875 L 2.625 -6.6875 L 2.5 -6.75 C 1.765625 -6.453125 1.015625 -6.25 0.265625 -6.15625 Z M 0.265625 -5.75 "/>
</g>
<g id="glyph-2-0">
<path d="M 13.59375 -3.453125 C 13.859375 -3.453125 14.125 -3.453125 14.125 -3.75 C 14.125 -4.046875 13.859375 -4.046875 13.59375 -4.046875 L 2.46875 -4.046875 C 3.296875 -4.671875 3.703125 -5.296875 3.8125 -5.484375 C 4.484375 -6.515625 4.609375 -7.46875 4.609375 -7.484375 C 4.609375 -7.65625 4.4375 -7.65625 4.3125 -7.65625 C 4.0625 -7.65625 4.046875 -7.625 3.984375 -7.359375 C 3.640625 -5.890625 2.75 -4.640625 1.0625 -3.9375 C 0.890625 -3.875 0.84375 -3.84375 0.84375 -3.75 C 0.84375 -3.640625 0.90625 -3.609375 1.0625 -3.546875 C 2.625 -2.90625 3.625 -1.734375 4 -0.0625 C 4.046875 0.125 4.0625 0.171875 4.3125 0.171875 C 4.4375 0.171875 4.609375 0.171875 4.609375 -0.015625 C 4.609375 -0.046875 4.46875 -0.984375 3.84375 -2 C 3.546875 -2.4375 3.109375 -2.96875 2.46875 -3.453125 Z M 13.59375 -3.453125 "/>
</g>
<g id="glyph-2-1">
<path d="M 9.859375 -3.453125 C 10.125 -3.453125 10.390625 -3.453125 10.390625 -3.75 C 10.390625 -4.046875 10.125 -4.046875 9.859375 -4.046875 L 1.765625 -4.046875 C 1.515625 -4.046875 1.25 -4.046875 1.25 -3.75 C 1.25 -3.453125 1.515625 -3.453125 1.765625 -3.453125 Z M 9.859375 -3.453125 "/>
</g>
<g id="glyph-3-0">
<path d="M 12.1875 -8.109375 C 12.1875 -8.15625 12.140625 -8.21875 12.078125 -8.21875 C 11.828125 -8.21875 11.609375 -8.171875 11.359375 -8.109375 C 10.953125 -9.375 9.828125 -10.1875 7.890625 -10.1875 C 6.21875 -10.1875 3.9375 -9.203125 2.84375 -7.625 C 2.25 -6.8125 1.953125 -6 1.953125 -5.359375 C 1.953125 -4.484375 2.5 -3.921875 3.640625 -3.921875 C 4.65625 -3.921875 6 -4.921875 6.734375 -5.96875 C 7.203125 -6.65625 7.484375 -7.3125 7.484375 -7.875 C 7.484375 -7.9375 7.484375 -8.015625 7.46875 -8.078125 C 7.453125 -8.125 7.40625 -8.171875 7.359375 -8.171875 L 7.328125 -8.171875 C 7.296875 -8.171875 7.25 -8.15625 7.21875 -8.140625 C 7.171875 -8.125 7.140625 -8.09375 7.140625 -8.03125 C 7.140625 -7.484375 6.875 -6.828125 6.390625 -6.109375 C 5.703125 -5.140625 4.515625 -4.234375 3.6875 -4.234375 C 2.96875 -4.234375 2.625 -4.609375 2.625 -5.1875 C 2.625 -5.78125 2.96875 -6.609375 3.59375 -7.484375 C 4.546875 -8.828125 6.46875 -9.875 7.84375 -9.875 C 9.578125 -9.875 10.59375 -9.140625 10.9375 -7.9375 C 9.5 -7.296875 8.0625 -5.59375 6.96875 -4.0625 C 5.953125 -2.640625 4.859375 -1.078125 3.953125 -0.421875 C 3.609375 -0.5625 3.234375 -0.6875 2.765625 -0.6875 L 2.65625 -0.6875 C 2.09375 -0.6875 1.25 -0.671875 0.96875 -0.28125 C 0.921875 -0.234375 0.90625 -0.1875 0.90625 -0.140625 C 0.90625 0.203125 1.96875 0.25 2.625 0.25 L 3.09375 0.25 C 3.4375 0.25 3.78125 0.15625 4.125 0.015625 C 4.578125 0.21875 5.03125 0.453125 5.625 0.453125 C 5.9375 0.453125 6.296875 0.390625 6.703125 0.234375 C 8.34375 -0.359375 9.65625 -1.890625 10.390625 -3.265625 C 11.125 -4.625 11.515625 -5.890625 11.515625 -6.96875 C 11.515625 -7.21875 11.484375 -7.484375 11.4375 -7.71875 C 11.640625 -7.828125 11.84375 -7.90625 12.015625 -7.90625 C 12.0625 -7.90625 12.09375 -7.921875 12.125 -7.9375 C 12.140625 -8 12.1875 -8.046875 12.1875 -8.109375 Z M 10.015625 -3.375 C 9.34375 -2.078125 8.1875 -0.640625 6.6875 -0.078125 C 6.296875 0.078125 5.96875 0.125 5.671875 0.125 C 5.21875 0.125 4.859375 0 4.5 -0.15625 C 5.84375 -0.890625 7.1875 -2.46875 8.203125 -3.921875 C 9.140625 -5.265625 10.171875 -6.703125 11.046875 -7.421875 C 11.0625 -7.265625 11.078125 -7.109375 11.078125 -6.953125 C 11.078125 -5.921875 10.71875 -4.703125 10.015625 -3.375 Z M 3.140625 -0.09375 C 1.859375 -0.09375 1.734375 -0.171875 1.71875 -0.15625 C 1.859375 -0.34375 2.25 -0.359375 2.734375 -0.359375 C 3.0625 -0.359375 3.34375 -0.296875 3.609375 -0.203125 C 3.453125 -0.125 3.28125 -0.09375 3.140625 -0.09375 Z M 3.140625 -0.09375 "/>
</g>
<g id="glyph-4-0">
<path d="M 0.375 -4.25 L 0.453125 -4.03125 L 0.796875 -4.25 C 1.203125 -4.5 1.234375 -4.53125 1.3125 -4.53125 C 1.421875 -4.53125 1.5 -4.421875 1.5 -4.28125 C 1.5 -4.203125 1.46875 -3.953125 1.421875 -3.796875 L 0.703125 -1.171875 C 0.609375 -0.828125 0.5625 -0.53125 0.5625 -0.328125 C 0.5625 -0.0625 0.671875 0.09375 0.890625 0.09375 C 1.171875 0.09375 1.5625 -0.125 2.625 -0.921875 L 2.515625 -1.125 L 2.234375 -0.9375 C 1.921875 -0.734375 1.671875 -0.609375 1.578125 -0.609375 C 1.5 -0.609375 1.4375 -0.71875 1.4375 -0.828125 C 1.4375 -0.9375 1.453125 -1.03125 1.5 -1.265625 L 2.34375 -4.59375 C 2.390625 -4.78125 2.40625 -4.90625 2.40625 -4.984375 C 2.40625 -5.171875 2.3125 -5.265625 2.140625 -5.265625 C 1.90625 -5.265625 1.5 -5.046875 0.671875 -4.46875 Z M 2.484375 -7.78125 C 2.171875 -7.78125 1.859375 -7.421875 1.859375 -7.046875 C 1.859375 -6.78125 2.015625 -6.609375 2.28125 -6.609375 C 2.625 -6.609375 2.890625 -6.921875 2.890625 -7.34375 C 2.890625 -7.59375 2.71875 -7.78125 2.484375 -7.78125 Z M 2.484375 -7.78125 "/>
</g>
<g id="glyph-4-1">
<path d="M -0.765625 2.9375 C -0.65625 3 -0.515625 3.015625 -0.34375 3.015625 C 0.09375 3.015625 0.53125 2.546875 0.921875 1.65625 C 1.140625 1.171875 1.28125 0.625 1.59375 -0.765625 L 2.421875 -4.59375 C 2.46875 -4.796875 2.484375 -4.9375 2.484375 -5 C 2.484375 -5.171875 2.390625 -5.265625 2.21875 -5.265625 C 1.984375 -5.265625 1.578125 -5.046875 0.75 -4.46875 L 0.453125 -4.25 L 0.53125 -4.03125 L 0.875 -4.25 C 1.28125 -4.5 1.3125 -4.53125 1.390625 -4.53125 C 1.5 -4.53125 1.578125 -4.421875 1.578125 -4.28125 C 1.578125 -4.234375 1.5625 -4.09375 1.53125 -3.96875 C 1.515625 -3.90625 1.5 -3.859375 1.5 -3.84375 L 0.421875 1.578125 C 0.296875 2.140625 0.09375 2.53125 -0.09375 2.53125 C -0.25 2.53125 -0.453125 2.453125 -0.671875 2.3125 Z M 2.5 -7.78125 C 2.1875 -7.78125 1.875 -7.421875 1.875 -7.046875 C 1.875 -6.78125 2.03125 -6.609375 2.296875 -6.609375 C 2.625 -6.609375 2.890625 -6.921875 2.890625 -7.34375 C 2.890625 -7.59375 2.734375 -7.78125 2.5 -7.78125 Z M 2.5 -7.78125 "/>
</g>
<g id="glyph-4-2">
<path d="M 2.578125 -7.890625 L 2.453125 -8.015625 C 1.875 -7.734375 1.484375 -7.640625 0.703125 -7.5625 L 0.65625 -7.328125 L 1.171875 -7.328125 C 1.4375 -7.328125 1.546875 -7.25 1.546875 -7.0625 C 1.546875 -6.984375 1.546875 -6.875 1.53125 -6.796875 L 1.078125 -4.25 C 0.765625 -2.59375 0.34375 -0.703125 0.109375 -0.015625 L 0.1875 0.09375 L 0.9375 -0.078125 C 1.109375 -1.328125 1.296875 -2 1.609375 -2.578125 C 2.09375 -3.46875 3.234375 -4.53125 3.6875 -4.53125 C 3.828125 -4.53125 3.9375 -4.421875 3.9375 -4.28125 C 3.9375 -4.09375 3.859375 -3.671875 3.765625 -3.3125 L 3.21875 -1.171875 C 3.109375 -0.78125 3.0625 -0.53125 3.0625 -0.328125 C 3.0625 -0.0625 3.1875 0.09375 3.390625 0.09375 C 3.6875 0.09375 4.078125 -0.125 5.140625 -0.921875 L 5.03125 -1.125 L 4.75 -0.9375 C 4.4375 -0.734375 4.1875 -0.609375 4.078125 -0.609375 C 4.015625 -0.609375 3.9375 -0.703125 3.9375 -0.828125 C 3.9375 -0.9375 3.953125 -1.03125 4.015625 -1.265625 L 4.71875 -4.0625 C 4.78125 -4.359375 4.84375 -4.6875 4.84375 -4.875 C 4.84375 -5.125 4.71875 -5.265625 4.515625 -5.265625 C 4.15625 -5.265625 3.484375 -4.90625 2.796875 -4.328125 C 2.40625 -4.015625 2.234375 -3.8125 1.71875 -3.171875 L 1.5 -2.890625 Z M 2.578125 -7.890625 "/>
</g>
<g id="glyph-5-0">
<path d="M 0.859375 -3.015625 C 1 -3.484375 1.28125 -4.03125 1.65625 -4.390625 C 1.796875 -4.53125 2.125 -4.78125 2.40625 -4.78125 C 2.984375 -4.78125 3.3125 -4.328125 3.421875 -4.078125 C 3.828125 -3.109375 3.90625 -2.546875 3.90625 -1.5625 C 3.75 -0.921875 3.578125 -0.265625 3.453125 0.375 L 3.046875 2.375 L 3.390625 2.46875 C 3.578125 2.3125 3.75 2.09375 3.96875 1.984375 L 4.265625 0.109375 C 4.34375 -0.640625 4.625 -1.46875 4.890625 -2.078125 C 5.203125 -2.75 5.75 -3.4375 5.984375 -3.5 C 6.0625 -3.515625 6.078125 -3.546875 6.09375 -3.578125 C 6.109375 -3.671875 6.15625 -3.890625 6.484375 -4.328125 C 6.359375 -4.390625 6.359375 -4.546875 6.296875 -4.546875 C 5.859375 -4.4375 4.984375 -3.328125 4.40625 -1.9375 C 4.390625 -2.625 4.34375 -2.9375 4.265625 -3.265625 C 4.109375 -3.90625 3.90625 -4.3125 3.65625 -4.640625 C 3.25 -5.203125 2.765625 -5.265625 2.453125 -5.265625 C 2.171875 -5.265625 1.734375 -5.1875 1.171875 -4.6875 C 0.96875 -4.515625 0.40625 -3.875 0.234375 -3.5 C 0.390625 -3.296875 0.453125 -3.171875 0.5625 -2.96875 Z M 0.859375 -3.015625 "/>
</g>
<g id="glyph-5-1">
<path d="M 0.265625 -4.25 L 0.34375 -4.03125 L 0.828125 -4.34375 C 1.046875 -4.484375 1.140625 -4.53125 1.203125 -4.53125 C 1.328125 -4.53125 1.390625 -4.421875 1.390625 -4.25 C 1.390625 -3.6875 0.953125 -1.59375 0.5 -0.015625 L 0.578125 0.09375 C 0.859375 0.015625 1.109375 -0.046875 1.34375 -0.09375 C 1.546875 -1.46875 1.78125 -2.171875 2.28125 -2.9375 C 2.890625 -3.84375 3.6875 -4.53125 4.1875 -4.53125 C 4.296875 -4.53125 4.375 -4.4375 4.375 -4.265625 C 4.375 -4.0625 4.34375 -3.84375 4.25 -3.484375 L 2.75 2.4375 C 2.703125 2.609375 2.59375 2.75 2.515625 2.859375 L 2.609375 3.015625 C 2.953125 2.9375 3.28125 2.859375 3.546875 2.828125 C 3.578125 2.515625 3.59375 2.3125 3.65625 2.046875 L 5.140625 -4.078125 C 5.234375 -4.390625 5.28125 -4.6875 5.28125 -4.890625 C 5.28125 -5.125 5.15625 -5.265625 4.953125 -5.265625 C 4.484375 -5.265625 3.75 -4.875 3.125 -4.28125 C 2.703125 -3.90625 2.375 -3.515625 1.796875 -2.703125 L 2.203125 -4.46875 C 2.25 -4.671875 2.265625 -4.796875 2.265625 -4.90625 C 2.265625 -5.140625 2.1875 -5.265625 2.015625 -5.265625 C 1.796875 -5.265625 1.375 -5.046875 0.5625 -4.46875 Z M 0.265625 -4.25 "/>
</g>
<g id="glyph-6-0">
<path d="M 0.296875 -3.34375 L 0.359375 -3.171875 L 0.625 -3.359375 C 0.953125 -3.546875 0.96875 -3.578125 1.03125 -3.578125 C 1.125 -3.578125 1.1875 -3.484375 1.1875 -3.375 C 1.1875 -3.3125 1.15625 -3.109375 1.125 -3 L 0.546875 -0.921875 C 0.484375 -0.65625 0.4375 -0.421875 0.4375 -0.265625 C 0.4375 -0.046875 0.53125 0.078125 0.703125 0.078125 C 0.921875 0.078125 1.234375 -0.109375 2.078125 -0.734375 L 2 -0.890625 L 1.765625 -0.734375 C 1.515625 -0.578125 1.3125 -0.484375 1.234375 -0.484375 C 1.1875 -0.484375 1.125 -0.5625 1.125 -0.65625 C 1.125 -0.734375 1.140625 -0.8125 1.1875 -1 L 1.859375 -3.625 C 1.890625 -3.765625 1.90625 -3.859375 1.90625 -3.9375 C 1.90625 -4.078125 1.828125 -4.15625 1.6875 -4.15625 C 1.5 -4.15625 1.1875 -3.96875 0.53125 -3.515625 Z M 1.96875 -6.140625 C 1.71875 -6.140625 1.46875 -5.859375 1.46875 -5.5625 C 1.46875 -5.34375 1.59375 -5.203125 1.796875 -5.203125 C 2.0625 -5.203125 2.28125 -5.453125 2.28125 -5.78125 C 2.28125 -6 2.140625 -6.140625 1.96875 -6.140625 Z M 1.96875 -6.140625 "/>
</g>
<g id="glyph-6-1">
<path d="M -0.609375 2.3125 C -0.515625 2.359375 -0.40625 2.375 -0.28125 2.375 C 0.0625 2.375 0.40625 2.015625 0.71875 1.3125 C 0.890625 0.921875 1.015625 0.484375 1.265625 -0.609375 L 1.921875 -3.625 C 1.953125 -3.78125 1.96875 -3.890625 1.96875 -3.9375 C 1.96875 -4.078125 1.890625 -4.15625 1.75 -4.15625 C 1.5625 -4.15625 1.234375 -3.96875 0.59375 -3.515625 L 0.359375 -3.34375 L 0.40625 -3.171875 L 0.6875 -3.359375 C 1.015625 -3.546875 1.03125 -3.578125 1.09375 -3.578125 C 1.1875 -3.578125 1.25 -3.484375 1.25 -3.375 C 1.25 -3.34375 1.234375 -3.21875 1.203125 -3.125 C 1.203125 -3.078125 1.1875 -3.046875 1.1875 -3.03125 L 0.328125 1.234375 C 0.234375 1.6875 0.078125 2 -0.078125 2 C -0.203125 2 -0.359375 1.9375 -0.53125 1.828125 Z M 1.96875 -6.140625 C 1.71875 -6.140625 1.46875 -5.859375 1.46875 -5.5625 C 1.46875 -5.34375 1.609375 -5.203125 1.8125 -5.203125 C 2.078125 -5.203125 2.28125 -5.453125 2.28125 -5.78125 C 2.28125 -6 2.15625 -6.140625 1.96875 -6.140625 Z M 1.96875 -6.140625 "/>
</g>
<g id="glyph-7-0">
<path d="M 9.75 -6.484375 C 9.75 -6.53125 9.71875 -6.578125 9.65625 -6.578125 C 9.46875 -6.578125 9.28125 -6.546875 9.078125 -6.484375 C 8.765625 -7.515625 7.859375 -8.15625 6.3125 -8.15625 C 4.96875 -8.15625 3.140625 -7.359375 2.28125 -6.109375 C 1.796875 -5.453125 1.5625 -4.796875 1.5625 -4.28125 C 1.5625 -3.59375 2 -3.125 2.90625 -3.125 C 3.71875 -3.125 4.796875 -3.9375 5.390625 -4.78125 C 5.765625 -5.3125 5.984375 -5.84375 5.984375 -6.296875 C 5.984375 -6.359375 5.984375 -6.421875 5.96875 -6.453125 C 5.953125 -6.5 5.921875 -6.546875 5.875 -6.546875 L 5.859375 -6.546875 C 5.828125 -6.546875 5.796875 -6.53125 5.78125 -6.515625 C 5.734375 -6.5 5.703125 -6.46875 5.703125 -6.421875 C 5.703125 -5.984375 5.5 -5.453125 5.109375 -4.890625 C 4.5625 -4.109375 3.625 -3.390625 2.953125 -3.390625 C 2.375 -3.390625 2.109375 -3.6875 2.109375 -4.15625 C 2.109375 -4.625 2.375 -5.28125 2.875 -5.984375 C 3.640625 -7.078125 5.171875 -7.90625 6.265625 -7.90625 C 7.65625 -7.90625 8.46875 -7.3125 8.75 -6.359375 C 7.609375 -5.84375 6.4375 -4.484375 5.5625 -3.25 C 4.765625 -2.109375 3.875 -0.859375 3.15625 -0.328125 C 2.875 -0.453125 2.578125 -0.546875 2.21875 -0.546875 L 2.125 -0.546875 C 1.671875 -0.546875 1 -0.546875 0.765625 -0.234375 C 0.734375 -0.1875 0.71875 -0.15625 0.71875 -0.109375 C 0.71875 0.15625 1.578125 0.203125 2.109375 0.203125 L 2.46875 0.203125 C 2.75 0.203125 3.015625 0.125 3.296875 0.015625 C 3.65625 0.171875 4.015625 0.359375 4.5 0.359375 C 4.75 0.359375 5.03125 0.3125 5.359375 0.1875 C 6.671875 -0.28125 7.71875 -1.515625 8.3125 -2.609375 C 8.90625 -3.703125 9.203125 -4.703125 9.203125 -5.578125 C 9.203125 -5.78125 9.1875 -5.984375 9.15625 -6.171875 C 9.3125 -6.265625 9.46875 -6.328125 9.609375 -6.328125 C 9.640625 -6.328125 9.671875 -6.328125 9.6875 -6.359375 C 9.71875 -6.40625 9.75 -6.4375 9.75 -6.484375 Z M 8.015625 -2.703125 C 7.46875 -1.65625 6.546875 -0.515625 5.359375 -0.0625 C 5.046875 0.0625 4.78125 0.109375 4.53125 0.109375 C 4.171875 0.109375 3.875 0 3.59375 -0.125 C 4.671875 -0.71875 5.75 -1.984375 6.5625 -3.125 C 7.3125 -4.21875 8.125 -5.359375 8.828125 -5.9375 C 8.84375 -5.8125 8.859375 -5.6875 8.859375 -5.5625 C 8.859375 -4.75 8.5625 -3.765625 8.015625 -2.703125 Z M 2.515625 -0.0625 C 1.484375 -0.0625 1.390625 -0.140625 1.375 -0.125 C 1.484375 -0.28125 1.796875 -0.28125 2.1875 -0.28125 C 2.453125 -0.28125 2.671875 -0.234375 2.875 -0.15625 C 2.75 -0.109375 2.625 -0.0625 2.515625 -0.0625 Z M 2.515625 -0.0625 "/>
</g>
<g id="glyph-8-0">
<path d="M 4.1875 -0.84375 C 3.859375 -0.578125 3.65625 -0.515625 3.515625 -0.515625 C 3.390625 -0.515625 3.28125 -0.53125 3.203125 -0.703125 C 3.125 -0.859375 3.015625 -1.21875 2.96875 -1.484375 C 2.953125 -1.625 2.9375 -1.765625 2.921875 -1.890625 C 3.171875 -2.234375 3.421875 -2.609375 3.546875 -2.796875 C 3.671875 -2.984375 4 -3.5 4.046875 -3.671875 C 4 -3.765625 3.953125 -3.84375 3.90625 -3.96875 C 3.875 -4 3.8125 -4.015625 3.78125 -4.03125 C 3.578125 -3.328125 3.46875 -3.078125 3.140625 -2.5625 C 3.109375 -2.515625 2.96875 -2.296875 2.875 -2.15625 C 2.71875 -3.1875 2.6875 -3.4375 2.625 -3.734375 C 2.546875 -4.125 2.3125 -4.15625 2.125 -4.15625 C 1.9375 -4.15625 1.65625 -4 1.375 -3.734375 C 1.171875 -3.546875 1 -3.328125 0.84375 -3.046875 C 0.46875 -2.28125 0.1875 -1.265625 0.1875 -0.5625 C 0.1875 -0.28125 0.3125 0.09375 0.515625 0.09375 C 0.859375 0.09375 1.125 -0.078125 1.390625 -0.28125 C 1.765625 -0.59375 2.140625 -0.96875 2.421875 -1.28125 C 2.515625 -0.375 2.765625 0.09375 3.09375 0.09375 C 3.28125 0.09375 3.546875 -0.046875 3.84375 -0.296875 L 4.265625 -0.6875 Z M 2.375 -1.546875 C 2.125 -1.25 1.875 -0.984375 1.671875 -0.8125 C 1.390625 -0.59375 1.15625 -0.515625 1 -0.515625 C 0.890625 -0.515625 0.84375 -0.625 0.84375 -0.859375 C 0.84375 -1.40625 0.984375 -2.34375 1.265625 -3.046875 C 1.375 -3.34375 1.59375 -3.59375 1.78125 -3.59375 C 2.03125 -3.59375 2.125 -3.4375 2.1875 -3.046875 Z M 2.375 -1.546875 "/>
</g>
</g>
<clipPath id="clip-0">
<rect x="0" y="0" width="161" height="144"/>
</clipPath>
<g id="source-5" clip-path="url(#clip-0)">
<g fill="rgb(0%, 0%, 0%)" fill-opacity="1">
<use xlink:href="#glyph-0-0" x="76.136761" y="10.261752"/>
</g>
<g fill="rgb(0%, 0%, 0%)" fill-opacity="1">
<use xlink:href="#glyph-1-0" x="62.42677" y="84.066599"/>
<use xlink:href="#glyph-1-1" x="66.60669" y="84.066599"/>
<use xlink:href="#glyph-1-2" x="70.786611" y="84.066599"/>
</g>
<g fill="rgb(0%, 0%, 0%)" fill-opacity="1">
<use xlink:href="#glyph-2-0" x="62.606994" y="91.792057"/>
<use xlink:href="#glyph-2-1" x="71.662257" y="91.792057"/>
</g>
<g fill="rgb(0%, 0%, 0%)" fill-opacity="1">
<use xlink:href="#glyph-3-0" x="85.864525" y="84.066599"/>
</g>
<g fill="rgb(0%, 0%, 0%)" fill-opacity="1">
<use xlink:href="#glyph-3-0" x="-0.668887" y="137.78814"/>
</g>
<g fill="rgb(0%, 0%, 0%)" fill-opacity="1">
<use xlink:href="#glyph-4-0" x="10.515085" y="140.618401"/>
</g>
<g fill="rgb(0%, 0%, 0%)" fill-opacity="1">
<use xlink:href="#glyph-3-0" x="146.281335" y="137.78814"/>
</g>
<g fill="rgb(0%, 0%, 0%)" fill-opacity="1">
<use xlink:href="#glyph-4-1" x="157.923797" y="140.618401"/>
</g>
<path fill="none" stroke-width="0.3985" stroke-linecap="butt" stroke-linejoin="miter" stroke="rgb(0%, 0%, 0%)" stroke-opacity="1" stroke-dasharray="2.78952 1.59401" stroke-miterlimit="10" d="M -0.133767 38.524446 L -0.133767 3.455028 " transform="matrix(1.441791, 0, 0, -1.444011, 80.57177, 71.97738)"/>
<path fill="none" stroke-width="0.3985" stroke-linecap="round" stroke-linejoin="round" stroke="rgb(0%, 0%, 0%)" stroke-opacity="1" stroke-miterlimit="10" d="M -2.070901 2.39105 C -1.694887 0.955119 -0.850883 0.277793 0.00123527 -0.00126492 C -0.850883 -0.277614 -1.694887 -0.957649 -2.070901 -2.390871 " transform="matrix(0, 1.444011, 1.441791, 0, 80.38073, 67.27556)"/>
<path fill-rule="nonzero" fill="rgb(100%, 100%, 100%)" fill-opacity="1" d="M 74.121094 49.359375 L 86.640625 49.359375 L 86.640625 34.550781 L 74.121094 34.550781 Z M 74.121094 49.359375 "/>
<g fill="rgb(0%, 0%, 0%)" fill-opacity="1">
<use xlink:href="#glyph-4-2" x="77.679477" y="45.88406"/>
</g>
<path fill="none" stroke-width="0.3985" stroke-linecap="butt" stroke-linejoin="miter" stroke="rgb(0%, 0%, 0%)" stroke-opacity="1" stroke-miterlimit="10" d="M -7.714399 38.524446 C -28.324074 20.294516 -43.612676 -6.199612 -49.258865 -34.040899 " transform="matrix(1.441791, 0, 0, -1.444011, 80.57177, 71.97738)"/>
<path fill="none" stroke-width="0.3985" stroke-linecap="round" stroke-linejoin="round" stroke="rgb(0%, 0%, 0%)" stroke-opacity="1" stroke-miterlimit="10" d="M -2.072161 2.391209 C -1.692692 0.955949 -0.848613 0.278437 0.0000936918 -0.0000351368 C -0.848511 -0.279991 -1.693789 -0.957374 -2.070927 -2.391292 " transform="matrix(-0.286614, 1.415131, 1.412955, 0.287055, 9.492264, 121.41394)"/>
<g fill="rgb(0%, 0%, 0%)" fill-opacity="1">
<use xlink:href="#glyph-5-0" x="17.768736" y="57.473692"/>
</g>
<g fill="rgb(0%, 0%, 0%)" fill-opacity="1">
<use xlink:href="#glyph-6-0" x="24.458646" y="59.853422"/>
</g>
<path fill="none" stroke-width="0.3985" stroke-linecap="butt" stroke-linejoin="miter" stroke="rgb(0%, 0%, 0%)" stroke-opacity="1" stroke-miterlimit="10" d="M 7.463121 38.524446 C 28.099889 20.305337 43.426422 -6.186086 49.11596 -34.040899 " transform="matrix(1.441791, 0, 0, -1.444011, 80.57177, 71.97738)"/>
<path fill="none" stroke-width="0.3985" stroke-linecap="round" stroke-linejoin="round" stroke="rgb(0%, 0%, 0%)" stroke-opacity="1" stroke-miterlimit="10" d="M -2.07129 2.390637 C -1.693403 0.955656 -0.848472 0.279794 -0.000227218 -0.00129425 C -0.849316 -0.278641 -1.694308 -0.95504 -2.07304 -2.390356 " transform="matrix(0.288488, 1.414727, 1.412552, -0.288932, 151.4433, 121.41401)"/>
<g fill="rgb(0%, 0%, 0%)" fill-opacity="1">
<use xlink:href="#glyph-5-0" x="133.246102" y="55.164718"/>
</g>
<g fill="rgb(0%, 0%, 0%)" fill-opacity="1">
<use xlink:href="#glyph-6-1" x="140.297902" y="57.545892"/>
</g>
<path fill="none" stroke-width="0.3985" stroke-linecap="butt" stroke-linejoin="miter" stroke="rgb(0%, 0%, 0%)" stroke-opacity="1" stroke-miterlimit="10" d="M -15.219171 -16.89573 L -40.645988 -35.458392 " transform="matrix(1.441791, 0, 0, -1.444011, 80.57177, 71.97738)"/>
<path fill="none" stroke-width="0.3985" stroke-linecap="round" stroke-linejoin="round" stroke="rgb(0%, 0%, 0%)" stroke-opacity="1" stroke-miterlimit="10" d="M -2.071279 2.390645 C -1.693132 0.9557 -0.8487 0.27896 0.00113247 0.000204354 C -0.850288 -0.27923 -1.693569 -0.956484 -2.07317 -2.390908 " transform="matrix(-1.164463, 0.851389, 0.85008, 1.166256, 21.73552, 123.35036)"/>
<g fill="rgb(0%, 0%, 0%)" fill-opacity="1">
<use xlink:href="#glyph-5-1" x="27.366739" y="103.263281"/>
</g>
<g fill="rgb(0%, 0%, 0%)" fill-opacity="1">
<use xlink:href="#glyph-6-0" x="33.128135" y="105.643011"/>
</g>
<path fill="none" stroke-width="0.3985" stroke-linecap="butt" stroke-linejoin="miter" stroke="rgb(0%, 0%, 0%)" stroke-opacity="1" stroke-miterlimit="10" d="M 14.989568 -16.89573 L 40.381164 -35.385353 " transform="matrix(1.441791, 0, 0, -1.444011, 80.57177, 71.97738)"/>
<path fill="none" stroke-width="0.3985" stroke-linecap="round" stroke-linejoin="round" stroke="rgb(0%, 0%, 0%)" stroke-opacity="1" stroke-miterlimit="10" d="M -2.072192 2.391947 C -1.694307 0.957083 -0.849651 0.280423 0.00142868 -0.000025161 C -0.850919 -0.279359 -1.69456 -0.957272 -2.072227 -2.390158 " transform="matrix(1.165486, 0.850003, 0.848696, -1.167281, 139.0257, 123.24485)"/>
<g fill="rgb(0%, 0%, 0%)" fill-opacity="1">
<use xlink:href="#glyph-5-1" x="124.511733" y="101.466931"/>
</g>
<g fill="rgb(0%, 0%, 0%)" fill-opacity="1">
<use xlink:href="#glyph-6-1" x="130.636461" y="103.846661"/>
</g>
<path fill="none" stroke-width="0.3985" stroke-linecap="butt" stroke-linejoin="miter" stroke="rgb(0%, 0%, 0%)" stroke-opacity="1" stroke-miterlimit="10" d="M -40.968395 -43.084178 L 40.305303 -43.084178 " transform="matrix(1.441791, 0, 0, -1.444011, 80.57177, 71.97738)"/>
<path fill="none" stroke-width="0.3985" stroke-linecap="round" stroke-linejoin="round" stroke="rgb(0%, 0%, 0%)" stroke-opacity="1" stroke-miterlimit="10" d="M -2.071191 2.392098 C -1.694598 0.955669 -0.849295 0.279385 -0.00128313 0.000755361 C -0.849295 -0.277874 -1.694598 -0.956864 -2.071191 -2.390587 " transform="matrix(1.441791, 0, 0, -1.444011, 138.9706, 134.192497)"/>
<g fill="rgb(0%, 0%, 0%)" fill-opacity="1">
<use xlink:href="#glyph-7-0" x="73.18974" y="128.809279"/>
</g>
<g fill="rgb(0%, 0%, 0%)" fill-opacity="1">
<use xlink:href="#glyph-8-0" x="82.196608" y="130.448232"/>
</g>
</g>
</defs>
<use xlink:href="#source-5"/>
</svg>
