<?xml version="1.0" encoding="UTF-8"?>
<svg xmlns="http://www.w3.org/2000/svg" xmlns:xlink="http://www.w3.org/1999/xlink" width="160pt" height="98pt" viewBox="0 0 160 98"><!--latexit:AAAJMHjarVVbbNtUGD5nNqMrbM02GLANZtpsMGi7pFnpWggsa5c2XZuxpm2c1l12
bJ/EZ3Fsz8dp0kZBR2ia9gBCQkLcJC7lBRDiJkAIoT0xQAhNY5sQCCHECxcJ8cAr
LxwnWWm7PfCArcT/+c/3/Tf//7HqmIR6odAVuE4Qb1h/Y6scnMcuJbaVCSJXMwhf
TQY925GDtnoSax7dAuCZV7KBtmTqCF7AeqwJ+qZlw6Rr2x6D7wTuvunm3XvuuXfv
ffd3dnXv633woYNDo0eOTczMHkc4d7LoeKWpoFUyzcsbN7UFtgfTyVR3AS/QGf5s
OpkOaiai9I3NW7becuu2226/g61jAhPZDWw9u5G1sA2s9Y0dO++8a5d0d3sHu4nd
zDaxNraZbWc72J3sLibJKqLYJBae0mzTdieLto6nPOKZWHZcjIqqieeKKG+RHNGQ
x9Od1JGHeVoq0gp51y5Z+qBPnKF2ydXwJK54HaB5XQ6F23oi+6eSqYnhQ0oyVQem
HKTheEjiNwhAtvHSA30H+mcaaVioiOWGiGm6SVg6MCAnU0fr+QbWXWqLPvxIhheA
ei6x8izwKDcQO1Sv83jJQzzeVH3ntdigz2ssLh9uiw+PJJbXPJiYxyW15GHKtrA7
2NbsZvi0ottaqYgtrx7CbDjkeHNV5HpEM3GtVSlRzIMvoDye5aIfLJ2r1stWk3Zz
jS7lbJf/LE+qa1cyqqhI6UJR5cgi8gy6ds9XXm9vtuTlDsxVieXwUC2t4ShXMiXP
lrwFB0s6cXlhzAUuIM0lPFZJM5CLNI+35yovvm0HLdqrMql6pLC4WqOWKHV4i+bo
tcguTa9dY9Sla6GnSn6rX0snHtfVc6katpPr9nXUWzDxGv7V1qv5nT+WfPTVcXbL
q0fZrez26WQqzgt8JTU51TadljN8nSKLmL/ZXNxEecrXSf5iOg7e2+jBQIBtY7dN
j9sW0mzeKspc08KSMsCX2RO8FYaI5nc2cheWsr5S1bKBLSs6RG80zZI+cF19x8FD
DV+X8m0G8YfUIzyC2Be/vfjdxRMVtpObLJjc7RCfnKXCgD8WVmR/PCzxG7CNfnOe
GkmwXY02FJ7ZLRme59CBfftOddcL2Y0cZ1/HqWh6MUaTgxV1fLBcHhsc1eTh5Lw2
Mjo/E+/vk+MVQx05ZGfkUJ7LXkaesDPFRH4q3NunklAllxrVx+K0PDaUoAmzomV6
+stasb8gh7mcrpTR8OFVvIl4bylhhmh6MUG5P5LmPlbYWWjYMXIquWr3ME0QjiWV
voSVDOF0xUycdLg8YaB0mRy1KFGLcW8mlXggUTTm1R5KeA6LKD3BcTbRh/vLCSvc
n5v2fca4nTLh8fh59WTkUR6fmVvOcbqiNeOojA2NN/wOrvFb5HUZKazxO2FoPYY5
Mzjan5PDzTzG/4e4Q/Q/+lscG4o1/KXWxttrqOkpcpSMnlQjo6UZOUF8jnwsGm1V
ZhUV54lVHyI+grOai4oO1udaJamqaDYfVz1bVZDpGKgmKf5QqqqUOl61usK1mrRn
j1SVs82FonBS/W+Z2SAu84aOW1c5Vs0HI9e1y7PtVaWqzCPXMUiTodRq7Z1SzrWL
0XBXuJOfSfwZmfuXYth2YQ0g0hVeAdARNbDeKa0CRprAyHWAdUhk2dZKSLtiuprt
WthtryJLM2w3qvGzHLudkmPTaKg73NPbKbm2x8cwGj4QqnVKuovKUcu28LLhSDML
HqSCLf1qwZU5PsTz5Wxg6/Jn5t9T47X57ABoAZvBdhAEe0EP6AMJMAaOgRQogxo4
DZ4Az4KXwOvgTfAWeBu8C94HH4CPwMfgE/AZ+Bx8Cb4CX4ML4CK4BK6Ab8F34Gfw
K/gD/AX+hhvgJijB++F++CCMwSScgmmYgcchgS5chDV4Bp6FT8Jn4fPwBfgyfA9+
CM/B8/AC/AH+CH+CPwtl4TGBCY8Lp4UzwlnhKeE54WXhdeEd4WPhE+FT4ZxwXvhK
+Ea4Inwv/CL8LvwpCuJ6cYcYFPeKYXFAfEiMiSPiEXFCzIizoirqYk40WmDL+pad
jRNvHWx+6itg1dUi/QNb2hNb-->
<defs>
<g>
<g id="glyph-0-0">
<path d="M 0.125 1.28125 L 0.125 1.78125 C 0.96875 1.75 4.75 1.734375 5.515625 1.734375 L 7.59375 1.734375 C 8.34375 1.734375 11.65625 1.75 12.5 1.78125 L 12.5 1.28125 L 11.8125 1.234375 C 11.109375 1.171875 10.96875 1.0625 10.96875 -0.234375 L 10.96875 -9.234375 C 10.96875 -10.515625 11.125 -10.65625 11.8125 -10.703125 L 12.59375 -10.75 L 12.59375 -11.234375 C 11.625 -11.21875 11.171875 -11.203125 10.25 -11.203125 C 9.40625 -11.203125 8.984375 -11.21875 8.234375 -11.234375 L 8.234375 -10.75 L 8.78125 -10.703125 C 9.546875 -10.640625 9.609375 -10.515625 9.609375 -9.234375 L 9.609375 0.15625 C 9.609375 0.96875 9.453125 1.109375 8.921875 1.15625 L 3.671875 1.15625 C 3.1875 1.109375 3.015625 0.96875 3.015625 0.15625 L 3.015625 -9.234375 C 3.015625 -10.515625 3.078125 -10.640625 3.859375 -10.703125 L 4.40625 -10.75 L 4.40625 -11.234375 C 3.65625 -11.21875 3.234375 -11.203125 2.375 -11.203125 C 1.46875 -11.203125 1 -11.21875 0.046875 -11.234375 L 0.046875 -10.75 L 0.828125 -10.703125 C 1.5 -10.65625 1.65625 -10.515625 1.65625 -9.234375 L 1.65625 -0.234375 C 1.65625 1.0625 1.53125 1.171875 0.8125 1.234375 Z M 0.125 1.28125 "/>
</g>
<g id="glyph-1-0">
<path d="M 5.296875 -1.078125 C 4.890625 -0.734375 4.625 -0.65625 4.453125 -0.65625 C 4.28125 -0.65625 4.15625 -0.6875 4.046875 -0.890625 C 3.953125 -1.09375 3.8125 -1.5625 3.765625 -1.890625 C 3.734375 -2.078125 3.703125 -2.25 3.6875 -2.40625 C 4.015625 -2.84375 4.328125 -3.328125 4.5 -3.578125 C 4.640625 -3.8125 5.046875 -4.46875 5.109375 -4.6875 C 5.046875 -4.8125 5 -4.90625 4.9375 -5.078125 C 4.90625 -5.09375 4.828125 -5.125 4.78125 -5.140625 C 4.53125 -4.234375 4.390625 -3.921875 3.984375 -3.28125 C 3.9375 -3.21875 3.765625 -2.9375 3.625 -2.75 C 3.4375 -4.0625 3.390625 -4.375 3.328125 -4.765625 C 3.234375 -5.265625 2.921875 -5.296875 2.6875 -5.296875 C 2.453125 -5.296875 2.09375 -5.109375 1.734375 -4.765625 C 1.46875 -4.515625 1.265625 -4.234375 1.0625 -3.890625 C 0.59375 -2.921875 0.234375 -1.609375 0.234375 -0.71875 C 0.234375 -0.359375 0.40625 0.125 0.65625 0.125 C 1.078125 0.125 1.421875 -0.09375 1.765625 -0.359375 C 2.21875 -0.75 2.71875 -1.25 3.046875 -1.625 C 3.171875 -0.484375 3.5 0.125 3.921875 0.125 C 4.15625 0.125 4.5 -0.0625 4.859375 -0.390625 L 5.390625 -0.875 Z M 3.015625 -1.96875 C 2.6875 -1.59375 2.375 -1.265625 2.109375 -1.03125 C 1.765625 -0.75 1.46875 -0.65625 1.265625 -0.65625 C 1.125 -0.65625 1.0625 -0.796875 1.0625 -1.09375 C 1.0625 -1.796875 1.25 -2.984375 1.609375 -3.890625 C 1.75 -4.25 2.015625 -4.578125 2.25 -4.578125 C 2.578125 -4.578125 2.6875 -4.375 2.765625 -3.890625 Z M 3.015625 -1.96875 "/>
</g>
<g id="glyph-1-1">
<path d="M 1.015625 -1.65625 C 1.015625 -2.890625 1.78125 -4.234375 2.625 -4.703125 C 2.75 -4.765625 2.9375 -4.8125 3.15625 -4.84375 C 3.265625 -4.953125 3.25 -4.953125 3.3125 -5.046875 C 3.28125 -5.171875 3.234375 -5.1875 3.203125 -5.1875 C 2.96875 -5.1875 2.546875 -4.96875 2.203125 -4.8125 C 0.90625 -4.171875 0.1875 -3.046875 0.1875 -1.671875 C 0.1875 -0.5 0.875 0.125 2.15625 0.125 C 2.21875 0.125 2.28125 0.125 2.34375 0.109375 C 2.21875 0.765625 2.046875 1.671875 1.84375 2.5625 L 1.75 2.96875 L 1.828125 3.03125 C 2.0625 2.953125 2.28125 2.90625 2.625 2.84375 L 3.078125 0.015625 C 3.59375 -0.109375 4.109375 -0.3125 4.53125 -0.609375 C 5.5 -1.25 6.1875 -2.515625 6.1875 -3.640625 C 6.1875 -3.90625 6.125 -4.140625 6.046875 -4.34375 C 5.90625 -4.671875 5.4375 -5.296875 5.140625 -5.296875 C 4.890625 -5.296875 4.609375 -5.21875 4.375 -5.09375 C 3.953125 -4.84375 3.453125 -4.4375 3.1875 -4.140625 C 3.078125 -4.015625 3 -3.8125 2.96875 -3.625 L 2.40625 -0.3125 C 1.53125 -0.390625 1.015625 -0.875 1.015625 -1.65625 Z M 3.984375 -0.65625 C 3.765625 -0.5 3.46875 -0.375 3.125 -0.3125 C 3.203125 -0.734375 3.296875 -1.296875 3.359375 -1.625 C 3.484375 -2.5 3.75 -4.28125 4.015625 -4.5 C 4.140625 -4.65625 4.453125 -4.765625 4.8125 -4.765625 C 5.109375 -4.765625 5.359375 -4.046875 5.359375 -3.46875 C 5.359375 -2.390625 4.75 -1.25 3.984375 -0.65625 Z M 3.984375 -0.65625 "/>
</g>
<g id="glyph-2-0">
<path d="M 6.40625 -7.609375 C 6.40625 -8.375 6.46875 -8.875 6.609375 -9.65625 C 5.46875 -10.109375 4.8125 -10.265625 4.03125 -10.265625 C 1.890625 -10.265625 0.34375 -8.890625 0.34375 -7 C 0.34375 -6.296875 0.53125 -5.765625 0.953125 -5.375 C 1.4375 -4.9375 2.09375 -4.703125 3.484375 -4.515625 C 4.59375 -4.359375 5.09375 -4.203125 5.46875 -3.875 C 5.84375 -3.5625 6.015625 -3.140625 6.015625 -2.59375 C 6.015625 -1.28125 4.9375 -0.34375 3.4375 -0.34375 C 2.296875 -0.34375 1.171875 -0.90625 1.109375 -1.5 L 0.984375 -2.46875 L 0.53125 -2.46875 C 0.546875 -2.21875 0.546875 -1.984375 0.546875 -1.890625 C 0.546875 -1.234375 0.515625 -0.90625 0.4375 -0.265625 C 1.25 0.09375 2.078125 0.296875 2.90625 0.296875 C 5.40625 0.296875 7.21875 -1.234375 7.21875 -3.328125 C 7.21875 -4.015625 7.03125 -4.484375 6.625 -4.859375 C 6.125 -5.34375 5.515625 -5.53125 3.921875 -5.75 C 3.59375 -5.78125 3.328125 -5.828125 3.09375 -5.890625 L 3.09375 -9.5625 C 3.28125 -9.625 3.5 -9.65625 3.71875 -9.65625 C 4.28125 -9.65625 4.8125 -9.53125 5.1875 -9.3125 C 5.671875 -9.078125 5.828125 -8.859375 5.859375 -8.4375 L 5.953125 -7.609375 Z M 1.546875 -7.5625 C 1.546875 -8.390625 1.984375 -9.078125 2.65625 -9.40625 L 2.65625 -6.015625 C 1.84375 -6.3125 1.546875 -6.765625 1.546875 -7.5625 Z M 1.546875 -7.5625 "/>
</g>
<g id="glyph-2-1">
<path d="M 0.3125 -0.390625 L 0.3125 0.046875 C 1.15625 0.015625 2.484375 0 3.234375 0 C 4.0625 0.015625 6.171875 0.046875 6.6875 0.046875 C 8.515625 0.046875 9.890625 -0.4375 10.90625 -1.4375 C 11.9375 -2.453125 12.5625 -4.015625 12.5625 -5.578125 C 12.5625 -8.265625 10.578125 -10.015625 7.5625 -10.015625 C 7.453125 -10.015625 7.265625 -10.015625 7.015625 -10 C 6.296875 -9.984375 5.71875 -9.984375 5.109375 -9.984375 C 4.578125 -9.984375 3.984375 -9.96875 3.234375 -9.96875 C 2.484375 -9.96875 1.15625 -9.984375 0.3125 -10.015625 L 0.3125 -9.578125 L 0.953125 -9.53125 C 1.53125 -9.484375 1.671875 -9.375 1.671875 -8.234375 L 1.671875 -1.734375 C 1.671875 -0.59375 1.53125 -0.46875 0.953125 -0.4375 Z M 4.78125 -9.3125 C 5.15625 -9.390625 5.65625 -9.4375 6.375 -9.4375 C 7.421875 -9.4375 8.5625 -9.25 9.171875 -8.96875 C 9.484375 -8.84375 9.75 -8.640625 10.015625 -8.375 C 10.703125 -7.6875 11.03125 -6.640625 11.03125 -5.1875 C 11.03125 -3.578125 10.546875 -2.328125 9.59375 -1.546875 C 8.734375 -0.84375 7.875 -0.59375 6.25 -0.59375 C 5.59375 -0.59375 5.15625 -0.625 4.78125 -0.703125 Z M 3.40625 -8.234375 L 3.40625 -1.734375 C 3.40625 -0.59375 3.34375 -0.484375 2.890625 -0.4375 C 2.421875 -0.484375 2.34375 -0.59375 2.34375 -1.734375 L 2.34375 -8.234375 C 2.34375 -9.375 2.421875 -9.484375 2.890625 -9.53125 C 3.34375 -9.5 3.40625 -9.375 3.40625 -8.234375 Z M 3.40625 -8.234375 "/>
</g>
<g id="glyph-3-0">
<path d="M 0.265625 -4.265625 L 0.34375 -4.046875 L 0.6875 -4.28125 C 1.09375 -4.53125 1.125 -4.546875 1.203125 -4.546875 C 1.3125 -4.546875 1.390625 -4.4375 1.390625 -4.28125 C 1.390625 -3.71875 0.953125 -1.59375 0.5 -0.015625 L 0.578125 0.09375 C 0.84375 0.015625 1.09375 -0.046875 1.34375 -0.09375 C 1.546875 -1.46875 1.78125 -2.1875 2.28125 -2.953125 C 2.875 -3.875 3.6875 -4.546875 4.171875 -4.546875 C 4.296875 -4.546875 4.359375 -4.453125 4.359375 -4.296875 C 4.359375 -4.09375 4.328125 -3.859375 4.25 -3.515625 L 3.671875 -1.171875 C 3.578125 -0.765625 3.53125 -0.515625 3.53125 -0.34375 C 3.53125 -0.0625 3.65625 0.09375 3.859375 0.09375 C 4.140625 0.09375 4.53125 -0.125 5.609375 -0.9375 L 5.5 -1.140625 L 5.21875 -0.953125 C 4.890625 -0.734375 4.65625 -0.609375 4.546875 -0.609375 C 4.46875 -0.609375 4.40625 -0.71875 4.40625 -0.84375 C 4.40625 -0.890625 4.421875 -1.015625 4.421875 -1.0625 L 5.140625 -4.09375 C 5.21875 -4.40625 5.265625 -4.71875 5.265625 -4.90625 C 5.265625 -5.15625 5.140625 -5.296875 4.921875 -5.296875 C 4.46875 -5.296875 3.71875 -4.890625 3.078125 -4.28125 C 2.65625 -3.890625 2.359375 -3.515625 1.78125 -2.71875 L 2.203125 -4.484375 C 2.25 -4.6875 2.265625 -4.8125 2.265625 -4.9375 C 2.265625 -5.171875 2.1875 -5.296875 2.015625 -5.296875 C 1.78125 -5.296875 1.359375 -5.0625 0.5625 -4.484375 Z M 0.265625 -4.265625 "/>
</g>
<g id="glyph-4-0">
<path d="M 7.484375 -2.640625 C 7.671875 -2.640625 7.890625 -2.640625 7.890625 -2.859375 C 7.890625 -3.09375 7.671875 -3.09375 7.484375 -3.09375 L 1.34375 -3.09375 C 1.140625 -3.09375 0.9375 -3.09375 0.9375 -2.859375 C 0.9375 -2.640625 1.140625 -2.640625 1.34375 -2.640625 Z M 7.484375 -2.640625 "/>
</g>
<g id="glyph-5-0">
<path d="M 0.734375 -6.109375 L 0.84375 -6.109375 L 2.25 -6.75 C 2.25 -6.75 2.265625 -6.75 2.28125 -6.75 C 2.34375 -6.75 2.359375 -6.65625 2.359375 -6.390625 L 2.359375 -1.0625 C 2.359375 -0.484375 2.25 -0.359375 1.65625 -0.328125 L 1.046875 -0.296875 L 1.046875 0.03125 C 2.71875 0 2.71875 0 2.84375 0 C 2.984375 0 3.234375 0 3.59375 0.015625 C 3.734375 0.015625 4.109375 0.015625 4.5625 0.03125 L 4.5625 -0.296875 L 3.984375 -0.328125 C 3.390625 -0.359375 3.28125 -0.484375 3.28125 -1.0625 L 3.28125 -7.578125 L 3.125 -7.640625 C 2.421875 -7.265625 1.640625 -6.9375 0.65625 -6.578125 Z M 0.734375 -6.109375 "/>
</g>
<g id="glyph-6-0">
<path d="M 5.96875 -0.359375 L 5.96875 0.046875 C 6.65625 0.015625 7.296875 0 7.90625 0 C 8.484375 0 9.125 0.015625 9.8125 0.046875 L 9.8125 -0.359375 L 9.453125 -0.390625 C 8.859375 -0.4375 8.671875 -0.53125 8.484375 -0.875 L 6.03125 -5.328125 L 9.1875 -8.96875 C 9.625 -9.453125 9.75 -9.53125 10.125 -9.578125 L 10.53125 -9.609375 L 10.53125 -10.015625 L 8.890625 -9.96875 C 8.71875 -9.96875 8.515625 -9.96875 7.25 -10.015625 L 7.25 -9.609375 L 7.71875 -9.578125 C 8.171875 -9.546875 8.359375 -9.484375 8.359375 -9.296875 C 8.359375 -9.140625 8.296875 -9.015625 8.03125 -8.703125 L 5.71875 -5.859375 L 4.234375 -8.734375 C 4.109375 -9 4.03125 -9.171875 4.03125 -9.28125 C 4.03125 -9.46875 4.21875 -9.546875 4.640625 -9.578125 L 5.171875 -9.609375 L 5.171875 -10.015625 L 4.515625 -10 C 3.9375 -9.984375 3.5 -9.96875 3.265625 -9.96875 C 3.03125 -9.96875 2.59375 -9.984375 2.015625 -10 L 1.359375 -10.015625 L 1.359375 -9.609375 L 1.734375 -9.578125 C 2.4375 -9.5 2.609375 -9.40625 2.890625 -8.875 L 4.984375 -4.96875 L 1.578125 -0.875 C 1.359375 -0.625 1.03125 -0.453125 0.6875 -0.40625 L 0.28125 -0.359375 L 0.28125 0.046875 C 0.984375 0.015625 1.578125 0 2.078125 0 C 2.59375 0 3.171875 0.015625 3.78125 0.046875 L 3.78125 -0.359375 L 3.328125 -0.40625 C 2.78125 -0.46875 2.53125 -0.546875 2.53125 -0.71875 C 2.53125 -0.84375 2.59375 -0.96875 2.6875 -1.078125 L 5.296875 -4.421875 L 7 -1.15625 C 7.125 -0.890625 7.203125 -0.703125 7.203125 -0.578125 C 7.203125 -0.46875 7.09375 -0.421875 6.734375 -0.421875 L 6.515625 -0.40625 Z M 5.96875 -0.359375 "/>
</g>
<g id="glyph-7-0">
<path d="M 3.21875 -7.0625 C 3.21875 -7.53125 3.515625 -8.25 4.75 -8.34375 C 4.8125 -8.34375 4.84375 -8.390625 4.84375 -8.46875 C 4.84375 -8.59375 4.765625 -8.59375 4.640625 -8.59375 C 3.5 -8.59375 2.46875 -8 2.453125 -7.15625 L 2.453125 -4.546875 C 2.453125 -4.09375 2.453125 -3.734375 2 -3.359375 C 1.609375 -3.03125 1.171875 -3 0.921875 -2.984375 C 0.859375 -2.984375 0.8125 -2.9375 0.8125 -2.859375 C 0.8125 -2.75 0.890625 -2.75 1 -2.734375 C 1.75 -2.6875 2.296875 -2.28125 2.421875 -1.71875 C 2.453125 -1.59375 2.453125 -1.5625 2.453125 -1.15625 L 2.453125 1.109375 C 2.453125 1.59375 2.453125 1.953125 3 2.390625 C 3.4375 2.734375 4.1875 2.859375 4.640625 2.859375 C 4.765625 2.859375 4.84375 2.859375 4.84375 2.734375 C 4.84375 2.625 4.78125 2.625 4.671875 2.609375 C 3.953125 2.5625 3.390625 2.203125 3.25 1.609375 C 3.21875 1.515625 3.21875 1.484375 3.21875 1.078125 L 3.21875 -1.328125 C 3.21875 -1.859375 3.125 -2.046875 2.765625 -2.421875 C 2.515625 -2.65625 2.1875 -2.765625 1.875 -2.859375 C 2.8125 -3.125 3.21875 -3.65625 3.21875 -4.3125 Z M 3.21875 -7.0625 "/>
</g>
<g id="glyph-7-1">
<path d="M 2.453125 1.34375 C 2.453125 1.796875 2.15625 2.53125 0.921875 2.609375 C 0.859375 2.625 0.8125 2.671875 0.8125 2.734375 C 0.8125 2.859375 0.9375 2.859375 1.046875 2.859375 C 2.140625 2.859375 3.203125 2.296875 3.21875 1.4375 L 3.21875 -1.171875 C 3.21875 -1.625 3.21875 -2 3.671875 -2.375 C 4.0625 -2.703125 4.5 -2.71875 4.75 -2.734375 C 4.8125 -2.75 4.84375 -2.796875 4.84375 -2.859375 C 4.84375 -2.984375 4.78125 -2.984375 4.671875 -2.984375 C 3.921875 -3.03125 3.375 -3.453125 3.25 -4.015625 C 3.21875 -4.140625 3.21875 -4.15625 3.21875 -4.5625 L 3.21875 -6.84375 C 3.21875 -7.3125 3.21875 -7.6875 2.671875 -8.125 C 2.21875 -8.46875 1.4375 -8.59375 1.046875 -8.59375 C 0.9375 -8.59375 0.8125 -8.59375 0.8125 -8.46875 C 0.8125 -8.34375 0.890625 -8.34375 1 -8.34375 C 1.71875 -8.296875 2.265625 -7.921875 2.421875 -7.34375 C 2.453125 -7.234375 2.453125 -7.21875 2.453125 -6.796875 L 2.453125 -4.390625 C 2.453125 -3.875 2.546875 -3.671875 2.90625 -3.3125 C 3.140625 -3.0625 3.46875 -2.953125 3.796875 -2.859375 C 2.859375 -2.59375 2.453125 -2.078125 2.453125 -1.40625 Z M 2.453125 1.34375 "/>
</g>
<g id="glyph-8-0">
<path d="M 4.171875 -0.84375 C 3.859375 -0.578125 3.65625 -0.515625 3.515625 -0.515625 C 3.390625 -0.515625 3.28125 -0.53125 3.1875 -0.703125 C 3.109375 -0.859375 3.015625 -1.234375 2.96875 -1.484375 C 2.9375 -1.640625 2.921875 -1.765625 2.90625 -1.90625 C 3.171875 -2.25 3.421875 -2.625 3.546875 -2.8125 C 3.671875 -3 3.984375 -3.515625 4.03125 -3.6875 C 3.984375 -3.796875 3.953125 -3.875 3.90625 -4 C 3.875 -4.015625 3.8125 -4.046875 3.765625 -4.0625 C 3.578125 -3.34375 3.453125 -3.09375 3.140625 -2.578125 C 3.109375 -2.53125 2.96875 -2.3125 2.859375 -2.171875 C 2.71875 -3.203125 2.671875 -3.453125 2.625 -3.75 C 2.546875 -4.140625 2.3125 -4.1875 2.125 -4.1875 C 1.9375 -4.171875 1.65625 -4.03125 1.375 -3.75 C 1.15625 -3.5625 1 -3.34375 0.84375 -3.0625 C 0.46875 -2.296875 0.1875 -1.265625 0.1875 -0.578125 C 0.1875 -0.28125 0.3125 0.09375 0.515625 0.09375 C 0.859375 0.09375 1.125 -0.078125 1.390625 -0.28125 C 1.75 -0.59375 2.140625 -0.984375 2.40625 -1.28125 C 2.5 -0.375 2.765625 0.09375 3.09375 0.09375 C 3.28125 0.09375 3.546875 -0.046875 3.828125 -0.296875 L 4.25 -0.6875 Z M 2.375 -1.546875 C 2.125 -1.25 1.875 -1 1.65625 -0.8125 C 1.390625 -0.59375 1.15625 -0.515625 1 -0.515625 C 0.890625 -0.515625 0.84375 -0.640625 0.84375 -0.859375 C 0.84375 -1.40625 0.984375 -2.34375 1.265625 -3.0625 C 1.375 -3.359375 1.59375 -3.609375 1.78125 -3.609375 C 2.03125 -3.609375 2.125 -3.453125 2.171875 -3.0625 Z M 2.375 -1.546875 "/>
</g>
<g id="glyph-9-0">
<path d="M -5.03125 3.796875 C -5.03125 4 -5.03125 4.1875 -4.8125 4.1875 C -4.578125 4.1875 -4.578125 3.953125 -4.578125 3.75 L -4.578125 0.203125 L -1.03125 0.203125 C -0.828125 0.203125 -0.640625 0.203125 -0.640625 -0.015625 C -0.640625 -0.25 -0.84375 -0.25 -1.03125 -0.25 L -4.640625 -0.25 C -5 -0.25 -5.03125 -0.21875 -5.03125 0.140625 Z M -5.03125 3.796875 "/>
</g>
</g>
<clipPath id="clip-0">
<rect x="0" y="0" width="160" height="98"/>
</clipPath>
<g id="source-5" clip-path="url(#clip-0)">
<g fill="rgb(0%, 0%, 0%)" fill-opacity="1">
<use xlink:href="#glyph-0-0" x="0.14812" y="20.428294"/>
</g>
<g fill="rgb(0%, 0%, 0%)" fill-opacity="1">
<use xlink:href="#glyph-1-0" x="13.10236" y="22.757065"/>
</g>
<g fill="rgb(0%, 0%, 0%)" fill-opacity="1">
<use xlink:href="#glyph-2-0" x="22.1038" y="19.314724"/>
</g>
<g fill="rgb(0%, 0%, 0%)" fill-opacity="1">
<use xlink:href="#glyph-3-0" x="30.13036" y="14.063375"/>
</g>
<g fill="rgb(0%, 0%, 0%)" fill-opacity="1">
<use xlink:href="#glyph-4-0" x="36.465208" y="14.063375"/>
</g>
<g fill="rgb(0%, 0%, 0%)" fill-opacity="1">
<use xlink:href="#glyph-5-0" x="45.432664" y="14.063375"/>
</g>
<g fill="rgb(0%, 0%, 0%)" fill-opacity="1">
<use xlink:href="#glyph-6-0" x="129.46444" y="19.314724"/>
</g>
<g fill="rgb(0%, 0%, 0%)" fill-opacity="1">
<use xlink:href="#glyph-3-0" x="139.99516" y="22.012265"/>
</g>
<g fill="rgb(0%, 0%, 0%)" fill-opacity="1">
<use xlink:href="#glyph-4-0" x="146.330008" y="22.012265"/>
</g>
<g fill="rgb(0%, 0%, 0%)" fill-opacity="1">
<use xlink:href="#glyph-5-0" x="155.297464" y="22.012265"/>
</g>
<g fill="rgb(0%, 0%, 0%)" fill-opacity="1">
<use xlink:href="#glyph-0-0" x="4.74316" y="95.385961"/>
</g>
<g fill="rgb(0%, 0%, 0%)" fill-opacity="1">
<use xlink:href="#glyph-1-0" x="17.6974" y="97.714732"/>
</g>
<g fill="rgb(0%, 0%, 0%)" fill-opacity="1">
<use xlink:href="#glyph-2-1" x="26.69884" y="94.27239"/>
</g>
<g fill="rgb(0%, 0%, 0%)" fill-opacity="1">
<use xlink:href="#glyph-3-0" x="40.09084" y="89.022494"/>
</g>
<g fill="rgb(0%, 0%, 0%)" fill-opacity="1">
<use xlink:href="#glyph-6-0" x="136.7422" y="94.27239"/>
</g>
<g fill="rgb(0%, 0%, 0%)" fill-opacity="1">
<use xlink:href="#glyph-3-0" x="147.27292" y="96.442909"/>
</g>
<path fill="none" stroke-width="0.3985" stroke-linecap="butt" stroke-linejoin="miter" stroke="rgb(0%, 0%, 0%)" stroke-opacity="1" stroke-miterlimit="10" d="M -17.032079 25.075429 L 29.992118 25.075429 " transform="matrix(1.44, 0, 0, -1.451852, 80.7176, 52.10503)"/>
<path fill="none" stroke-width="0.3985" stroke-linecap="round" stroke-linejoin="round" stroke="rgb(0%, 0%, 0%)" stroke-opacity="1" stroke-miterlimit="10" d="M -2.071363 2.390779 C -1.694301 0.956727 -0.85066 0.278714 0.00111979 -0.00110118 C -0.85066 -0.278226 -1.694301 -0.956239 -2.071363 -2.390291 " transform="matrix(1.44, 0, 0, -1.451852, 124.1937, 15.69762)"/>
<g fill="rgb(0%, 0%, 0%)" fill-opacity="1">
<use xlink:href="#glyph-7-0" x="78.16012" y="8.977537"/>
</g>
<g fill="rgb(0%, 0%, 0%)" fill-opacity="1">
<use xlink:href="#glyph-1-1" x="84.658408" y="8.977537"/>
</g>
<g fill="rgb(0%, 0%, 0%)" fill-opacity="1">
<use xlink:href="#glyph-8-0" x="91.3246" y="10.626841"/>
</g>
<g fill="rgb(0%, 0%, 0%)" fill-opacity="1">
<use xlink:href="#glyph-7-1" x="96.83116" y="8.977537"/>
</g>
<path fill="none" stroke-width="0.3985" stroke-linecap="butt" stroke-linejoin="miter" stroke="rgb(0%, 0%, 0%)" stroke-opacity="1" stroke-miterlimit="10" d="M -38.14753 15.52136 L -38.14753 -18.180207 " transform="matrix(1.44, 0, 0, -1.451852, 80.7176, 52.10503)"/>
<path fill="none" stroke-width="0.3985" stroke-linecap="round" stroke-linejoin="miter" stroke="rgb(0%, 0%, 0%)" stroke-opacity="1" stroke-miterlimit="10" d="M 0.00130695 1.953747 C 0.682011 1.953747 1.23626 1.514294 1.23626 0.977185 C 1.23626 0.437363 0.682011 0.000622396 0.00130695 0.000622396 " transform="matrix(0, -1.451852, 1.44, 0, 25.78426, 29.57221)"/>
<path fill="none" stroke-width="0.3985" stroke-linecap="round" stroke-linejoin="round" stroke="rgb(0%, 0%, 0%)" stroke-opacity="1" stroke-miterlimit="10" d="M -2.071885 2.390488 C -1.69252 0.955484 -0.850385 0.280028 -0.00017736 0.000622396 C -0.850385 -0.278783 -1.69252 -0.956951 -2.071885 -2.391956 " transform="matrix(0, 1.451852, 1.44, 0, 25.78426, 78.78932)"/>
<path fill="none" stroke-width="0.3985" stroke-linecap="butt" stroke-linejoin="miter" stroke="rgb(0%, 0%, 0%)" stroke-opacity="1" stroke-dasharray="2.78952 1.59401" stroke-miterlimit="10" d="M 44.82773 15.454097 L 44.82773 -18.567643 " transform="matrix(1.44, 0, 0, -1.451852, 80.7176, 52.10503)"/>
<path fill="none" stroke-width="0.3985" stroke-linecap="round" stroke-linejoin="miter" stroke="rgb(0%, 0%, 0%)" stroke-opacity="1" stroke-miterlimit="10" d="M -0.0000680166 1.953008 C 0.683326 1.953008 1.234885 1.516267 1.234885 0.976445 C 1.234885 0.436623 0.683326 -0.000117187 -0.0000680166 -0.000117187 " transform="matrix(0, -1.451852, 1.44, 0, 145.2697, 29.66787)"/>
<path fill="none" stroke-width="0.3985" stroke-linecap="round" stroke-linejoin="round" stroke="rgb(0%, 0%, 0%)" stroke-opacity="1" stroke-miterlimit="10" d="M -2.07258 2.389748 C -1.693216 0.957457 -0.85108 0.279288 -0.000873023 -0.000117187 C -0.85108 -0.279523 -1.693216 -0.957691 -2.07258 -2.389983 " transform="matrix(0, 1.451852, 1.44, 0, 145.2697, 79.35283)"/>
<path fill="none" stroke-width="0.3985" stroke-linecap="butt" stroke-linejoin="miter" stroke="rgb(0%, 0%, 0%)" stroke-opacity="1" stroke-dasharray="2.78952 1.59401" stroke-miterlimit="10" d="M -20.222183 -26.553134 L 35.045829 -26.553134 " transform="matrix(1.44, 0, 0, -1.451852, 80.7176, 52.10503)"/>
<path fill="none" stroke-width="0.3985" stroke-linecap="round" stroke-linejoin="round" stroke="rgb(0%, 0%, 0%)" stroke-opacity="1" stroke-miterlimit="10" d="M -2.071749 2.392273 C -1.694688 0.95553 -0.851046 0.280208 0.000733507 0.000392602 C -0.851046 -0.279422 -1.694688 -0.957436 -2.071749 -2.391488 " transform="matrix(1.44, 0, 0, -1.451852, 131.4716, 90.65682)"/>
<g fill="rgb(0%, 0%, 0%)" fill-opacity="1">
<use xlink:href="#glyph-9-0" x="123.70008" y="73.186008"/>
</g>
</g>
</defs>
<use xlink:href="#source-5"/>
</svg>
