<?xml version="1.0" encoding="UTF-8"?>
<svg xmlns="http://www.w3.org/2000/svg" xmlns:xlink="http://www.w3.org/1999/xlink" width="59pt" height="93pt" viewBox="0 0 59 93"><!--latexit:AAAJVnjanVZZbBtFGJ7JblvHPeyk970lLk1oEuwcTZoQWrchbWnjHs7hxHbNeHds
b7Pe3e6OmzqL0TxUFQ/0DVGoUKGpKrUIlUMUIR76RAEhVJU0QkgVgj5VQkhIvIIE
s2s7ddKSAruyPPPPN9/8x/ePndQV2SR+/zSs4vgFCxe5I75T2DBlTR3xIUPMyGw2
4COaHvFpyRNYJGYtgGffTXg9ofBBnMdSsAT6zlU9YGgaofAD75bFS7Y+va2+4Znt
jU3Nz7Z3P7e798WDR4+NRo8jnDqR1Ulu0KfmFOXu0mUe7zrfcCjcPIbz5ij7Lh0y
5BMVZJrXamqXr1i5avWatbSKcpSnC+hCuoi6aDV1X1u/YeOmzcKWp+roYrqELqMe
WkPX0fV0I91EhUgSmViRVTwoaopmDGQ1CQ8SmSg4ohsYZZMKjmdRWpVTsogIC3dA
QgSzsJJIHEsbWk6V9tobR00tZ4h4AJ8mdaD03PUHPC2tbYOh8LF9e2KhsAMM60jE
fX6BvcAL6dKpHR2dO0eLYagoiyPFITaHSxsmO7siofBhJ15v1ZSn5/ldIywBJjFk
NU29RxhBcI+T5/4cQczfsLNyObjX3lec3H3B07dv/4GZOXMmSNgomSPYpLV0LV2e
qIFXY5Im5rJYJY4L0YBfJ3ELGUQWFVxwx3ImZs6PoTSOsqHtrBm3nLQVhK3MIgkp
zWAflQiOtXKHhbKmmc8mGTKLSMacu2YbH7cWzZFUZ9ySVZ25qorFg1I5RSCaQPI6
FiTZYIlR8myARENmvgpiBhlIJEyes06xuXU0oc2KxCLy2MSjliZRmm08mbPF+yhQ
JszmeGdlND3VbNtMklewWXBvFSrRZTkV3O6YisdFLZtFqmTFmKwK0UDcijmxp6y6
QIFR9mJWAwP3M9thHRuIaIYVk6WCxT5uux8OhY5c6qcrLh2mK+maoVC4j6V9Ojww
6BkajoyweViewKzeqT4FpU02D7Fy1e2uLyrT66Wr6Oqhfk1FosYEFIuXGCZjXWya
eIkJpFcWbb0jIz+ZsI1JMeGtrdCNVJTSpNT1WHvd7j3Fs6bSnoxsty6RmQfBr/Kp
4PTiSbqBUY4p7Nhe1k+TY112s6itbX0Bgb2ALrUle3L/Abq5KE7uSiyJ07LqJF1n
ruUMXIjak5ScjrurS6t6mslPQXlWKktlrVwcuqurY/ZMiDql6TGYVCWNxIX6QEuD
gIhQ3+Rvbm8U/A2CVeiei04qOVyGtxbh86BVTcU2sm2GuIVhW+bFtpdZnwzdUaIN
ONim+cEdMz50PBncWXbiX2B3FrFznIhhpueKCjy2KlhKV1RFMtB4RVUahSTjEAw5
nSE9AcataBq7abBp9th+lQrGWp/lt1lkFxU2Grrn8tj1KhEpOPVPPK0lnvb/yWPH
7uS4vL9I1zovz3yB7Xwi0cMEzRPXjtk0Lf+RphxWOc2dFel5pL6OobIh3aypT40n
vMtnfowe3iKXTyW6gAvUgHXABxpAC+gAB8AhcBSEwTgogDPgNXAeXARXwXvgfXAd
fAg+Bp+AT8Fn4HPwBfgSfA2+Ad+C2+AOmALT4HvwA7gPHoBfwe/gD1gNl0EBbodt
sBsGYQgOwmE4Ao9DGRpwAhbgWfgqPAfPw7fgBfgO/AjegDfhLXgb3oM/wp/gfe4c
9zr3Bvcmd4F7m7vIXeGucze4m9wt7jZ3h5viprl73M/cA+4X7jfuT+4vnufX8hv4
AN/F7+L38Uf4Y/wwf5xHfIbX+JP8aX6Cf5l/xbXN1egq3YBVsPSH4DSY9bj6/gaL
CwOC-->
<defs>
<clipPath id="clip-0">
<path clip-rule="nonzero" d="M 0.429688 43 L 23 43 L 23 93 L 0.429688 93 Z M 0.429688 43 "/>
</clipPath>
</defs>
<path fill="none" stroke-width="0.3985" stroke-linecap="butt" stroke-linejoin="miter" stroke="rgb(100%, 0%, 0%)" stroke-opacity="1" stroke-miterlimit="10" d="M -5.242872 4.535621 C -2.957238 11.142806 -2.218471 21.482606 -3.542992 28.346964 " transform="matrix(1.633846, 0, 0, -1.625243, 29.71839, 46.55508)"/>
<path fill="none" stroke-width="0.3985" stroke-linecap="butt" stroke-linejoin="miter" stroke="rgb(0%, 0%, 100%)" stroke-opacity="1" stroke-miterlimit="10" d="M 5.243313 4.535621 C 2.957679 11.142806 2.218912 21.482606 3.543432 28.346964 " transform="matrix(1.633846, 0, 0, -1.625243, 29.71839, 46.55508)"/>
<path fill="none" stroke-width="0.3985" stroke-linecap="butt" stroke-linejoin="miter" stroke="rgb(0%, 0%, 100%)" stroke-opacity="1" stroke-miterlimit="10" d="M -10.629415 -28.346481 C -7.117284 -14.74515 -6.337873 -13.363145 3.505179 -3.338202 " transform="matrix(1.633846, 0, 0, -1.625243, 29.71839, 46.55508)"/>
<path fill="none" stroke-width="0.3985" stroke-linecap="butt" stroke-linejoin="miter" stroke="rgb(0%, 0%, 100%)" stroke-opacity="1" stroke-miterlimit="10" d="M 17.71628 -28.346481 C 17.360046 -20.850006 13.988974 -10.296296 9.934124 -3.982336 " transform="matrix(1.633846, 0, 0, -1.625243, 29.71839, 46.55508)"/>
<g clip-path="url(#clip-0)">
<path fill="none" stroke-width="0.3985" stroke-linecap="butt" stroke-linejoin="miter" stroke="rgb(100%, 0%, 0%)" stroke-opacity="1" stroke-miterlimit="10" d="M -17.715839 -28.346481 C -17.361996 -20.850006 -13.988533 -10.296296 -9.933683 -3.982336 " transform="matrix(1.633846, 0, 0, -1.625243, 29.71839, 46.55508)"/>
</g>
<path fill="none" stroke-width="0.3985" stroke-linecap="butt" stroke-linejoin="miter" stroke="rgb(100%, 0%, 0%)" stroke-opacity="1" stroke-miterlimit="10" d="M -3.507129 -3.338202 C 6.335923 -13.363145 7.117725 -14.74515 10.629856 -28.346481 " transform="matrix(1.633846, 0, 0, -1.625243, 29.71839, 46.55508)"/>
<path fill-rule="nonzero" fill="rgb(100%, 0%, 0%)" fill-opacity="1" stroke-width="0.3985" stroke-linecap="butt" stroke-linejoin="miter" stroke="rgb(100%, 0%, 0%)" stroke-opacity="1" stroke-miterlimit="10" d="M -2.390611 0.000241502 C -2.390611 2.593604 -4.492151 4.696655 -7.086203 4.696655 C -9.680255 4.696655 -11.784187 2.593604 -11.784187 0.000241502 C -11.784187 -2.593121 -9.680255 -4.696172 -7.086203 -4.696172 C -4.492151 -4.696172 -2.390611 -2.593121 -2.390611 0.000241502 Z M -2.390611 0.000241502 " transform="matrix(1.633846, 0, 0, -1.625243, 29.71839, 46.55508)"/>
<path fill-rule="nonzero" fill="rgb(0%, 0%, 100%)" fill-opacity="1" stroke-width="0.3985" stroke-linecap="butt" stroke-linejoin="miter" stroke="rgb(0%, 0%, 100%)" stroke-opacity="1" stroke-miterlimit="10" d="M 11.782237 0.000241502 C 11.782237 2.593604 9.680696 4.696655 7.086644 4.696655 C 4.492592 4.696655 2.391052 2.593604 2.391052 0.000241502 C 2.391052 -2.593121 4.492592 -4.696172 7.086644 -4.696172 C 9.680696 -4.696172 11.782237 -2.593121 11.782237 0.000241502 Z M 11.782237 0.000241502 " transform="matrix(1.633846, 0, 0, -1.625243, 29.71839, 46.55508)"/>
</svg>
