<?xml version="1.0" encoding="UTF-8"?>
<svg xmlns="http://www.w3.org/2000/svg" xmlns:xlink="http://www.w3.org/1999/xlink" width="40pt" height="55pt" viewBox="0 0 40 55"><!--latexit:AAAHPnjafVRrbBRVFL63dyh0eey2vN+DXbTlUbdQKLYCLdQCQpfH9rHt7rLenbm7
HTo7M8zcoWzHNfeHIZrIPyNKDEqJCRiDj4gx/uCXqDGGYGmMCTHKLxJjYuJfTfTM
7oJbIMxks/ec+91zz3fOdyZj6ZrDI5FpXEOkWbWzA/HwKWY7mmkMh6mtjGpg9Ye5
acXDZuYEU7jTgPCZ99OhYDR2kBWY2l0B/Tinrt82TS7wx6F1c+etf/qZpuYNGzdt
bnl2W+fzXT0vHjx6bCRxnLLsibzF3YGw4er67fkLgqEV4aForGWMFZwR+K9cMhhW
dOo4V+obFi5avGTpsuWiRhAhiVmiVswWc0SdCFxZuWr1mrXyuqcaxVwxTywQQVEv
VoiVYrVYI+R4hjpM1ww2oJi6affnTZUNcI3rLG7ZjOYzOkvlac7QsppCOdDtVyln
QCtDlbGcbbqGutc/OOKYrq2wfnaaN6LKczvSGtyytW0gGju2b08yGisBYxZVWG9E
hheFsJg/tb19x3MjZRoGzbN4ecmcocqByR0d8WjscIlvqGYquHPX7mEogMNtzciJ
0BEI0L2nVOc+l1PIN1baudS91z9XNm6/EOzdt//AAxuS6eawyricOaJBLBcL0/X4
clI1FTfPDF5KIdEasXjKozbXFJ0VA0nXYZD8GM2xBCz9ZJ2UVypbUV4PHlXOmjb8
DC6XvNUnPJp3nEI+A8g85aPOw3u+83F7CZdnd6Q8zbAgVUMpX5R1dZmbMi9YTFY1
GwqjF2BBFVuDXGVllNpU4SDPGbf4sS06Yc5g4nFtbOJRz2ZFnek86frifRSocfCV
svNGTSvb4vscXtCZUwysl6vR9+VUDASSBhtXzHyeGqqXBFkVE60pL1ninvUaW4sQ
sodBD2zWB77DFrMpN20vqalFD34Bfx4ORY9c7BOLLh4Wi8WywWisF8o+HesfCA4O
xYfBjmkTDPqd7dVpzgE7Cu1q7GoqKzMUEkvE0sE+06CKCQJKpioRJpMdYKZfAoH0
aIqvd2oXJtO+M6OkQw1VulHLUppUOx7rb+zaU75rKhcc1fzR5Rpk0P1tIfu6t+u8
WAUhx3S4tgfmaXKswx8WY2tbb6sMLxLzfcme3H9ArK2I82wyw3KaUSq6Bam5Nism
fCOr5VKBusqulQP56bQArfIMGOXyMlBXl/QtOVFqzU4bpKqaPCU3tTXLlMtNmyMt
2zbJkWbZK3Y+DM7oLqugt5XRTwAbpsEAuL067JYnIdurQt4HJhnooorJY9kxNVfF
TrXpeBW7MjMYkabtLQrMM7ObOx+G+bzKnHxcexXukftLjurCB6B5p8bToYUPPjr/
q+XSqXQHmoPq0QoURs1oC2pHB9AhdBTF0DgqolfRG+gcuoAuow/RR+gq+gR9hj5H
X6Av0Vfoa/QN+g59j35AN9EtNIWm0U/oZ3QX3UN/oL/Q37gOL8Ay3ojbcCfuxlE8
gIfwMD6ONWzjCVzEZ/Br+Cw+h9/B5/F7+FN8DV/HN/BNfAf/gn/Fd8lZ8iZ5i7xN
zpN3yQXyAblKrpHr5Aa5SW6RKTJN7pDfyD3yO/mT/EP+lSRpubRKapU6pN3SPumI
dEwako5LVBqVTOmkdFqakF6WXqkN1i6q3VBWeg2ufPhPoxlPbct/zKVkqQ==-->
<path fill="none" stroke-width="0.3985" stroke-linecap="butt" stroke-linejoin="miter" stroke="rgb(100%, 0%, 0%)" stroke-opacity="1" stroke-miterlimit="10" d="M -7.086594 4.896301 L -7.086594 28.347685 " transform="matrix(1.655172, 0, 0, -1.636364, 20.06547, 46.691818)"/>
<path fill="none" stroke-width="0.3985" stroke-linecap="butt" stroke-linejoin="miter" stroke="rgb(0%, 0%, 100%)" stroke-opacity="1" stroke-miterlimit="10" d="M 7.087726 4.896301 L 7.087726 28.347685 " transform="matrix(1.655172, 0, 0, -1.636364, 20.06547, 46.691818)"/>
<path fill-rule="nonzero" fill="rgb(100%, 0%, 0%)" fill-opacity="1" stroke-width="0.3985" stroke-linecap="butt" stroke-linejoin="miter" stroke="rgb(100%, 0%, 0%)" stroke-opacity="1" stroke-miterlimit="10" d="M -2.390141 0.000251625 C -2.390141 2.592699 -4.492925 4.69578 -7.086594 4.69578 C -9.680264 4.69578 -11.783047 2.592699 -11.783047 0.000251625 C -11.783047 -2.594583 -9.680264 -4.695277 -7.086594 -4.695277 C -4.492925 -4.695277 -2.390141 -2.594583 -2.390141 0.000251625 Z M -2.390141 0.000251625 " transform="matrix(1.655172, 0, 0, -1.636364, 20.06547, 46.691818)"/>
<path fill-rule="nonzero" fill="rgb(0%, 0%, 100%)" fill-opacity="1" stroke-width="0.3985" stroke-linecap="butt" stroke-linejoin="miter" stroke="rgb(0%, 0%, 100%)" stroke-opacity="1" stroke-miterlimit="10" d="M 11.784179 0.000251625 C 11.784179 2.592699 9.681395 4.69578 7.087726 4.69578 C 4.494056 4.69578 2.391273 2.592699 2.391273 0.000251625 C 2.391273 -2.594583 4.494056 -4.695277 7.087726 -4.695277 C 9.681395 -4.695277 11.784179 -2.594583 11.784179 0.000251625 Z M 11.784179 0.000251625 " transform="matrix(1.655172, 0, 0, -1.636364, 20.06547, 46.691818)"/>
</svg>
