<?xml version="1.0" encoding="UTF-8"?>
<svg xmlns="http://www.w3.org/2000/svg" xmlns:xlink="http://www.w3.org/1999/xlink" width="215pt" height="61pt" viewBox="0 0 215 61"><!--latexit:AAAHfXjabVVbbBRVGD6nHAoslN223K9TuuUivWxbkFoosvRGobtAt9vdtrOsszNn
d6edW2fOdrudTHIeDOFBExMTiT6olJiAMSpGifGBJxU1hmhBQ2IM4UV5MDFqfPLF
M7OFUmAmO3PO99/P//2zGUORLRIK3YEVy9DyyhW+ZHAam5asa6NBwRTzMtsNB4lu
JIN6ZgKLxKoB8Py76YA/GjuFS1gKLyj9uHLVsKnrhMKPAnWr1zTs3rN333P7G5ua
Ww4ePnKs5+Sps0Nj4+cEnJ1QDVKIB7WCotyuWusPbAkmorHmSVyyxth7IchIUFQE
y7paXVO7bv2GjZs20wq6jCK6nFbSFXQlXUV9V7du275jJ1e3q56upmvoWuqn1XQL
3Uq30x2US2YECyuyhuOirujmsKpLOE5kouCkYWJBzSg4pQo5Tc7KokBYucOSQDAr
KyOIkzlTL2hSt2s4ZukFU8TDeIbUg4XrdqjV39Z+IB6NDfUf56MxTzFmCCLuC3Hs
BgFIq+afP9Txwli5DE1QcbK8xFZiwWCuozMZjZ326g1UzPu7jr44yg7AIqas5Wjg
DHMQPu6dc6RABJZvzJNcDne7duXN7V5/X/+JgUd7lkyYsFWmQLBFa+hmWpuurtjJ
S7pYULFGvBTGW0MGSdmCSWRRwY6PL1iYJT8p5PA4W7rJWinbOzaHa2CIxGV1k/00
wnno4xa2oFpWSc0wTVUgeetJmQs+SzZeINmOlC1rBktVE8uBsgWFIzpHSgbmJNlk
B6OU2EIQTZnlyol5wRREwui5JIrr2xBm9SWV2ESenF2KZAqWZTCKZq2nNZtEyXnK
qWk9qTpVcKn+tLlMGObVYud1I9vsYhYpKfgJ+4fUc3w+vgezbpi4jx1rn6DKSsmO
O7Yqa47tLBHG8oKBH8lUx2bPI01HuYKkTrSHPG0Ta7go6qoqaBJf0m2+jieMsLYb
2m3bUmve7Zeu2HvaQocch69z3DEcjJ65FKHrLp2m6+mmkWjMjXwnNhz3jySSo2wf
k2cxo1m2TxFyFttHGUvqj+0tD0QgQDfQjSMRXRNEnfGWTy14mOM72Tb9EuNljyy6
YyaYpbm0C2bEdKDmMbpKZQbPSZ3PxOuPHS/Hms/587L7xSAyyyB888GloTfOv0e3
MZeTCgvbw8Z4brLTnVGt/UBfK8duQKvcSZk6MUB3lmcCxhu4PCGG1dnSMtXsdbVZ
MIyW+qmuxGzYipZmMhG5WBzsPikm+1vzUn++lEkSY+xEazbSfVIa7LOKgz1ha0CZ
EXGiI7eI9S5iMQ8reZgWkZOxmUy0uzjDfIYGlJCVmO21It1F+UxZb8bTmwh5epFS
MfTM2Ew3ebary8eP8xmckzWPfYy746IpqAaWUj6OsxkFuJDD7ebsLu/Je2RWbVly
0i6+m+P5h3qti3qWKyFMwAumqRfHdy0xbHV2NXJZU1e72praG9mYsvfBlI/HmvQw
CT7FmjBdTAdqH32zFrt+eTrdCVaCarAFBME+0AYOgQEwCM6CGCgCB7wMXgEXwdvg
CngffAA+BB+DT8Cn4Dr4HHwBvgRfg2/Ad+B7cAv8AObBHfAzuAvug9/BH+Bv8B9c
BddCDu6HB+BhGIZRGIcJOArPQRmacBY68Dy8AF+FF+Gb8C34DrwGP4M34FfwFvwF
/grvwfsIodWoCvlRNapF69E21IAa0UF0BPWifjSATqEhlEDnkICyyELTyEavodfR
FXQNXUc30E30LbqFfkJ30T30G3qA/kR/oX/Qv5XRylilXGZsBVz435gBS65K9X+v
GYN0-->
<defs>
<g>
<g id="glyph-0-0">
<path d="M 7 -1.484375 C 7 -1.015625 6.984375 -0.640625 6.828125 -0.421875 C 6.640625 -0.125 6.203125 0.234375 5.59375 0.296875 C 5 0.34375 4.359375 0.28125 4.09375 -0.09375 C 3.875 -0.390625 3.84375 -0.890625 4.0625 -1.15625 C 4.390625 -1.609375 5.484375 -1.578125 6.359375 -1.546875 C 6.59375 -1.53125 6.8125 -1.515625 7 -1.484375 Z M 7 -2.015625 C 6.8125 -2.03125 6.59375 -2.03125 6.375 -2.03125 C 5.46875 -2.046875 4.328125 -1.953125 3.84375 -1.3125 C 3.5625 -0.921875 3.59375 -0.328125 3.875 0.0625 C 4.234375 0.546875 4.953125 0.765625 5.640625 0.703125 C 6.3125 0.671875 7.0625 0.5625 7.453125 -0.03125 C 7.71875 -0.421875 7.765625 -0.875 7.734375 -1.359375 C 7.890625 -1.328125 8.015625 -1.296875 8.125 -1.28125 C 8.5 -1.171875 8.84375 -1.03125 9.171875 -0.875 C 9.5 -0.71875 9.8125 -0.484375 10.140625 -0.296875 C 10.5 -0.09375 10.875 -0.109375 10.984375 -0.34375 C 11.109375 -0.578125 10.921875 -0.90625 10.5625 -1.09375 C 10.21875 -1.28125 9.84375 -1.390625 9.484375 -1.546875 C 9.09375 -1.703125 8.6875 -1.8125 8.28125 -1.890625 C 8.078125 -1.9375 7.890625 -1.96875 7.6875 -1.984375 C 7.65625 -2.265625 7.625 -2.515625 7.609375 -2.796875 C 7.5625 -3.46875 7.578125 -4.171875 7.59375 -4.84375 C 8.015625 -4.765625 8.421875 -4.65625 8.84375 -4.71875 C 9.390625 -4.796875 9.90625 -4.890625 10.375 -5.0625 C 10.703125 -5.15625 10.90625 -5.40625 10.828125 -5.59375 C 10.75 -5.796875 10.453125 -5.859375 10.15625 -5.765625 C 9.671875 -5.59375 9.234375 -5.359375 8.78125 -5.28125 C 8.40625 -5.21875 8.015625 -5.09375 7.609375 -5.046875 C 7.625 -5.5625 7.640625 -6.046875 7.625 -6.421875 C 7.625 -6.75 7.703125 -7.078125 7.53125 -7.390625 C 7.34375 -7.8125 6.765625 -7.9375 6.453125 -8.265625 C 6.375 -8.328125 6.296875 -8.359375 6.25 -8.328125 C 6.21875 -8.296875 6.234375 -8.203125 6.28125 -8.125 C 6.546875 -7.765625 6.578125 -7.203125 6.6875 -6.96875 C 6.765625 -6.796875 6.921875 -6.65625 6.953125 -6.375 C 7.015625 -5.578125 6.90625 -4.09375 6.96875 -2.75 C 6.984375 -2.484375 7 -2.25 7 -2.015625 Z M 7 -2.015625 "/>
</g>
<g id="glyph-1-0">
<path d="M 3.78125 -9.984375 C 1.546875 -9.984375 0.421875 -8.203125 0.421875 -4.6875 C 0.421875 -3 0.71875 -1.53125 1.21875 -0.828125 C 1.71875 -0.109375 2.53125 0.296875 3.421875 0.296875 C 5.578125 0.296875 6.671875 -1.59375 6.671875 -5.296875 C 6.671875 -8.46875 5.75 -9.984375 3.78125 -9.984375 Z M 3.515625 -9.46875 C 4.90625 -9.46875 5.46875 -8.046875 5.46875 -4.578125 C 5.46875 -1.484375 4.921875 -0.21875 3.609375 -0.21875 C 2.21875 -0.21875 1.625 -1.6875 1.625 -5.21875 C 1.625 -8.265625 2.15625 -9.46875 3.515625 -9.46875 Z M 3.515625 -9.46875 "/>
</g>
<g id="glyph-1-1">
<path d="M 2.703125 -6.734375 L 2.578125 -6.796875 C 1.84375 -6.484375 1.09375 -6.28125 0.328125 -6.203125 L 0.328125 -5.796875 L 0.859375 -5.796875 C 1.4375 -5.796875 1.5 -5.6875 1.5 -4.734375 L 1.5 -1.484375 C 1.5 -0.5625 1.453125 -0.46875 0.96875 -0.4375 L 0.296875 -0.390625 L 0.296875 0.046875 C 1.734375 0 1.734375 0 2.09375 0 C 2.453125 0 2.453125 0 3.890625 0.046875 L 3.890625 -0.390625 L 3.234375 -0.4375 C 2.75 -0.46875 2.703125 -0.5625 2.703125 -1.484375 Z M 2.03125 -9.953125 C 1.609375 -9.953125 1.234375 -9.578125 1.234375 -9.140625 C 1.234375 -8.71875 1.609375 -8.34375 2.03125 -8.34375 C 2.4375 -8.34375 2.828125 -8.71875 2.828125 -9.140625 C 2.828125 -9.546875 2.4375 -9.953125 2.03125 -9.953125 Z M 2.03125 -9.953125 "/>
</g>
<g id="glyph-1-2">
<path d="M 5.921875 -6.328125 C 5.109375 -6.671875 4.703125 -6.796875 4.203125 -6.796875 C 3.8125 -6.796875 3.46875 -6.703125 3.109375 -6.515625 L 1.859375 -5.859375 C 1.03125 -5.421875 0.5 -4.359375 0.5 -3.125 C 0.5 -1.96875 0.890625 -1.015625 1.59375 -0.4375 C 2.078125 -0.015625 2.75 0.171875 3.6875 0.171875 C 3.984375 0.171875 4.3125 0.109375 4.375 0.0625 L 5.96875 -1.296875 L 5.90625 0.046875 C 6.609375 0.015625 6.828125 0 7 0 C 7.125 0 7.328125 0 7.625 0.015625 C 7.71875 0.03125 8.015625 0.03125 8.3125 0.046875 L 8.3125 -0.390625 L 7.65625 -0.4375 C 7.171875 -0.46875 7.125 -0.5625 7.125 -1.484375 L 7.125 -10.40625 L 7 -10.515625 C 6.359375 -10.265625 5.890625 -10.15625 4.75 -9.984375 L 4.75 -9.578125 L 5.5625 -9.578125 C 5.8125 -9.578125 5.921875 -9.421875 5.921875 -8.984375 Z M 5.921875 -3.203125 C 5.921875 -2.265625 5.890625 -2.109375 5.703125 -1.78125 C 5.296875 -1.09375 4.59375 -0.65625 3.921875 -0.65625 C 2.65625 -0.65625 1.75 -1.890625 1.75 -3.609375 C 1.75 -5.1875 2.53125 -6.109375 3.8125 -6.109375 C 4.359375 -6.109375 4.9375 -5.921875 5.4375 -5.578125 C 5.75 -5.375 5.921875 -5.1875 5.921875 -5.0625 Z M 5.921875 -3.203125 "/>
</g>
<g id="glyph-1-3">
<path d="M 0.96875 -8.03125 L 1.109375 -8.03125 L 2.953125 -8.875 C 2.96875 -8.890625 2.984375 -8.890625 3 -8.890625 C 3.09375 -8.890625 3.109375 -8.765625 3.109375 -8.421875 L 3.109375 -1.390625 C 3.109375 -0.640625 2.953125 -0.484375 2.1875 -0.4375 L 1.375 -0.390625 L 1.375 0.046875 C 3.59375 0 3.59375 0 3.75 0 C 3.9375 0 4.25 0 4.734375 0.015625 C 4.90625 0.03125 5.40625 0.03125 6 0.046875 L 6 -0.390625 L 5.25 -0.4375 C 4.46875 -0.484375 4.328125 -0.640625 4.328125 -1.390625 L 4.328125 -9.984375 L 4.125 -10.046875 C 3.1875 -9.5625 2.171875 -9.125 0.859375 -8.65625 Z M 0.96875 -8.03125 "/>
</g>
<g id="glyph-2-0">
<path d="M 10.28125 -4.9375 C 10.515625 -4.9375 10.796875 -4.9375 10.796875 -5.234375 C 10.796875 -5.546875 10.515625 -5.546875 10.296875 -5.546875 L 1.328125 -5.546875 C 1.125 -5.546875 0.84375 -5.546875 0.84375 -5.234375 C 0.84375 -4.9375 1.125 -4.9375 1.34375 -4.9375 Z M 10.296875 -2 C 10.515625 -2 10.796875 -2 10.796875 -2.3125 C 10.796875 -2.609375 10.515625 -2.609375 10.28125 -2.609375 L 1.34375 -2.609375 C 1.125 -2.609375 0.84375 -2.609375 0.84375 -2.3125 C 0.84375 -2 1.125 -2 1.328125 -2 Z M 10.296875 -2 "/>
</g>
<g id="glyph-3-0">
<path d="M 2.875 -7.59375 C 1.171875 -7.59375 0.3125 -6.234375 0.3125 -3.5625 C 0.3125 -2.28125 0.546875 -1.171875 0.921875 -0.625 C 1.3125 -0.09375 1.921875 0.21875 2.59375 0.21875 C 4.25 0.21875 5.078125 -1.21875 5.078125 -4.03125 C 5.078125 -6.4375 4.359375 -7.59375 2.875 -7.59375 Z M 2.671875 -7.203125 C 3.734375 -7.203125 4.15625 -6.125 4.15625 -3.484375 C 4.15625 -1.140625 3.734375 -0.171875 2.734375 -0.171875 C 1.671875 -0.171875 1.234375 -1.28125 1.234375 -3.96875 C 1.234375 -6.296875 1.640625 -7.203125 2.671875 -7.203125 Z M 2.671875 -7.203125 "/>
</g>
<g id="glyph-3-1">
<path d="M 2.046875 -5.125 L 1.953125 -5.171875 C 1.390625 -4.9375 0.828125 -4.78125 0.25 -4.71875 L 0.25 -4.40625 L 0.65625 -4.40625 C 1.09375 -4.40625 1.140625 -4.328125 1.140625 -3.609375 L 1.140625 -1.125 C 1.140625 -0.421875 1.09375 -0.359375 0.734375 -0.328125 L 0.234375 -0.296875 L 0.234375 0.03125 C 1.3125 0 1.3125 0 1.59375 0 C 1.859375 0 1.859375 0 2.953125 0.03125 L 2.953125 -0.296875 L 2.453125 -0.328125 C 2.078125 -0.359375 2.046875 -0.421875 2.046875 -1.125 Z M 1.546875 -7.5625 C 1.21875 -7.5625 0.9375 -7.28125 0.9375 -6.953125 C 0.9375 -6.625 1.21875 -6.34375 1.53125 -6.34375 C 1.859375 -6.34375 2.15625 -6.625 2.15625 -6.953125 C 2.15625 -7.265625 1.859375 -7.5625 1.546875 -7.5625 Z M 1.546875 -7.5625 "/>
</g>
<g id="glyph-3-2">
<path d="M 4.5 -4.8125 C 3.875 -5.078125 3.578125 -5.171875 3.203125 -5.171875 C 2.90625 -5.171875 2.640625 -5.09375 2.359375 -4.953125 L 1.40625 -4.453125 C 0.78125 -4.125 0.375 -3.3125 0.375 -2.375 C 0.375 -1.5 0.671875 -0.765625 1.203125 -0.328125 C 1.578125 -0.015625 2.09375 0.125 2.796875 0.125 C 3.015625 0.125 3.265625 0.09375 3.328125 0.046875 L 4.53125 -0.984375 L 4.484375 0.03125 C 5.015625 0.015625 5.1875 0 5.328125 0 C 5.40625 0 5.5625 0 5.796875 0.015625 C 5.875 0.015625 6.078125 0.015625 6.3125 0.03125 L 6.3125 -0.296875 L 5.8125 -0.328125 C 5.4375 -0.359375 5.40625 -0.421875 5.40625 -1.125 L 5.40625 -7.90625 L 5.3125 -8 C 4.828125 -7.8125 4.46875 -7.71875 3.609375 -7.59375 L 3.609375 -7.28125 L 4.21875 -7.28125 C 4.421875 -7.28125 4.5 -7.15625 4.5 -6.828125 Z M 4.5 -2.4375 C 4.5 -1.71875 4.46875 -1.609375 4.328125 -1.359375 C 4.03125 -0.84375 3.484375 -0.5 2.984375 -0.5 C 2.015625 -0.5 1.328125 -1.4375 1.328125 -2.75 C 1.328125 -3.9375 1.921875 -4.65625 2.90625 -4.65625 C 3.3125 -4.65625 3.75 -4.5 4.140625 -4.234375 C 4.359375 -4.09375 4.5 -3.9375 4.5 -3.859375 Z M 4.5 -2.4375 "/>
</g>
<g id="glyph-4-0">
<path d="M 0.4375 -2.140625 C 0.375 -1.40625 0.28125 -0.890625 0.125 -0.234375 C 0.671875 0.03125 1.15625 0.15625 1.671875 0.15625 C 2.375 0.15625 3.03125 -0.09375 3.765625 -0.6875 C 4.5 -1.265625 4.796875 -1.796875 4.796875 -2.515625 C 4.796875 -3.296875 4.34375 -3.71875 3.28125 -3.921875 L 2.65625 -4.046875 C 1.796875 -4.203125 1.515625 -4.453125 1.515625 -5.046875 C 1.515625 -5.8125 2.171875 -6.40625 2.984375 -6.40625 C 3.578125 -6.40625 4.125 -6.140625 4.34375 -5.75 L 4.34375 -4.953125 L 4.6875 -4.953125 C 4.734375 -5.453125 4.796875 -5.859375 4.953125 -6.59375 C 4.390625 -6.859375 3.984375 -6.984375 3.515625 -6.984375 C 2.765625 -6.984375 1.890625 -6.546875 1.203125 -5.859375 C 0.828125 -5.453125 0.671875 -5.09375 0.671875 -4.578125 C 0.671875 -3.765625 1.125 -3.296875 2.0625 -3.109375 L 2.96875 -2.9375 C 3.609375 -2.828125 3.828125 -2.5625 3.828125 -2 C 3.828125 -1.0625 3.171875 -0.421875 2.15625 -0.421875 C 1.65625 -0.421875 1.203125 -0.578125 0.796875 -0.921875 L 0.796875 -2.140625 Z M 0.4375 -2.140625 "/>
</g>
<g id="glyph-4-1">
<path d="M 1.796875 -5.65625 L 0.984375 -1.546875 C 0.96875 -1.453125 0.96875 -1.421875 0.921875 -1.25 C 0.828125 -0.84375 0.796875 -0.625 0.796875 -0.453125 C 0.796875 -0.09375 0.96875 0.125 1.234375 0.125 C 1.734375 0.125 2.234375 -0.15625 3.359375 -1.078125 L 3.578125 -1.25 L 3.8125 -1.4375 L 3.65625 -1.6875 L 3.015625 -1.25 C 2.59375 -0.953125 2.3125 -0.8125 2.15625 -0.8125 C 2.03125 -0.8125 1.953125 -0.921875 1.953125 -1.09375 C 1.953125 -1.484375 2.15625 -2.65625 2.578125 -4.75 L 2.75 -5.65625 L 4.296875 -5.65625 L 4.453125 -6.375 C 3.90625 -6.3125 3.421875 -6.28125 2.875 -6.28125 C 3.109375 -7.640625 3.265625 -8.359375 3.515625 -9.140625 L 3.359375 -9.359375 C 3.078125 -9.1875 2.6875 -9.015625 2.234375 -8.828125 L 1.875 -6.375 C 1.25 -6.0625 0.875 -5.90625 0.625 -5.84375 L 0.59375 -5.65625 Z M 1.796875 -5.65625 "/>
</g>
<g id="glyph-5-0">
<path d="M 0.578125 -4.828125 L 0.65625 -4.828125 L 1.78125 -5.328125 C 1.78125 -5.328125 1.796875 -5.328125 1.796875 -5.328125 C 1.84375 -5.328125 1.875 -5.25 1.875 -5.046875 L 1.875 -0.828125 C 1.875 -0.375 1.78125 -0.28125 1.3125 -0.265625 L 0.828125 -0.234375 L 0.828125 0.03125 C 2.15625 0 2.15625 0 2.25 0 C 2.359375 0 2.546875 0 2.84375 0.015625 C 2.9375 0.015625 3.25 0.015625 3.59375 0.03125 L 3.59375 -0.234375 L 3.15625 -0.265625 C 2.671875 -0.28125 2.59375 -0.375 2.59375 -0.828125 L 2.59375 -5.984375 L 2.46875 -6.03125 C 1.90625 -5.734375 1.296875 -5.46875 0.515625 -5.1875 Z M 0.578125 -4.828125 "/>
</g>
</g>
<clipPath id="clip-0">
<path clip-rule="nonzero" d="M 0 2 L 8 2 L 8 12 L 0 12 Z M 0 2 "/>
</clipPath>
<clipPath id="clip-1">
<path clip-rule="nonzero" d="M 0 51 L 8 51 L 8 61 L 0 61 Z M 0 51 "/>
</clipPath>
<clipPath id="clip-2">
<rect x="0" y="0" width="215" height="61"/>
</clipPath>
<g id="source-5" clip-path="url(#clip-2)">
<g clip-path="url(#clip-0)">
<g fill="rgb(0%, 0%, 0%)" fill-opacity="1">
<use xlink:href="#glyph-0-0" x="-3.611017" y="10.60852"/>
</g>
</g>
<g fill="rgb(0%, 0%, 0%)" fill-opacity="1">
<use xlink:href="#glyph-1-0" x="8.350384" y="10.60852"/>
</g>
<g fill="rgb(0%, 0%, 0%)" fill-opacity="1">
<use xlink:href="#glyph-2-0" x="58.793283" y="10.60852"/>
</g>
<g fill="rgb(0%, 0%, 0%)" fill-opacity="1">
<use xlink:href="#glyph-1-1" x="113.682431" y="10.60852"/>
<use xlink:href="#glyph-1-2" x="117.861047" y="10.60852"/>
</g>
<g fill="rgb(0%, 0%, 0%)" fill-opacity="1">
<use xlink:href="#glyph-3-0" x="126.634321" y="13.144828"/>
</g>
<g clip-path="url(#clip-1)">
<g fill="rgb(0%, 0%, 0%)" fill-opacity="1">
<use xlink:href="#glyph-0-0" x="-3.611017" y="60.26431"/>
</g>
</g>
<g fill="rgb(0%, 0%, 0%)" fill-opacity="1">
<use xlink:href="#glyph-1-3" x="8.350384" y="60.26431"/>
</g>
<g fill="rgb(0%, 0%, 0%)" fill-opacity="1">
<use xlink:href="#glyph-2-0" x="58.793283" y="60.26431"/>
</g>
<g fill="rgb(0%, 0%, 0%)" fill-opacity="1">
<use xlink:href="#glyph-4-0" x="120.453851" y="60.26431"/>
</g>
<g fill="rgb(0%, 0%, 0%)" fill-opacity="1">
<use xlink:href="#glyph-4-1" x="210.530457" y="60.26431"/>
</g>
<path fill="none" stroke-width="0.3985" stroke-linecap="butt" stroke-linejoin="miter" stroke="rgb(0%, 0%, 0%)" stroke-opacity="1" stroke-miterlimit="10" d="M 16.425815 -17.968208 L 68.024356 -17.968208 " transform="matrix(1.441341, 0, 0, -1.454305, 107.1373, 30.50937)"/>
<path fill="none" stroke-width="0.3985" stroke-linecap="round" stroke-linejoin="round" stroke="rgb(0%, 0%, 0%)" stroke-opacity="1" stroke-miterlimit="10" d="M -2.07163 2.39136 C -1.694919 0.957041 -0.849352 0.280171 -0.00107539 0.000827887 C -0.849352 -0.278515 -1.694919 -0.955385 -2.07163 -2.389704 " transform="matrix(1.441341, 0, 0, -1.454305, 205.4703, 56.641829)"/>
<g fill="rgb(0%, 0%, 0%)" fill-opacity="1">
<use xlink:href="#glyph-3-1" x="160.850315" y="50.622267"/>
<use xlink:href="#glyph-3-2" x="164.026073" y="50.622267"/>
</g>
<g fill="rgb(0%, 0%, 0%)" fill-opacity="1">
<use xlink:href="#glyph-5-0" x="170.693233" y="52.902618"/>
</g>
</g>
</defs>
<use xlink:href="#source-5"/>
</svg>
