<?xml version="1.0" encoding="UTF-8"?>
<svg xmlns="http://www.w3.org/2000/svg" xmlns:xlink="http://www.w3.org/1999/xlink" width="225pt" height="103pt" viewBox="0 0 225 103"><!--latexit:AAAJQ3jajVVLbNzGGZ6RJ4ksx96VH0n8SExL8iuRpZXWjmzFSiytRInSam2JenBX
XCtccrhLLV/mzGp3RSzAQxDk0AIFegiSQx7KJSmKtinaoOghp7ZJi8JobbcwEARB
LmkOBZK26KmXDrmybMnOgwTJmX++7/+/mfn/YcE1DUITiVuwZQd66OFH2qSuVewR
w7GzXYqnlgzWm+uijit1OYUVrFKyF8CX31qOxzLiFK5jbXgD9NfWnXOe49AA/jx+
bNejx0+cPHX66We6z/T0nnvu4qXRyamZ2dzSVQXrK5ZLK/NddsU0b+7eE4sf6lrM
iD1lXCc59t0IstClmgoh77Xv3bf/wGOPP3EwaAl2BCh4KHg4eCRoDXYGbe8dPvLk
U0e5Yx2dwa7g0WBPEAvag0PB4eDJ4KmAkwoKwaZh43nVMR1vznI0PE8NamLJ9bBi
FUyct5SibeiGqlA23TlNoZhNq6Co5aLnVGwtFRJzxKl4Kp7DNdoJNq6bib5Yf/Ls
fEacHR+RM2IEFF1FxXyCYzeIw2D3jWcHzl/INadhKxaWmk1MFjcI6+cHpYx4OZpv
vOVGbOj5F7JsAQj1DLsYxK8wB8Mj0TpPV6jC9IrRyDvDqZDX7Nwci/HjE8Jmn4kZ
pqxVqFBMgr3BwWDfcnvLUVlz1IqFbRpJWOpLuDTvKx41VBM32uQKwUx8WSniJdYM
xZK8Hy1bgzvOLBqnOx57bMpF1nsZvmIRUrcKDGkptES2j4XGB40tVah+Pu8btsuk
2mozkF4xOepwtO5iTjM8tjBmnTUU1TOYVk4tKZ6iUpaeW6KEvl1lzdkyE58a5bWt
lkKFEJelqE7uR55RtcZ9Tj2yHXqtEqb6/XSDMls0F7/kuHpPaCO0buJt/Dup12hr
k0cx2w0P82xZecUyzLo/3/Atw274jS2DYklx8eaY1fDZ++KZ57mKZq0kExHawzau
qo5lKbYm1x1fPiZTlrB+GDrctq1sOdwvx/RP9icGGg35WCMsw3TmytvTwf63LwcH
gicWMmIY+ZY4Nx9bWJSyrC8aa5ilmc6bSpGwfoZlSeelU82CiMeDx4LHF6YdW1Ed
lrdyfsPDujzIussvsrwcNdSwzBSvvr4cGgvqcnzvPemqNTN4XRt8oL3z0kgz1o1i
rGSEJwY1mILhj7588/bHr3wdHGEuyyYLO8rKeL08GNaonTzL93HsBsHusFKuTQjB
0WZN7Dh8nCtR6pLB3t5rPdGu9iiu29t5bWhxbZhkUrXCdKpaTacmVYkfmVNSJVUa
z5S01MjolMjaE+aqwBeJMJZ1BTNBQs60UTUkvjYz31902HclK80UZ+rlsH2uUB/J
pVMj41PipJbmST09OkyEci7b5AoRd9YsG5LI4orfEXc8e0/c6SbXyhrp0ch3NT0q
EMGsqYVFPqFMTFJhrKTjviKZtRNGGBfXJ1dzVm4tJ80Yl41ETV8I/YyR6Xqkn2al
WUe1EkWRvzCwKNbGdZHpS9UGBOuClbMzppYSnk3P8RcirfVqLZ0SvsVvyK0agsFw
E8Qo9OcstX8hIaw4dFrq06SZoaE2eUku4KJhR5XE6nBJ9RTLxVq+jeN8+YpYOiWz
I5pLnT7FcpuTujn+dIM7cYLjJU6WGSZ63Q/M3gVmQ5TieU51qcOXo9K2uIllX+rm
G42Obo6UDJ1yJtZpN6d7jjXUd6avm51E7JvM3+U+AJbcgPXlt4TYrkWPtHRs0JKb
3rfR7irLfpOyO9zkFmUdvN5xchOR/D7a78CSoQgZ29qd5ZfzrJRWq8vxfZt/nru1
+87q8iBoBe3gEOgCp0E/GAACSIMZIIIqaICXwA/Aq+AN8C74Cfgp+Bn4Bfgl+BX4
APwG/Bb8DvwBfAz+BP4MroO/gBvgFvg7uA0+B/8A/wT/Bv+DO+EeyMFn4Fn4HByG
GTgPF2EWXoUG9OAabMCX4Svwh/BV+Bp8Hb4J34e/hh/C38Pr8BP4KfwMfo4Q2oV2
oxhqR/vQAXQEHUfd6By6iMbQOBLQFJpFi+gqUpCOCFpFPvoR+jF6F72PPkAfoo/Q
H9F19Dd0G32GvkBfoq/Qv9B/0H9b97cebO1tnjstcOPvXwNbrtbk/wH22hW4-->
<defs>
<g>
<g id="glyph-0-0">
<path d="M 5.0625 -4.171875 C 6.84375 -4.171875 8.375 -5.484375 8.375 -7.109375 C 8.375 -8.640625 6.953125 -10.015625 4.96875 -10.015625 L 1.375 -10.015625 L 1.375 0 L 2.65625 0 L 2.65625 -4.171875 Z M 4.640625 -9.21875 C 6.234375 -9.21875 7.203125 -8.328125 7.203125 -7.109375 C 7.203125 -5.96875 6.296875 -5.015625 4.640625 -5.015625 L 2.625 -5.015625 L 2.625 -9.21875 Z M 4.640625 -9.21875 "/>
</g>
<g id="glyph-0-1">
<path d="M 6.6875 -9.609375 C 5.90625 -10.09375 5.109375 -10.34375 4.0625 -10.34375 C 2.0625 -10.34375 0.8125 -8.921875 0.8125 -7.5 C 0.8125 -6.875 1 -6.265625 1.578125 -5.65625 C 2.1875 -5.015625 2.828125 -4.84375 3.671875 -4.640625 C 4.890625 -4.328125 5.03125 -4.28125 5.4375 -3.921875 C 5.734375 -3.6875 6.046875 -3.203125 6.046875 -2.578125 C 6.046875 -1.625 5.25 -0.671875 3.9375 -0.671875 C 3.359375 -0.671875 2.0625 -0.828125 0.84375 -1.84375 L 0.640625 -0.671875 C 1.90625 0.109375 3.046875 0.3125 3.953125 0.3125 C 5.859375 0.3125 7.1875 -1.140625 7.1875 -2.734375 C 7.1875 -3.671875 6.734375 -4.359375 6.421875 -4.703125 C 5.734375 -5.421875 5.265625 -5.5625 3.9375 -5.890625 C 3.109375 -6.09375 2.875 -6.15625 2.453125 -6.53125 C 2.34375 -6.609375 1.9375 -7.03125 1.9375 -7.671875 C 1.9375 -8.515625 2.71875 -9.390625 4.046875 -9.390625 C 5.25 -9.390625 5.9375 -8.90625 6.46875 -8.453125 Z M 6.6875 -9.609375 "/>
</g>
<g id="glyph-0-2">
<path d="M 6.265625 -4.296875 C 6.265625 -5.25 6.046875 -6.5625 4.28125 -6.5625 C 3.390625 -6.5625 2.703125 -6.125 2.25 -5.53125 L 2.25 -10.015625 L 1.171875 -10.015625 L 1.171875 0 L 2.28125 0 L 2.28125 -3.53125 C 2.28125 -4.484375 2.640625 -5.6875 3.734375 -5.6875 C 5.125 -5.6875 5.140625 -4.65625 5.140625 -4.203125 L 5.140625 0 L 6.265625 0 Z M 6.265625 -4.296875 "/>
</g>
<g id="glyph-0-3">
<path d="M 8.375 -1.640625 C 7.53125 -1.078125 7.03125 -0.78125 5.609375 -0.78125 C 3.546875 -0.78125 2.25 -2.9375 2.25 -5.03125 C 2.25 -6.984375 3.4375 -9.25 5.640625 -9.25 C 6.65625 -9.25 7.3125 -9.015625 8.109375 -8.5 L 8.296875 -9.6875 C 7.6875 -9.984375 6.578125 -10.171875 5.65625 -10.171875 C 3 -10.171875 0.953125 -7.921875 0.953125 -4.890625 C 0.953125 -2.609375 2.65625 0.15625 5.65625 0.15625 C 6.984375 0.15625 7.53125 -0.078125 8.46875 -0.65625 Z M 8.375 -1.640625 "/>
</g>
<g id="glyph-1-0">
<path d="M 4.953125 3.609375 C 4.953125 3.5625 4.953125 3.53125 4.703125 3.28125 C 2.828125 1.390625 2.359375 -1.453125 2.359375 -3.765625 C 2.359375 -6.375 2.921875 -8.984375 4.765625 -10.875 C 4.953125 -11.046875 4.953125 -11.078125 4.953125 -11.125 C 4.953125 -11.234375 4.90625 -11.28125 4.8125 -11.28125 C 4.65625 -11.28125 3.3125 -10.25 2.421875 -8.34375 C 1.65625 -6.6875 1.484375 -5.015625 1.484375 -3.765625 C 1.484375 -2.578125 1.640625 -0.765625 2.46875 0.9375 C 3.375 2.78125 4.65625 3.765625 4.8125 3.765625 C 4.90625 3.765625 4.953125 3.71875 4.953125 3.609375 Z M 4.953125 3.609375 "/>
</g>
<g id="glyph-1-1">
<path d="M 4.328125 -3.765625 C 4.328125 -4.9375 4.171875 -6.75 3.34375 -8.453125 C 2.4375 -10.296875 1.15625 -11.28125 1 -11.28125 C 0.90625 -11.28125 0.859375 -11.21875 0.859375 -11.125 C 0.859375 -11.078125 0.859375 -11.046875 1.140625 -10.78125 C 2.609375 -9.296875 3.46875 -6.90625 3.46875 -3.765625 C 3.46875 -1.1875 2.90625 1.453125 1.046875 3.359375 C 0.859375 3.53125 0.859375 3.5625 0.859375 3.609375 C 0.859375 3.703125 0.90625 3.765625 1 3.765625 C 1.15625 3.765625 2.5 2.734375 3.390625 0.828125 C 4.15625 -0.828125 4.328125 -2.5 4.328125 -3.765625 Z M 4.328125 -3.765625 "/>
</g>
<g id="glyph-2-0">
<path d="M 7.015625 -1.484375 C 7.015625 -1.015625 7 -0.640625 6.84375 -0.421875 C 6.65625 -0.125 6.21875 0.234375 5.609375 0.28125 C 5.015625 0.34375 4.375 0.28125 4.09375 -0.09375 C 3.890625 -0.390625 3.859375 -0.875 4.078125 -1.15625 C 4.40625 -1.609375 5.5 -1.578125 6.375 -1.546875 C 6.609375 -1.53125 6.828125 -1.515625 7.015625 -1.484375 Z M 7.015625 -2 C 6.828125 -2.015625 6.609375 -2.015625 6.390625 -2.015625 C 5.484375 -2.03125 4.328125 -1.953125 3.859375 -1.3125 C 3.5625 -0.921875 3.59375 -0.328125 3.890625 0.0625 C 4.25 0.546875 4.96875 0.765625 5.65625 0.703125 C 6.328125 0.671875 7.078125 0.5625 7.46875 -0.03125 C 7.734375 -0.421875 7.78125 -0.859375 7.75 -1.359375 C 7.90625 -1.328125 8.03125 -1.296875 8.140625 -1.265625 C 8.515625 -1.171875 8.859375 -1.03125 9.203125 -0.859375 C 9.53125 -0.71875 9.828125 -0.46875 10.15625 -0.28125 C 10.515625 -0.09375 10.890625 -0.109375 11.015625 -0.34375 C 11.140625 -0.578125 10.953125 -0.90625 10.59375 -1.09375 C 10.25 -1.265625 9.859375 -1.390625 9.5 -1.546875 C 9.109375 -1.703125 8.703125 -1.796875 8.296875 -1.890625 C 8.109375 -1.9375 7.921875 -1.96875 7.703125 -1.984375 C 7.671875 -2.25 7.640625 -2.515625 7.625 -2.78125 C 7.578125 -3.453125 7.59375 -4.15625 7.609375 -4.828125 C 8.03125 -4.75 8.453125 -4.65625 8.859375 -4.703125 C 9.40625 -4.78125 9.921875 -4.875 10.40625 -5.03125 C 10.71875 -5.140625 10.921875 -5.390625 10.84375 -5.578125 C 10.78125 -5.78125 10.46875 -5.84375 10.171875 -5.75 C 9.703125 -5.578125 9.25 -5.34375 8.796875 -5.265625 C 8.421875 -5.203125 8.03125 -5.078125 7.625 -5.03125 C 7.640625 -5.546875 7.65625 -6.015625 7.640625 -6.390625 C 7.640625 -6.734375 7.71875 -7.0625 7.5625 -7.359375 C 7.359375 -7.78125 6.78125 -7.90625 6.46875 -8.25 C 6.390625 -8.296875 6.296875 -8.328125 6.265625 -8.296875 C 6.234375 -8.265625 6.25 -8.171875 6.28125 -8.09375 C 6.5625 -7.734375 6.59375 -7.171875 6.703125 -6.9375 C 6.78125 -6.765625 6.9375 -6.640625 6.96875 -6.359375 C 7.03125 -5.5625 6.921875 -4.078125 6.984375 -2.75 C 7 -2.484375 7.015625 -2.234375 7.015625 -2 Z M 7.015625 -2 "/>
</g>
<g id="glyph-3-0">
<path d="M 5.984375 -0.359375 L 5.984375 0.046875 C 6.671875 0.015625 7.328125 0 7.921875 0 C 8.5 0 9.15625 0.015625 9.84375 0.046875 L 9.84375 -0.359375 L 9.484375 -0.390625 C 8.890625 -0.4375 8.703125 -0.53125 8.5 -0.875 L 6.046875 -5.3125 L 9.21875 -8.953125 C 9.65625 -9.421875 9.78125 -9.515625 10.15625 -9.5625 L 10.5625 -9.59375 L 10.5625 -9.984375 L 8.921875 -9.953125 C 8.75 -9.953125 8.546875 -9.953125 7.265625 -9.984375 L 7.265625 -9.59375 L 7.75 -9.5625 C 8.203125 -9.53125 8.390625 -9.453125 8.390625 -9.28125 C 8.390625 -9.125 8.3125 -9 8.0625 -8.671875 L 5.734375 -5.84375 L 4.25 -8.71875 C 4.109375 -8.984375 4.046875 -9.15625 4.046875 -9.265625 C 4.046875 -9.4375 4.234375 -9.53125 4.65625 -9.5625 L 5.1875 -9.59375 L 5.1875 -9.984375 L 4.53125 -9.96875 C 3.9375 -9.96875 3.515625 -9.953125 3.28125 -9.953125 C 3.03125 -9.953125 2.609375 -9.96875 2.015625 -9.96875 L 1.359375 -9.984375 L 1.359375 -9.59375 L 1.734375 -9.5625 C 2.453125 -9.484375 2.625 -9.390625 2.90625 -8.84375 L 5.015625 -4.953125 L 1.578125 -0.875 C 1.359375 -0.625 1.03125 -0.453125 0.6875 -0.40625 L 0.28125 -0.359375 L 0.28125 0.046875 C 1 0.015625 1.578125 0 2.09375 0 C 2.609375 0 3.1875 0.015625 3.796875 0.046875 L 3.796875 -0.359375 L 3.34375 -0.40625 C 2.796875 -0.46875 2.546875 -0.546875 2.546875 -0.71875 C 2.546875 -0.84375 2.609375 -0.96875 2.6875 -1.078125 L 5.3125 -4.421875 L 7.015625 -1.15625 C 7.15625 -0.890625 7.21875 -0.703125 7.21875 -0.578125 C 7.21875 -0.46875 7.125 -0.421875 6.765625 -0.421875 L 6.53125 -0.40625 Z M 5.984375 -0.359375 "/>
</g>
<g id="glyph-3-1">
<path d="M 4.109375 -9.328125 L 5.640625 -9.390625 C 6.53125 -9.390625 7.109375 -9.25 7.125 -9.03125 L 7.234375 -7.75 L 7.578125 -7.75 C 7.625 -8.65625 7.734375 -9.40625 7.890625 -9.953125 C 7.5625 -9.96875 7.171875 -9.984375 6.921875 -9.984375 L 6.328125 -9.96875 L 3.953125 -9.953125 L 3.546875 -9.953125 C 3.1875 -9.953125 2.609375 -9.96875 2.0625 -9.96875 L 1.359375 -9.984375 L 1.3125 -9.59375 L 2.109375 -9.5625 C 2.453125 -9.546875 2.625 -9.40625 2.625 -9.171875 C 2.625 -8.96875 2.5625 -8.5 2.484375 -8.078125 L 1.40625 -1.796875 C 1.171875 -0.46875 1.171875 -0.46875 0.578125 -0.40625 L 0.0625 -0.359375 L 0 0.046875 L 0.484375 0.03125 C 1.0625 0.015625 1.53125 0 1.828125 0 C 2.09375 0 2.5 0.015625 3.0625 0.03125 L 3.8125 0.046875 L 3.859375 -0.359375 L 2.9375 -0.40625 C 2.546875 -0.421875 2.421875 -0.53125 2.421875 -0.828125 C 2.421875 -0.90625 2.4375 -1.0625 2.453125 -1.125 L 2.96875 -4.34375 L 4.640625 -4.34375 C 5.03125 -4.34375 5.484375 -4.328125 6.171875 -4.296875 L 6.546875 -4.28125 L 6.828125 -4.9375 L 6.765625 -5.03125 C 5.59375 -4.984375 4.734375 -4.953125 3.609375 -4.953125 L 3.078125 -4.953125 L 3.734375 -8.859375 C 3.78125 -9.09375 3.796875 -9.171875 3.875 -9.328125 Z M 4.109375 -9.328125 "/>
</g>
<g id="glyph-3-2">
<path d="M 0.75 -9.34375 L 0.796875 -9 C 1.125 -9.125 1.28125 -9.171875 1.4375 -9.171875 C 2.109375 -9.171875 2.640625 -8.5 3.21875 -6.890625 C 3.5625 -5.921875 4.125 -3.9375 4.109375 -3.703125 C 4.109375 -3.703125 4.109375 -3.671875 4.09375 -3.625 L 3.796875 -1.796875 C 3.546875 -0.484375 3.546875 -0.453125 2.96875 -0.40625 L 2.28125 -0.359375 L 2.21875 0.046875 L 2.984375 0.03125 C 3.65625 0.015625 3.984375 0 4.21875 0 L 5.609375 0.046875 L 5.984375 0.046875 L 6.03125 -0.359375 L 5.328125 -0.40625 C 4.9375 -0.4375 4.8125 -0.53125 4.8125 -0.828125 C 4.8125 -0.90625 4.828125 -1.046875 4.828125 -1.125 L 5.203125 -3.546875 C 5.34375 -4.34375 6.28125 -6.046875 7.34375 -7.390625 C 8.171875 -8.453125 8.78125 -8.890625 9.625 -9.03125 L 9.71875 -10.0625 C 8.65625 -9.78125 7.90625 -9.1875 6.828125 -7.734375 C 5.9375 -6.53125 5.375 -5.546875 4.984375 -4.46875 C 3.90625 -8.890625 3.203125 -10.15625 1.890625 -10.171875 L 1.828125 -10.140625 C 1.78125 -10.09375 1.734375 -10.0625 1.703125 -10.03125 C 1.546875 -9.90625 1.234375 -9.671875 0.96875 -9.5 Z M 0.75 -9.34375 "/>
</g>
<g id="glyph-4-0">
<path d="M 2.9375 -1.78125 C 2.546875 -1.640625 2.28125 -1.5625 1.53125 -1.34375 C 1.421875 -0.25 1.0625 0.6875 0.234375 2.078125 L 0.4375 2.234375 L 1.015625 1.96875 C 2.1875 0.453125 2.734375 -0.46875 3.140625 -1.578125 Z M 2.9375 -1.78125 "/>
</g>
<g id="glyph-5-0">
<path d="M 6.734375 -1.3125 C 6.734375 -0.453125 6.6875 -0.359375 6.171875 -0.328125 L 5.65625 -0.296875 L 5.65625 0.03125 C 6.296875 0.015625 6.6875 0 7.25 0 C 7.8125 0 8.21875 0.015625 8.859375 0.03125 L 8.859375 -0.296875 L 8.328125 -0.328125 C 7.828125 -0.359375 7.78125 -0.453125 7.78125 -1.3125 L 7.78125 -6.234375 C 7.78125 -7.109375 7.828125 -7.203125 8.328125 -7.234375 L 8.859375 -7.265625 L 8.859375 -7.59375 C 8.0625 -7.5625 7.8125 -7.5625 7.25 -7.5625 C 6.703125 -7.5625 6.4375 -7.5625 5.65625 -7.59375 L 5.65625 -7.265625 L 6.171875 -7.234375 C 6.6875 -7.203125 6.734375 -7.109375 6.734375 -6.234375 L 6.734375 -4.28125 C 6.5 -4.28125 6.28125 -4.265625 5.828125 -4.265625 L 3.265625 -4.265625 C 2.828125 -4.265625 2.578125 -4.28125 2.359375 -4.28125 L 2.359375 -6.234375 C 2.359375 -7.109375 2.421875 -7.203125 2.921875 -7.234375 L 3.4375 -7.265625 L 3.4375 -7.59375 C 2.640625 -7.5625 2.40625 -7.5625 1.84375 -7.5625 C 1.296875 -7.5625 1.03125 -7.5625 0.234375 -7.59375 L 0.234375 -7.265625 L 0.765625 -7.234375 C 1.265625 -7.203125 1.328125 -7.109375 1.328125 -6.234375 L 1.328125 -1.3125 C 1.328125 -0.453125 1.265625 -0.359375 0.765625 -0.328125 L 0.234375 -0.296875 L 0.234375 0.03125 C 0.890625 0.015625 1.265625 0 1.84375 0 C 2.40625 0 2.796875 0.015625 3.4375 0.03125 L 3.4375 -0.296875 L 2.921875 -0.328125 C 2.421875 -0.359375 2.359375 -0.453125 2.359375 -1.3125 L 2.359375 -3.765625 C 2.65625 -3.78125 2.828125 -3.78125 3.265625 -3.78125 L 5.828125 -3.78125 C 6.265625 -3.78125 6.4375 -3.78125 6.734375 -3.765625 Z M 6.734375 -1.3125 "/>
</g>
<g id="glyph-5-1">
<path d="M 2.234375 -1.34375 C 1.9375 -1.25 1.734375 -1.1875 1.15625 -1.015625 C 1.078125 -0.1875 0.8125 0.53125 0.171875 1.578125 L 0.328125 1.703125 L 0.78125 1.484375 C 1.65625 0.34375 2.078125 -0.34375 2.390625 -1.203125 Z M 2.234375 -1.34375 "/>
</g>
<g id="glyph-6-0">
<path d="M 3.59375 -0.21875 L 3.59375 0.03125 C 4 0.015625 4.390625 0 4.75 0 C 5.09375 0 5.484375 0.015625 5.90625 0.03125 L 5.90625 -0.21875 L 5.6875 -0.234375 C 5.328125 -0.265625 5.21875 -0.3125 5.09375 -0.53125 L 3.625 -3.1875 L 5.53125 -5.359375 C 5.78125 -5.65625 5.859375 -5.703125 6.09375 -5.734375 L 6.328125 -5.75 L 6.328125 -5.984375 L 5.34375 -5.96875 C 5.25 -5.96875 5.125 -5.96875 4.359375 -5.984375 L 4.359375 -5.75 L 4.640625 -5.734375 C 4.921875 -5.71875 5.03125 -5.671875 5.03125 -5.5625 C 5.03125 -5.46875 4.984375 -5.390625 4.828125 -5.203125 L 3.4375 -3.5 L 2.546875 -5.234375 C 2.46875 -5.390625 2.421875 -5.484375 2.421875 -5.5625 C 2.421875 -5.65625 2.53125 -5.71875 2.796875 -5.734375 L 3.109375 -5.75 L 3.109375 -5.984375 L 2.71875 -5.984375 C 2.359375 -5.96875 2.109375 -5.96875 1.96875 -5.96875 C 1.8125 -5.96875 1.5625 -5.96875 1.203125 -5.984375 L 0.8125 -5.984375 L 0.8125 -5.75 L 1.046875 -5.734375 C 1.46875 -5.6875 1.5625 -5.625 1.75 -5.3125 L 3 -2.96875 L 0.953125 -0.53125 C 0.8125 -0.375 0.625 -0.265625 0.40625 -0.25 L 0.171875 -0.21875 L 0.171875 0.03125 C 0.59375 0.015625 0.953125 0 1.25 0 C 1.5625 0 1.90625 0.015625 2.28125 0.03125 L 2.28125 -0.21875 L 2 -0.25 C 1.671875 -0.28125 1.53125 -0.328125 1.53125 -0.4375 C 1.53125 -0.5 1.5625 -0.578125 1.609375 -0.65625 L 3.1875 -2.65625 L 4.203125 -0.6875 C 4.28125 -0.53125 4.328125 -0.421875 4.328125 -0.34375 C 4.328125 -0.28125 4.265625 -0.25 4.046875 -0.25 L 3.921875 -0.25 Z M 3.59375 -0.21875 "/>
</g>
<g id="glyph-6-1">
<path d="M 2.46875 -5.59375 L 3.375 -5.625 C 3.921875 -5.625 4.265625 -5.546875 4.265625 -5.421875 L 4.34375 -4.640625 L 4.546875 -4.640625 C 4.578125 -5.1875 4.625 -5.640625 4.71875 -5.96875 C 4.53125 -5.984375 4.296875 -5.984375 4.15625 -5.984375 L 3.796875 -5.984375 L 2.375 -5.96875 L 2.125 -5.96875 C 1.90625 -5.96875 1.5625 -5.96875 1.234375 -5.984375 L 0.8125 -5.984375 L 0.78125 -5.75 L 1.265625 -5.734375 C 1.46875 -5.71875 1.5625 -5.640625 1.5625 -5.5 C 1.5625 -5.375 1.53125 -5.09375 1.484375 -4.84375 L 0.84375 -1.078125 C 0.703125 -0.28125 0.703125 -0.28125 0.34375 -0.25 L 0.03125 -0.21875 L 0 0.03125 L 0.296875 0.015625 C 0.640625 0.015625 0.921875 0 1.09375 0 C 1.25 0 1.5 0.015625 1.84375 0.015625 L 2.28125 0.03125 L 2.3125 -0.21875 L 1.765625 -0.25 C 1.53125 -0.25 1.453125 -0.3125 1.453125 -0.5 C 1.453125 -0.546875 1.453125 -0.640625 1.46875 -0.671875 L 1.78125 -2.609375 L 2.78125 -2.609375 C 3.015625 -2.609375 3.28125 -2.59375 3.703125 -2.578125 L 3.921875 -2.578125 L 4.09375 -2.953125 L 4.046875 -3.015625 C 3.359375 -2.984375 2.84375 -2.96875 2.171875 -2.96875 L 1.84375 -2.96875 L 2.25 -5.3125 C 2.265625 -5.453125 2.28125 -5.5 2.3125 -5.59375 Z M 2.46875 -5.59375 "/>
</g>
<g id="glyph-6-2">
<path d="M 0.453125 -5.59375 L 0.46875 -5.390625 C 0.671875 -5.46875 0.765625 -5.5 0.859375 -5.5 C 1.265625 -5.5 1.578125 -5.09375 1.9375 -4.125 C 2.140625 -3.546875 2.46875 -2.359375 2.46875 -2.21875 C 2.46875 -2.21875 2.46875 -2.203125 2.453125 -2.171875 L 2.28125 -1.078125 C 2.125 -0.296875 2.125 -0.265625 1.78125 -0.25 L 1.359375 -0.21875 L 1.328125 0.03125 L 1.78125 0.015625 C 2.1875 0.015625 2.390625 0 2.53125 0 L 3.359375 0.03125 L 3.59375 0.03125 L 3.609375 -0.21875 L 3.1875 -0.25 C 2.953125 -0.265625 2.875 -0.3125 2.875 -0.5 C 2.875 -0.546875 2.890625 -0.625 2.890625 -0.671875 L 3.125 -2.125 C 3.203125 -2.609375 3.765625 -3.625 4.40625 -4.4375 C 4.90625 -5.078125 5.265625 -5.328125 5.765625 -5.421875 L 5.828125 -6.03125 C 5.1875 -5.875 4.734375 -5.5 4.09375 -4.640625 C 3.5625 -3.90625 3.21875 -3.328125 2.984375 -2.6875 C 2.34375 -5.328125 1.921875 -6.09375 1.125 -6.109375 L 1.09375 -6.078125 C 1.0625 -6.046875 1.046875 -6.03125 1.015625 -6.015625 C 0.921875 -5.9375 0.734375 -5.796875 0.578125 -5.703125 Z M 0.453125 -5.59375 "/>
</g>
<g id="glyph-7-0">
<path d="M 1.765625 -1.0625 C 1.53125 -0.984375 1.375 -0.9375 0.921875 -0.8125 C 0.859375 -0.140625 0.640625 0.421875 0.140625 1.25 L 0.265625 1.34375 L 0.609375 1.171875 C 1.3125 0.265625 1.640625 -0.28125 1.875 -0.9375 Z M 1.765625 -1.0625 "/>
</g>
<g id="glyph-8-0">
<path d="M 4.3125 -3.296875 C 5.796875 -3.296875 7.125 -4.34375 7.125 -5.671875 C 7.125 -6.90625 5.90625 -8.015625 4.234375 -8.015625 L 1.125 -8.015625 L 1.125 0 L 2.28125 0 L 2.28125 -3.296875 Z M 3.9375 -7.328125 C 5.25 -7.328125 6.078125 -6.640625 6.078125 -5.671875 C 6.078125 -4.71875 5.296875 -4 3.9375 -4 L 2.25 -4 L 2.25 -7.328125 Z M 3.9375 -7.328125 "/>
</g>
<g id="glyph-8-1">
<path d="M 5.6875 -7.6875 C 4.9375 -8.078125 4.296875 -8.25 3.4375 -8.25 C 1.703125 -8.25 0.671875 -7.078125 0.671875 -5.96875 C 0.671875 -5.5 0.828125 -4.9375 1.390625 -4.40625 C 1.890625 -3.9375 2.421875 -3.828125 3.140625 -3.65625 C 4.109375 -3.421875 4.375 -3.359375 4.703125 -3.015625 C 4.921875 -2.796875 5.109375 -2.46875 5.109375 -2.078125 C 5.109375 -1.359375 4.46875 -0.625 3.34375 -0.625 C 2.6875 -0.625 1.640625 -0.8125 0.71875 -1.59375 L 0.546875 -0.546875 C 1.109375 -0.21875 2.0625 0.25 3.359375 0.25 C 4.953125 0.25 6.09375 -0.921875 6.09375 -2.21875 C 6.09375 -3.15625 5.546875 -3.6875 5.328125 -3.921875 C 4.84375 -4.40625 4.3125 -4.53125 3.421875 -4.734375 C 2.71875 -4.890625 2.359375 -4.984375 2.078125 -5.25 C 1.9375 -5.40625 1.671875 -5.671875 1.671875 -6.109375 C 1.671875 -6.75 2.3125 -7.421875 3.421875 -7.421875 C 4.296875 -7.421875 4.90625 -7.140625 5.5 -6.65625 Z M 5.6875 -7.6875 "/>
</g>
<g id="glyph-8-2">
<path d="M 5.34375 -3.421875 C 5.34375 -4.3125 5.078125 -5.25 3.671875 -5.25 C 2.671875 -5.25 2.15625 -4.671875 1.921875 -4.421875 L 1.921875 -8.015625 L 0.953125 -8.015625 L 0.953125 0 L 1.953125 0 L 1.953125 -2.8125 C 1.953125 -3.5625 2.28125 -4.484375 3.15625 -4.484375 C 4.34375 -4.484375 4.34375 -3.671875 4.34375 -3.34375 L 4.34375 0 L 5.34375 0 Z M 5.34375 -3.421875 "/>
</g>
<g id="glyph-8-3">
<path d="M 7.125 -1.40625 C 6.3125 -0.90625 5.953125 -0.6875 4.796875 -0.6875 C 3.015625 -0.6875 1.9375 -2.359375 1.9375 -4.03125 C 1.9375 -5.734375 3.109375 -7.34375 4.796875 -7.34375 C 5.546875 -7.34375 6.34375 -7.09375 6.859375 -6.703125 L 7.046875 -7.75 C 6.25 -8.046875 5.59375 -8.140625 4.765625 -8.140625 C 2.484375 -8.140625 0.78125 -6.25 0.78125 -4.015625 C 0.78125 -1.640625 2.59375 0.109375 4.828125 0.109375 C 5.953125 0.109375 6.421875 -0.109375 7.1875 -0.53125 Z M 7.125 -1.40625 "/>
</g>
<g id="glyph-9-0">
<path d="M 3.765625 2.734375 C 3.765625 2.703125 3.765625 2.6875 3.578125 2.484375 C 2.15625 1.046875 1.78125 -1.109375 1.78125 -2.859375 C 1.78125 -4.84375 2.21875 -6.828125 3.625 -8.265625 C 3.765625 -8.390625 3.765625 -8.421875 3.765625 -8.453125 C 3.765625 -8.53125 3.71875 -8.5625 3.65625 -8.5625 C 3.546875 -8.5625 2.515625 -7.796875 1.84375 -6.34375 C 1.265625 -5.078125 1.125 -3.8125 1.125 -2.859375 C 1.125 -1.96875 1.25 -0.578125 1.875 0.703125 C 2.5625 2.109375 3.546875 2.859375 3.65625 2.859375 C 3.71875 2.859375 3.765625 2.828125 3.765625 2.734375 Z M 3.765625 2.734375 "/>
</g>
<g id="glyph-9-1">
<path d="M 3.296875 -2.859375 C 3.296875 -3.75 3.171875 -5.125 2.546875 -6.421875 C 1.859375 -7.828125 0.875 -8.5625 0.765625 -8.5625 C 0.6875 -8.5625 0.65625 -8.515625 0.65625 -8.453125 C 0.65625 -8.421875 0.65625 -8.390625 0.859375 -8.1875 C 1.984375 -7.0625 2.625 -5.25 2.625 -2.859375 C 2.625 -0.90625 2.203125 1.109375 0.796875 2.546875 C 0.65625 2.6875 0.65625 2.703125 0.65625 2.734375 C 0.65625 2.8125 0.6875 2.859375 0.765625 2.859375 C 0.875 2.859375 1.90625 2.078125 2.578125 0.625 C 3.15625 -0.625 3.296875 -1.890625 3.296875 -2.859375 Z M 3.296875 -2.859375 "/>
</g>
<g id="glyph-10-0">
<path d="M 5.34375 -1.125 C 5.34375 -0.765625 5.3125 -0.484375 5.203125 -0.3125 C 5.0625 -0.09375 4.71875 0.171875 4.265625 0.21875 C 3.8125 0.265625 3.328125 0.203125 3.109375 -0.078125 C 2.953125 -0.296875 2.9375 -0.671875 3.09375 -0.875 C 3.34375 -1.21875 4.171875 -1.203125 4.84375 -1.171875 C 5.015625 -1.15625 5.1875 -1.15625 5.34375 -1.125 Z M 5.328125 -1.53125 C 5.1875 -1.53125 5.015625 -1.53125 4.859375 -1.53125 C 4.171875 -1.546875 3.296875 -1.484375 2.9375 -1 C 2.71875 -0.703125 2.734375 -0.25 2.953125 0.046875 C 3.21875 0.421875 3.765625 0.578125 4.296875 0.53125 C 4.8125 0.5 5.375 0.421875 5.671875 -0.015625 C 5.875 -0.3125 5.921875 -0.65625 5.890625 -1.03125 C 6 -1.015625 6.109375 -0.984375 6.1875 -0.96875 C 6.46875 -0.890625 6.734375 -0.78125 6.984375 -0.65625 C 7.234375 -0.546875 7.46875 -0.359375 7.71875 -0.21875 C 8 -0.0625 8.28125 -0.09375 8.359375 -0.265625 C 8.46875 -0.4375 8.328125 -0.6875 8.046875 -0.828125 C 7.78125 -0.96875 7.484375 -1.046875 7.21875 -1.171875 C 6.921875 -1.296875 6.609375 -1.375 6.3125 -1.4375 C 6.15625 -1.46875 6.015625 -1.484375 5.84375 -1.5 C 5.828125 -1.71875 5.8125 -1.90625 5.796875 -2.109375 C 5.765625 -2.625 5.78125 -3.15625 5.78125 -3.65625 C 6.109375 -3.609375 6.421875 -3.53125 6.734375 -3.578125 C 7.15625 -3.625 7.546875 -3.703125 7.90625 -3.828125 C 8.140625 -3.90625 8.296875 -4.09375 8.25 -4.234375 C 8.1875 -4.390625 7.96875 -4.4375 7.734375 -4.359375 C 7.375 -4.234375 7.03125 -4.0625 6.6875 -4 C 6.390625 -3.953125 6.109375 -3.859375 5.796875 -3.8125 C 5.8125 -4.21875 5.8125 -4.578125 5.8125 -4.859375 C 5.8125 -5.109375 5.859375 -5.359375 5.734375 -5.59375 C 5.59375 -5.90625 5.15625 -6.015625 4.90625 -6.265625 C 4.859375 -6.3125 4.796875 -6.328125 4.75 -6.3125 C 4.734375 -6.28125 4.75 -6.203125 4.78125 -6.15625 C 4.984375 -5.875 5.015625 -5.453125 5.09375 -5.28125 C 5.15625 -5.140625 5.265625 -5.046875 5.296875 -4.828125 C 5.34375 -4.21875 5.265625 -3.109375 5.296875 -2.078125 C 5.3125 -1.890625 5.328125 -1.703125 5.328125 -1.53125 Z M 5.328125 -1.53125 "/>
</g>
<g id="glyph-11-0">
<path d="M 3.125 -4.203125 C 3.171875 -4.40625 3.25 -4.65625 3.3125 -4.8125 L 3.265625 -4.890625 L 3.1875 -4.875 C 2.9375 -4.796875 2.8125 -4.796875 2.28125 -4.796875 L 2.09375 -4.796875 L 2.328125 -6.015625 C 2.5 -6.96875 2.8125 -7.375 3.3125 -7.375 C 3.640625 -7.375 3.9375 -7.21875 4.09375 -6.953125 L 4.203125 -7 C 4.265625 -7.171875 4.375 -7.515625 4.46875 -7.734375 L 4.515625 -7.890625 C 4.34375 -7.96875 4 -8.046875 3.75 -8.046875 C 3.625 -8.046875 3.453125 -8 3.375 -7.96875 C 3.109375 -7.84375 2.203125 -7.171875 1.953125 -6.90625 C 1.71875 -6.671875 1.578125 -6.34375 1.46875 -5.71875 L 1.296875 -4.84375 C 0.859375 -4.625 0.640625 -4.546875 0.359375 -4.4375 L 0.3125 -4.203125 L 1.1875 -4.203125 L 1.09375 -3.59375 C 0.765625 -1.453125 0.359375 0.59375 0.125 1.34375 C -0.078125 2 -0.40625 2.34375 -0.796875 2.34375 C -1.046875 2.34375 -1.171875 2.265625 -1.359375 2.015625 L -1.515625 2.0625 C -1.5625 2.3125 -1.71875 2.84375 -1.765625 2.9375 C -1.671875 3 -1.515625 3.03125 -1.390625 3.03125 C -0.9375 3.03125 -0.34375 2.6875 0.078125 2.171875 C 0.75 1.375 0.984375 0.609375 1.78125 -3.234375 C 1.8125 -3.375 1.90625 -3.78125 1.984375 -4.203125 Z M 3.125 -4.203125 "/>
</g>
<g id="glyph-11-1">
<path d="M 3.125 -7.078125 L 4.28125 -7.125 C 4.96875 -7.125 5.40625 -7.03125 5.40625 -6.859375 L 5.5 -5.890625 L 5.765625 -5.890625 C 5.796875 -6.578125 5.875 -7.140625 6 -7.5625 C 5.75 -7.578125 5.453125 -7.59375 5.265625 -7.59375 L 4.8125 -7.578125 L 3 -7.5625 L 2.6875 -7.5625 C 2.421875 -7.5625 1.984375 -7.5625 1.5625 -7.578125 L 1.03125 -7.59375 L 1 -7.28125 L 1.609375 -7.265625 C 1.875 -7.25 1.984375 -7.15625 1.984375 -6.96875 C 1.984375 -6.8125 1.953125 -6.453125 1.890625 -6.125 L 1.078125 -1.375 C 0.890625 -0.359375 0.890625 -0.34375 0.4375 -0.3125 L 0.046875 -0.28125 L 0 0.03125 L 0.375 0.015625 C 0.8125 0.015625 1.15625 0 1.390625 0 C 1.578125 0 1.90625 0.015625 2.328125 0.015625 L 2.890625 0.03125 L 2.9375 -0.28125 L 2.234375 -0.3125 C 1.9375 -0.3125 1.84375 -0.40625 1.84375 -0.625 C 1.84375 -0.6875 1.84375 -0.8125 1.859375 -0.859375 L 2.25 -3.296875 L 3.53125 -3.296875 C 3.828125 -3.296875 4.171875 -3.296875 4.6875 -3.265625 L 4.96875 -3.25 L 5.1875 -3.75 L 5.140625 -3.828125 C 4.25 -3.78125 3.59375 -3.765625 2.75 -3.765625 L 2.34375 -3.765625 L 2.84375 -6.734375 C 2.875 -6.90625 2.890625 -6.96875 2.9375 -7.078125 Z M 3.125 -7.078125 "/>
</g>
</g>
<clipPath id="clip-0">
<rect x="0" y="0" width="225" height="103"/>
</clipPath>
<g id="source-5" clip-path="url(#clip-0)">
<g fill="rgb(0%, 0%, 0%)" fill-opacity="1">
<use xlink:href="#glyph-0-0" x="26.281515" y="22.411178"/>
<use xlink:href="#glyph-0-1" x="35.471773" y="22.411178"/>
<use xlink:href="#glyph-0-2" x="43.468116" y="22.411178"/>
</g>
<g fill="rgb(0%, 0%, 0%)" fill-opacity="1">
<use xlink:href="#glyph-1-0" x="51.076174" y="22.411178"/>
</g>
<g fill="rgb(0%, 0%, 0%)" fill-opacity="1">
<use xlink:href="#glyph-0-3" x="57.063531" y="22.411178"/>
</g>
<g fill="rgb(0%, 0%, 0%)" fill-opacity="1">
<use xlink:href="#glyph-1-1" x="66.433684" y="22.411178"/>
<use xlink:href="#glyph-1-0" x="72.607551" y="22.411178"/>
</g>
<g fill="rgb(0%, 0%, 0%)" fill-opacity="1">
<use xlink:href="#glyph-2-0" x="76.206961" y="22.411178"/>
</g>
<g fill="rgb(0%, 0%, 0%)" fill-opacity="1">
<use xlink:href="#glyph-3-0" x="88.577723" y="22.411178"/>
</g>
<g fill="rgb(0%, 0%, 0%)" fill-opacity="1">
<use xlink:href="#glyph-4-0" x="99.466807" y="22.411178"/>
</g>
<g fill="rgb(0%, 0%, 0%)" fill-opacity="1">
<use xlink:href="#glyph-3-1" x="105.99734" y="22.411178"/>
</g>
<g fill="rgb(0%, 0%, 0%)" fill-opacity="1">
<use xlink:href="#glyph-1-1" x="114.504649" y="22.411178"/>
</g>
<g fill="rgb(0%, 0%, 0%)" fill-opacity="1">
<use xlink:href="#glyph-3-1" x="198.707526" y="22.411178"/>
<use xlink:href="#glyph-3-0" x="207.424533" y="22.411178"/>
</g>
<g fill="rgb(0%, 0%, 0%)" fill-opacity="1">
<use xlink:href="#glyph-0-0" x="26.957237" y="98.906085"/>
<use xlink:href="#glyph-0-1" x="36.147494" y="98.906085"/>
<use xlink:href="#glyph-0-2" x="44.143838" y="98.906085"/>
</g>
<g fill="rgb(0%, 0%, 0%)" fill-opacity="1">
<use xlink:href="#glyph-1-0" x="51.751896" y="98.906085"/>
</g>
<g fill="rgb(0%, 0%, 0%)" fill-opacity="1">
<use xlink:href="#glyph-0-3" x="57.739253" y="98.906085"/>
</g>
<g fill="rgb(0%, 0%, 0%)" fill-opacity="1">
<use xlink:href="#glyph-1-1" x="67.109406" y="98.906085"/>
<use xlink:href="#glyph-1-0" x="73.283273" y="98.906085"/>
</g>
<g fill="rgb(0%, 0%, 0%)" fill-opacity="1">
<use xlink:href="#glyph-2-0" x="76.882683" y="98.906085"/>
</g>
<g fill="rgb(0%, 0%, 0%)" fill-opacity="1">
<use xlink:href="#glyph-3-2" x="88.749974" y="98.906085"/>
</g>
<g fill="rgb(0%, 0%, 0%)" fill-opacity="1">
<use xlink:href="#glyph-4-0" x="98.790363" y="98.906085"/>
</g>
<g fill="rgb(0%, 0%, 0%)" fill-opacity="1">
<use xlink:href="#glyph-3-1" x="105.320897" y="98.906085"/>
</g>
<g fill="rgb(0%, 0%, 0%)" fill-opacity="1">
<use xlink:href="#glyph-1-1" x="113.82835" y="98.906085"/>
</g>
<g fill="rgb(0%, 0%, 0%)" fill-opacity="1">
<use xlink:href="#glyph-3-1" x="199.383248" y="98.906085"/>
<use xlink:href="#glyph-3-2" x="207.596798" y="98.906085"/>
</g>
<path fill="none" stroke-width="0.3985" stroke-linecap="butt" stroke-linejoin="miter" stroke="rgb(0%, 0%, 0%)" stroke-opacity="1" stroke-miterlimit="10" d="M 1.939571 28.628215 L 48.962829 28.628215 " transform="matrix(1.44385, 0, 0, -1.448438, 122.2933, 56.48182)"/>
<path fill="none" stroke-width="0.3985" stroke-linecap="round" stroke-linejoin="round" stroke="rgb(0%, 0%, 0%)" stroke-opacity="1" stroke-miterlimit="10" d="M -2.072268 2.390961 C -1.693506 0.956226 -0.849409 0.279311 0.0000995602 -0.00116332 C -0.849409 -0.278941 -1.693506 -0.955856 -2.072268 -2.390591 " transform="matrix(1.44385, 0, 0, -1.448438, 193.2772, 15.01394)"/>
<g fill="rgb(0%, 0%, 0%)" fill-opacity="1">
<use xlink:href="#glyph-5-0" x="147.302135" y="7.793541"/>
</g>
<g fill="rgb(0%, 0%, 0%)" fill-opacity="1">
<use xlink:href="#glyph-6-0" x="156.633737" y="10.008203"/>
</g>
<g fill="rgb(0%, 0%, 0%)" fill-opacity="1">
<use xlink:href="#glyph-7-0" x="163.167159" y="10.008203"/>
</g>
<g fill="rgb(0%, 0%, 0%)" fill-opacity="1">
<use xlink:href="#glyph-6-1" x="165.644228" y="10.008203"/>
</g>
<path fill="none" stroke-width="0.3985" stroke-linecap="butt" stroke-linejoin="miter" stroke="rgb(0%, 0%, 0%)" stroke-opacity="1" stroke-miterlimit="10" d="M 49.363235 23.396286 L 2.337271 23.396286 " transform="matrix(1.44385, 0, 0, -1.448438, 122.2933, 56.48182)"/>
<path fill="none" stroke-width="0.3985" stroke-linecap="round" stroke-linejoin="round" stroke="rgb(0%, 0%, 0%)" stroke-opacity="1" stroke-miterlimit="10" d="M -2.073346 2.392083 C -1.694584 0.957348 -0.850487 0.277736 -0.000978287 -0.0000414239 C -0.850487 -0.277819 -1.694584 -0.957431 -2.073346 -2.392166 " transform="matrix(-1.44385, 0, 0, 1.448438, 125.3814, 22.59381)"/>
<path fill="none" stroke-width="0.3985" stroke-linecap="butt" stroke-linejoin="miter" stroke="rgb(0%, 0%, 0%)" stroke-opacity="1" stroke-miterlimit="10" d="M -33.872342 -17.733689 L -33.872342 17.336418 " transform="matrix(1.44385, 0, 0, -1.448438, 122.2933, 56.48182)"/>
<path fill="none" stroke-width="0.3985" stroke-linecap="round" stroke-linejoin="round" stroke="rgb(0%, 0%, 0%)" stroke-opacity="1" stroke-miterlimit="10" d="M -2.072403 2.39062 C -1.694841 0.956736 -0.850721 0.277671 -0.00120647 -0.000989542 C -0.850721 -0.27965 -1.694841 -0.95601 -2.072403 -2.389893 " transform="matrix(0, -1.448438, -1.44385, 0, 73.38529, 31.08419)"/>
<g fill="rgb(0%, 0%, 0%)" fill-opacity="1">
<use xlink:href="#glyph-8-0" x="-0.728587" y="59.570855"/>
<use xlink:href="#glyph-8-1" x="7.082792" y="59.570855"/>
</g>
<g fill="rgb(0%, 0%, 0%)" fill-opacity="1">
<use xlink:href="#glyph-8-2" x="13.869992" y="59.570855"/>
</g>
<g fill="rgb(0%, 0%, 0%)" fill-opacity="1">
<use xlink:href="#glyph-9-0" x="20.32549" y="59.570855"/>
</g>
<g fill="rgb(0%, 0%, 0%)" fill-opacity="1">
<use xlink:href="#glyph-8-3" x="24.88228" y="59.570855"/>
</g>
<g fill="rgb(0%, 0%, 0%)" fill-opacity="1">
<use xlink:href="#glyph-9-1" x="32.830242" y="59.570855"/>
<use xlink:href="#glyph-9-0" x="37.522359" y="59.570855"/>
</g>
<g fill="rgb(0%, 0%, 0%)" fill-opacity="1">
<use xlink:href="#glyph-10-0" x="40.247155" y="59.570855"/>
</g>
<g fill="rgb(0%, 0%, 0%)" fill-opacity="1">
<use xlink:href="#glyph-11-0" x="50.916917" y="59.570855"/>
</g>
<g fill="rgb(0%, 0%, 0%)" fill-opacity="1">
<use xlink:href="#glyph-5-1" x="55.563227" y="59.570855"/>
</g>
<g fill="rgb(0%, 0%, 0%)" fill-opacity="1">
<use xlink:href="#glyph-11-1" x="58.711686" y="59.570855"/>
</g>
<g fill="rgb(0%, 0%, 0%)" fill-opacity="1">
<use xlink:href="#glyph-9-1" x="65.177391" y="59.570855"/>
</g>
<path fill="none" stroke-width="0.3985" stroke-linecap="butt" stroke-linejoin="miter" stroke="rgb(0%, 0%, 0%)" stroke-opacity="1" stroke-miterlimit="10" d="M 1.47153 -24.184604 L 49.430871 -24.184604 " transform="matrix(1.44385, 0, 0, -1.448438, 122.2933, 56.48182)"/>
<path fill="none" stroke-width="0.3985" stroke-linecap="round" stroke-linejoin="round" stroke="rgb(0%, 0%, 0%)" stroke-opacity="1" stroke-miterlimit="10" d="M -2.072488 2.390841 C -1.693727 0.956106 -0.849629 0.279191 -0.000121204 -0.00128328 C -0.849629 -0.279061 -1.693727 -0.955976 -2.072488 -2.390711 " transform="matrix(1.44385, 0, 0, -1.448438, 193.9533, 91.50986)"/>
<g fill="rgb(0%, 0%, 0%)" fill-opacity="1">
<use xlink:href="#glyph-5-0" x="147.707857" y="84.175471"/>
</g>
<g fill="rgb(0%, 0%, 0%)" fill-opacity="1">
<use xlink:href="#glyph-6-2" x="156.737694" y="86.503111"/>
</g>
<g fill="rgb(0%, 0%, 0%)" fill-opacity="1">
<use xlink:href="#glyph-7-0" x="162.762014" y="86.503111"/>
</g>
<g fill="rgb(0%, 0%, 0%)" fill-opacity="1">
<use xlink:href="#glyph-6-1" x="165.238939" y="86.503111"/>
</g>
<path fill="none" stroke-width="0.3985" stroke-linecap="butt" stroke-linejoin="miter" stroke="rgb(0%, 0%, 0%)" stroke-opacity="1" stroke-miterlimit="10" d="M 59.524868 -19.084821 L 59.524868 19.890354 " transform="matrix(1.44385, 0, 0, -1.448438, 122.2933, 56.48182)"/>
<path fill="none" stroke-width="0.3985" stroke-linecap="round" stroke-linejoin="round" stroke="rgb(0%, 0%, 0%)" stroke-opacity="1" stroke-miterlimit="10" d="M -2.071212 2.39093 C -1.69365 0.957046 -0.84953 0.277981 -0.000015534 -0.000679607 C -0.84953 -0.27934 -1.69365 -0.9557 -2.071212 -2.392289 " transform="matrix(0, -1.448438, -1.44385, 0, 208.2373, 27.38279)"/>
<g fill="rgb(0%, 0%, 0%)" fill-opacity="1">
<use xlink:href="#glyph-11-1" x="212.307149" y="58.083309"/>
<use xlink:href="#glyph-11-0" x="220.189305" y="58.083309"/>
</g>
<path fill="none" stroke-width="0.3985" stroke-linecap="butt" stroke-linejoin="miter" stroke="rgb(0%, 0%, 0%)" stroke-opacity="1" stroke-miterlimit="10" d="M 49.831276 -29.416533 L 1.86923 -29.416533 " transform="matrix(1.44385, 0, 0, -1.448438, 122.2933, 56.48182)"/>
<path fill="none" stroke-width="0.3985" stroke-linecap="round" stroke-linejoin="round" stroke="rgb(0%, 0%, 0%)" stroke-opacity="1" stroke-miterlimit="10" d="M -2.070861 2.392207 C -1.694805 0.957472 -0.850707 0.27786 -0.00119905 0.0000826753 C -0.850707 -0.277695 -1.694805 -0.957306 -2.070861 -2.392042 " transform="matrix(-1.44385, 0, 0, 1.448438, 124.7053, 99.089724)"/>
</g>
</defs>
<use xlink:href="#source-5"/>
</svg>
